STARTFONT 2.1
COMMENT
COMMENT Converted from OpenType font "UbuntuMono-Regular.ttf" by "otf2bdf 3.0".
COMMENT
FONT -FreeType-Ubuntu Mono-Medium-R-Normal--66-480-100-100-P-277-ISO10646-1
SIZE 48 100 100
FONTBOUNDINGBOX 65 66 -21 -11
STARTPROPERTIES 19
FOUNDRY "FreeType"
FAMILY_NAME "Ubuntu Mono"
WEIGHT_NAME "Medium"
SLANT "R"
SETWIDTH_NAME "Normal"
ADD_STYLE_NAME ""
PIXEL_SIZE 66
POINT_SIZE 480
RESOLUTION_X 100
RESOLUTION_Y 100
SPACING "P"
AVERAGE_WIDTH 277
CHARSET_REGISTRY "ISO10646"
CHARSET_ENCODING "1"
FONT_ASCENT 55
FONT_DESCENT 11
COPYRIGHT "Copyright 2011 Canonical Ltd.  Licensed under the Ubuntu Font Licence 1.0"
_OTF_FONTFILE "UbuntuMono-Regular.ttf"
_OTF_PSNAME "UbuntuMono-Regular"
ENDPROPERTIES
CHARS 1224
STARTCHAR 0000
ENCODING 0
SWIDTH 495 0
DWIDTH 33 0
BBX 0 0 0 0
BITMAP
ENDCHAR
STARTCHAR 0008
ENCODING 8
SWIDTH 495 0
DWIDTH 33 0
BBX 0 0 0 0
BITMAP
ENDCHAR
STARTCHAR 0009
ENCODING 9
SWIDTH 495 0
DWIDTH 33 0
BBX 0 0 0 0
BITMAP
ENDCHAR
STARTCHAR 000D
ENCODING 13
SWIDTH 495 0
DWIDTH 33 0
BBX 0 0 0 0
BITMAP
ENDCHAR
STARTCHAR 001D
ENCODING 29
SWIDTH 495 0
DWIDTH 33 0
BBX 0 0 0 0
BITMAP
ENDCHAR
STARTCHAR 0020
ENCODING 32
SWIDTH 495 0
DWIDTH 33 0
BBX 0 0 0 0
BITMAP
ENDCHAR
STARTCHAR 0021
ENCODING 33
SWIDTH 495 0
DWIDTH 33 0
BBX 9 42 12 -1
BITMAP
3F00
3F00
3F00
3F00
3F00
3F00
3F00
3F00
3F00
3F00
3F00
3F00
3F00
3F00
3E00
3E00
3E00
3E00
3E00
3E00
3E00
3E00
3E00
3E00
3E00
1E00
1E00
0000
0000
0000
0000
0000
0000
3E00
7F00
FF80
FF80
FF80
FF80
7F00
7F00
1C00
ENDCHAR
STARTCHAR 0022
ENCODING 34
SWIDTH 495 0
DWIDTH 33 0
BBX 16 16 9 29
BITMAP
F81F
F81F
F81F
F81F
F81F
F81F
F81F
F81F
F01E
F01E
F01E
F01E
F01E
F01E
F01E
700E
ENDCHAR
STARTCHAR 0023
ENCODING 35
SWIDTH 495 0
DWIDTH 33 0
BBX 30 41 2 0
BITMAP
003E03E0
003E03E0
007C03E0
007C03E0
007C07C0
007C07C0
007C07C0
00F807C0
00F807C0
00F80F80
00F80F80
FFFFFFFC
FFFFFFFC
FFFFFFFC
FFFFFFFC
01F01F00
01F01F00
03F01F00
03E01F00
03E03F00
03E03E00
03E03E00
03E03E00
07C03E00
07C07E00
07C07C00
FFFFFFFC
FFFFFFFC
FFFFFFFC
FFFFFFFC
0F80F800
0F80F800
0F80F800
1F00F800
1F00F800
1F01F000
1F01F000
1F01F000
3E01F000
3E01F000
3E03F000
ENDCHAR
STARTCHAR 0024
ENCODING 36
SWIDTH 495 0
DWIDTH 33 0
BBX 26 52 4 -6
BITMAP
003E0000
003E0000
003E0000
003E0000
003E0000
003E0000
003F0000
01FFFC00
07FFFF00
0FFFFE00
1FFFFE00
3FC03E00
7F000200
7E000000
7E000000
FC000000
FC000000
FC000000
FE000000
7E000000
7F800000
3FE00000
3FF80000
1FFF0000
0FFFC000
03FFF000
00FFFC00
001FFE00
0007FF00
0000FF00
00007F80
00003F80
00001FC0
00000FC0
00000FC0
00000FC0
00000FC0
00001F80
40001F80
78007F80
FFFFFF00
FFFFFE00
FFFFFC00
3FFFF000
07FF8000
003E0000
003E0000
003E0000
003E0000
003E0000
003E0000
003E0000
ENDCHAR
STARTCHAR 0025
ENCODING 37
SWIDTH 495 0
DWIDTH 33 0
BBX 31 43 1 -1
BITMAP
0FC00000
1FF0007C
3FF8007C
7EF800F8
7C7C00F0
783C01F0
F83C03E0
F03E03C0
F01E07C0
F01E0780
F01E0F80
F01E1F00
F03E1E00
F83C3E00
783C7C00
783C7C00
7C7CF800
3FF8F000
1FF1F000
0FE3E000
0303E000
0007C000
000783C0
000F8FF0
001F1FF8
001E3FFC
003E3C3C
003C7C3C
007C781E
00F8781E
00F0781E
01F0781E
03E0781E
03E0781E
07C0781E
0780781E
0F80781E
1F007C3E
1E003C3C
3E003FFC
3C001FF8
7C000FF0
000003C0
ENDCHAR
STARTCHAR 0026
ENCODING 38
SWIDTH 495 0
DWIDTH 33 0
BBX 29 42 2 -1
BITMAP
007F8000
01FFE000
03FFF000
07FFF800
0FE1F800
0FC0FC00
1F807C00
1F007C00
1F007C00
1F007C00
1F007C00
1F007C00
1F80F800
0F80F800
0F81F000
0FC3F000
07E7E000
07FFC000
03FF8000
01FF0000
03FC03E0
07FE03E0
0FFF03E0
1FBF03E0
3F1F83E0
3E0FC3C0
7E0FE3C0
7C07F7C0
7C03FFC0
FC01FF80
FC00FF80
FC007F80
FC003F00
FC003F80
FC003F80
7E007FC0
7F00FFE0
3F83FFE0
3FFFF3F0
1FFFE3F0
0FFFC1F8
03FF01F8
ENDCHAR
STARTCHAR 0027
ENCODING 39
SWIDTH 495 0
DWIDTH 33 0
BBX 6 18 14 27
BITMAP
FC
FC
FC
FC
FC
F8
F8
F8
F8
F8
F8
F8
F8
F8
78
78
78
70
ENDCHAR
STARTCHAR 0028
ENCODING 40
SWIDTH 495 0
DWIDTH 33 0
BBX 18 58 8 -11
BITMAP
000200
000700
000F00
001F80
003FC0
007F00
00FE00
01FC00
03F800
03F000
07E000
0FC000
0FC000
1F8000
1F8000
3F0000
3F0000
3E0000
7E0000
7C0000
7C0000
FC0000
FC0000
F80000
F80000
F80000
F80000
F80000
F80000
F80000
F80000
F80000
F80000
F80000
F80000
FC0000
FC0000
7C0000
7C0000
7E0000
7E0000
3E0000
3F0000
1F8000
1F8000
0FC000
0FC000
07E000
07F000
03F800
01FC00
00FE00
00FF00
007F80
003F80
001F80
000700
000200
ENDCHAR
STARTCHAR 0029
ENCODING 41
SWIDTH 495 0
DWIDTH 33 0
BBX 18 58 8 -11
BITMAP
200000
300000
780000
FC0000
FE0000
7F0000
3F8000
1FC000
0FE000
07F000
03F000
03F800
01F800
00FC00
007C00
007E00
003E00
003F00
003F00
001F00
001F80
001F80
000F80
000F80
000F80
000FC0
000FC0
000FC0
000FC0
000FC0
000FC0
000FC0
000FC0
000F80
000F80
000F80
000F80
001F80
001F00
001F00
003F00
003F00
007E00
007E00
00FC00
00FC00
01F800
03F800
03F000
07E000
0FC000
1FC000
3F8000
FF0000
FE0000
7C0000
780000
200000
ENDCHAR
STARTCHAR 002A
ENCODING 42
SWIDTH 495 0
DWIDTH 33 0
BBX 25 24 4 17
BITMAP
003F0000
003F0000
003F0000
003E0000
003E0000
003E0000
603E0300
7C1E0F00
7F1E3F80
FFDCFF80
FFFFFF80
7FFFFF80
07FFF000
003E0000
007F8000
00F7C000
01F7E000
03F3F000
07E3F800
0FE1F800
1FC1FC00
0FC0FC00
0780F000
03006000
ENDCHAR
STARTCHAR 002B
ENCODING 43
SWIDTH 495 0
DWIDTH 33 0
BBX 27 29 3 3
BITMAP
001F0000
001F0000
001F0000
001F0000
001F0000
001F0000
001F0000
001F0000
001F0000
001F0000
001F0000
001F0000
FFFFFFE0
FFFFFFE0
FFFFFFE0
FFFFFFE0
FFFFFFE0
001F0000
001F0000
001F0000
001F0000
001F0000
001F0000
001F0000
001F0000
001F0000
001F0000
001F0000
001F0000
ENDCHAR
STARTCHAR 002C
ENCODING 44
SWIDTH 495 0
DWIDTH 33 0
BBX 13 18 10 -10
BITMAP
03E0
07F0
0FF8
0FF8
1FF8
1FF8
0FF8
0FF8
07F8
01F8
01F0
03F0
07E0
1FE0
FFC0
FF80
FE00
7800
ENDCHAR
STARTCHAR 002D
ENCODING 45
SWIDTH 495 0
DWIDTH 33 0
BBX 15 6 9 14
BITMAP
FFFE
FFFE
FFFE
FFFE
FFFE
FFFE
ENDCHAR
STARTCHAR 002E
ENCODING 46
SWIDTH 495 0
DWIDTH 33 0
BBX 10 10 12 -1
BITMAP
3F00
7F80
FF80
FF80
FFC0
FFC0
FF80
7F80
7F00
1E00
ENDCHAR
STARTCHAR 002F
ENCODING 47
SWIDTH 495 0
DWIDTH 33 0
BBX 24 58 5 -11
BITMAP
00003F
00003E
00003E
00007E
00007C
00007C
0000FC
0000F8
0000F8
0001F8
0001F8
0001F0
0003F0
0003F0
0003E0
0007E0
0007E0
0007C0
000FC0
000FC0
000F80
001F80
001F80
001F00
003F00
003F00
003E00
007E00
007E00
007C00
00FC00
00FC00
00F800
01F800
01F800
01F000
01F000
03F000
03F000
03E000
07E000
07E000
07C000
0FC000
0FC000
0F8000
1F8000
1F8000
1F0000
3F0000
3F0000
3E0000
7E0000
7E0000
7C0000
FC0000
FC0000
F80000
ENDCHAR
STARTCHAR 0030
ENCODING 48
SWIDTH 495 0
DWIDTH 33 0
BBX 27 43 3 -1
BITMAP
007FC000
01FFF000
03FFF800
07FFFC00
0FFFFE00
0FE07F00
1F803F00
3F801F80
3F001F80
3E000FC0
7E000FC0
7E0007C0
7C0007C0
7C0007E0
FC0007E0
FC0007E0
FC0E07E0
FC1F03E0
FC3F83E0
FC3F83E0
FC3FC3E0
FC3F83E0
FC3F83E0
FC1F83E0
FC0E03E0
FC0007E0
FC0007E0
FC0007E0
7C0007E0
7C0007E0
7E0007C0
7E000FC0
7E000FC0
3F000FC0
3F001F80
1F801F80
1FC03F00
0FE0FF00
0FFFFE00
07FFFC00
03FFF800
00FFE000
003F8000
ENDCHAR
STARTCHAR 0031
ENCODING 49
SWIDTH 495 0
DWIDTH 33 0
BBX 24 41 5 0
BITMAP
000F00
001F00
003F00
007F00
01FF00
03FF00
0FFF00
3FFF00
FFDF00
7F1F00
7C1F00
701F00
001F00
001F00
001F00
001F00
001F00
001F00
001F00
001F00
001F00
001F00
001F00
001F00
001F00
001F00
001F00
001F00
001F00
001F00
001F00
001F00
001F00
001F00
001F00
001F00
3FFFFF
3FFFFF
3FFFFF
3FFFFF
3FFFFF
ENDCHAR
STARTCHAR 0032
ENCODING 50
SWIDTH 495 0
DWIDTH 33 0
BBX 26 42 4 0
BITMAP
01FF8000
0FFFE000
3FFFF800
7FFFFC00
FFFFFC00
FE01FE00
7800FE00
30007F00
20003F00
00003F00
00003F00
00003F00
00003F00
00003F00
00003E00
00007E00
00007E00
0000FC00
0001FC00
0003F800
0007F000
000FE000
001FC000
003FC000
007F8000
007F0000
00FE0000
01FC0000
03F80000
07F00000
0FE00000
1FC00000
1F800000
3F000000
3F000000
7E000000
7E000000
7FFFFFC0
7FFFFFC0
7FFFFFC0
7FFFFFC0
7FFFFFC0
ENDCHAR
STARTCHAR 0033
ENCODING 51
SWIDTH 495 0
DWIDTH 33 0
BBX 25 43 4 -1
BITMAP
03FF8000
0FFFE000
3FFFF000
7FFFF800
7FFFFC00
3C01FE00
1000FE00
00007E00
00003F00
00003F00
00003F00
00003F00
00003F00
00003E00
00007E00
0000FC00
0001FC00
000FF800
01FFF000
01FFC000
01FFF000
01FFF800
001FFC00
0001FE00
00007F00
00003F80
00001F80
00001F80
00000F80
00000F80
00000F80
00000F80
00000F80
00001F80
00001F80
00003F80
40007F00
7801FE00
FFFFFE00
FFFFFC00
FFFFF000
3FFFC000
03FE0000
ENDCHAR
STARTCHAR 0034
ENCODING 52
SWIDTH 495 0
DWIDTH 33 0
BBX 29 41 2 0
BITMAP
00003F00
00007F00
0000FF00
0001FF00
0001FF00
0003FF00
0007FF00
000FDF00
001F9F00
001F1F00
003E1F00
007E1F00
007C1F00
00F81F00
01F01F00
01F01F00
03E01F00
07C01F00
07C01F00
0F801F00
0F801F00
1F001F00
3E001F00
3E001F00
7C001F00
7C001F00
FFFFFFF8
FFFFFFF8
FFFFFFF8
FFFFFFF8
00001F00
00001F00
00001F00
00001F00
00001F00
00001F00
00001F00
00001F00
00001F00
00001F00
00001F00
ENDCHAR
STARTCHAR 0035
ENCODING 53
SWIDTH 495 0
DWIDTH 33 0
BBX 25 42 4 -1
BITMAP
0FFFFF00
0FFFFF00
0FFFFF00
0FFFFF00
0F800000
0F800000
0F800000
0F800000
0F800000
0F800000
0F800000
0F800000
0F800000
0F800000
0F800000
1F000000
1FFE0000
1FFFC000
1FFFF000
1FFFF800
007FFC00
0003FE00
0000FF00
00003F00
00003F80
00001F80
00001F80
00000F80
00000F80
00000F80
00000F80
00000F80
00001F80
00001F80
00003F80
60007F00
7C03FE00
7FFFFE00
7FFFFC00
FFFFF000
3FFFC000
03FE0000
ENDCHAR
STARTCHAR 0036
ENCODING 54
SWIDTH 495 0
DWIDTH 33 0
BBX 26 42 4 -1
BITMAP
0000FE00
0007FE00
001FFE00
007FFE00
00FFF000
03FE0000
07F80000
07F00000
0FC00000
1F800000
1F800000
3F000000
3E000000
7E000000
7E000000
7C000000
FCFFE000
FFFFF800
FFFFFC00
FFFFFE00
FFC1FF00
FC003F00
F8001F80
F8001F80
F8000F80
F8000FC0
F8000FC0
F8000FC0
F8000FC0
FC000FC0
FC000FC0
FC000FC0
7C000F80
7E001F80
7E001F80
3F003F00
3FC0FF00
1FFFFE00
0FFFFC00
07FFF800
01FFE000
003F8000
ENDCHAR
STARTCHAR 0037
ENCODING 55
SWIDTH 495 0
DWIDTH 33 0
BBX 26 41 4 0
BITMAP
FFFFFFC0
FFFFFFC0
FFFFFFC0
FFFFFFC0
FFFFFFC0
00001F80
00001F80
00003F00
00007E00
00007E00
0000FC00
0000F800
0001F800
0001F000
0003F000
0003E000
0007E000
0007C000
000FC000
000FC000
001F8000
001F8000
001F0000
003F0000
003F0000
003E0000
007E0000
007E0000
007C0000
00FC0000
00FC0000
00FC0000
00F80000
01F80000
01F80000
01F80000
01F80000
01F00000
01F00000
03F00000
03F00000
ENDCHAR
STARTCHAR 0038
ENCODING 56
SWIDTH 495 0
DWIDTH 33 0
BBX 27 43 3 -1
BITMAP
007FE000
01FFF800
07FFFC00
0FFFFE00
1FF1FF00
1FC03F80
3F001F80
3F000FC0
3E000FC0
7E0007C0
7E0007C0
7E0007C0
7E000FC0
7E000FC0
3F000F80
3F001F80
3F801F00
1FE03F00
0FF8FE00
07FFFC00
03FFF000
03FFF800
07FFFE00
0FC3FF00
1F807F80
3F003FC0
3E000FC0
7E000FC0
7C0007E0
7C0007E0
FC0003E0
FC0003E0
FC0003E0
7C0007E0
7C0007E0
7E000FC0
7F001FC0
3FC03F80
1FFFFF80
1FFFFF00
07FFFE00
03FFF800
003FC000
ENDCHAR
STARTCHAR 0039
ENCODING 57
SWIDTH 495 0
DWIDTH 33 0
BBX 27 42 3 0
BITMAP
007FC000
01FFF000
07FFF800
0FFFFE00
1FFFFE00
1FC07F00
3F003F80
7F001F80
7E000F80
7E000FC0
7C000FC0
FC0007C0
FC0007C0
FC0007E0
FC0007E0
7C0007E0
7C0007E0
7E0007E0
7E0007E0
3F0007E0
3FC01FE0
1FFFFFE0
0FFFFFC0
07FFFFC0
03FFF7C0
007F0FC0
00000FC0
00000F80
00001F80
00001F80
00003F00
00003F00
00007E00
0000FE00
0001FC00
0007F800
003FF000
1FFFE000
1FFF8000
1FFF0000
1FF80000
1FC00000
ENDCHAR
STARTCHAR 003A
ENCODING 58
SWIDTH 495 0
DWIDTH 33 0
BBX 10 32 12 -1
BITMAP
1E00
7F00
FF80
FF80
FFC0
FFC0
FF80
FF80
7F00
3E00
0000
0000
0000
0000
0000
0000
0000
0000
0000
0000
0000
0000
3F00
7F80
FF80
FF80
FFC0
FFC0
FF80
7F80
7F00
1E00
ENDCHAR
STARTCHAR 003B
ENCODING 59
SWIDTH 495 0
DWIDTH 33 0
BBX 14 41 8 -10
BITMAP
01E0
07F0
0FF8
0FF8
0FFC
0FFC
0FF8
0FF8
07F0
03E0
0000
0000
0000
0000
0000
0000
0000
0000
0000
0000
0000
0000
03F0
07F8
0FF8
0FF8
0FFC
0FFC
0FFC
07FC
07F8
01F8
00F8
01F0
03F0
0FE0
FFC0
7F80
7F00
7C00
4000
ENDCHAR
STARTCHAR 003C
ENCODING 60
SWIDTH 495 0
DWIDTH 33 0
BBX 27 26 3 4
BITMAP
000000C0
000003E0
00001FE0
00007FE0
0001FFE0
000FFF80
003FFC00
00FFF000
07FF8000
1FFE0000
7FF80000
FFC00000
FF000000
FF000000
FFC00000
FFF80000
1FFE0000
07FF8000
00FFF000
003FFC00
000FFF80
0001FFE0
00007FE0
00001FE0
000003E0
000000C0
ENDCHAR
STARTCHAR 003D
ENCODING 61
SWIDTH 495 0
DWIDTH 33 0
BBX 27 17 3 9
BITMAP
FFFFFFE0
FFFFFFE0
FFFFFFE0
FFFFFFE0
FFFFFFE0
00000000
00000000
00000000
00000000
00000000
00000000
00000000
FFFFFFE0
FFFFFFE0
FFFFFFE0
FFFFFFE0
FFFFFFE0
ENDCHAR
STARTCHAR 003E
ENCODING 62
SWIDTH 495 0
DWIDTH 33 0
BBX 27 26 4 4
BITMAP
60000000
F8000000
FE000000
FFC00000
FFF00000
3FFC0000
07FF8000
01FFE000
007FF800
000FFF00
0003FFC0
00007FE0
00001FE0
00001FE0
00007FE0
0003FFC0
000FFF00
007FFC00
01FFE000
07FF8000
3FFE0000
FFF00000
FFC00000
FE000000
F8000000
60000000
ENDCHAR
STARTCHAR 003F
ENCODING 63
SWIDTH 495 0
DWIDTH 33 0
BBX 21 43 6 -1
BITMAP
0FFE00
3FFF80
FFFFC0
7FFFE0
7FBFF0
7007F8
0003F8
0001F8
0001F8
0000F8
0000F8
0001F8
0001F8
0001F0
0003F0
0007E0
000FC0
001F80
003F80
007E00
007E00
00FC00
01F800
01F000
03F000
03E000
03E000
03E000
000000
000000
000000
000000
000000
000000
01F000
03F800
07F800
07FC00
07FC00
07FC00
07F800
03F000
01E000
ENDCHAR
STARTCHAR 0040
ENCODING 64
SWIDTH 495 0
DWIDTH 33 0
BBX 28 51 3 -9
BITMAP
001FF000
007FFC00
01FFFF00
03FFFF80
07FC7F80
07E00FC0
0FC007E0
1F8003E0
1F0003E0
3F0003F0
3E0001F0
3E0001F0
7E0001F0
7C001FF0
7C01FFF0
7C03FFF0
FC07FFF0
FC0FFFF0
F81FC1F0
F81F81F0
F83F01F0
F83E01F0
F83E01F0
F87E01F0
F87E01F0
F87E01F0
F87E01F0
F87E01F0
F87E01F0
F83E01F0
F83E01F0
FC3F01F0
FC3F01F0
FC1F81F0
7C1FC1F0
7C0FFFF0
7E07FFF0
7E03FFF0
3F00FFC0
3F000000
1F800000
1F800000
0FC00000
0FE00000
07F00000
03FC0000
01FFFF80
00FFFF80
003FFF80
001FFF80
0003FE00
ENDCHAR
STARTCHAR 0041
ENCODING 65
SWIDTH 495 0
DWIDTH 33 0
BBX 32 41 1 0
BITMAP
000FE000
000FF000
001FF000
001FF800
001FF800
003EF800
003EFC00
007E7C00
007C7C00
007C7E00
00FC3E00
00F83E00
00F83F00
01F81F00
01F01F00
01F01F80
01F00F80
03E00F80
03E00FC0
03E007C0
07C007C0
07C007C0
07C007E0
0F8003E0
0F8003E0
0F8003F0
1FFFFFF0
1FFFFFF0
1FFFFFF0
1FFFFFF8
3F0000F8
3E0000F8
3E0000F8
3E0000FC
7E0000FC
7C00007C
7C00007E
FC00007E
FC00007E
FC00003E
F800003F
ENDCHAR
STARTCHAR 0042
ENCODING 66
SWIDTH 495 0
DWIDTH 33 0
BBX 26 42 4 0
BITMAP
03F80000
FFFFC000
FFFFF000
FFFFF800
FFFFFC00
F803FE00
F800FE00
F8007F00
F8003F00
F8003F00
F8001F00
F8001F00
F8001F00
F8003F00
F8003E00
F8007E00
F800FC00
F803FC00
FFFFF800
FFFFE000
FFFFF000
FFFFF800
FFFFFE00
F800FF00
F8003F80
F8001F80
F8000FC0
F8000FC0
F8000FC0
F80007C0
F80007C0
F8000FC0
F8000FC0
F8000FC0
F8001F80
F8003F80
F8007F00
F807FF00
FFFFFE00
FFFFFC00
FFFFF000
FFFF8000
ENDCHAR
STARTCHAR 0043
ENCODING 67
SWIDTH 495 0
DWIDTH 33 0
BBX 27 43 3 -1
BITMAP
0007FC00
003FFF80
00FFFFE0
01FFFFE0
03FFFFE0
07F803C0
0FF000C0
0FC00000
1F800000
3F800000
3F000000
3F000000
7E000000
7E000000
7E000000
7C000000
FC000000
FC000000
FC000000
FC000000
FC000000
FC000000
FC000000
FC000000
FC000000
FC000000
FC000000
7C000000
7C000000
7E000000
7E000000
3F000000
3F000000
3F800000
1FC00000
1FE00000
0FF00040
07FC03E0
03FFFFE0
01FFFFE0
00FFFFE0
003FFF80
0007F800
ENDCHAR
STARTCHAR 0044
ENCODING 68
SWIDTH 495 0
DWIDTH 33 0
BBX 27 42 4 0
BITMAP
07C00000
FFFE0000
FFFFC000
FFFFE000
FFFFF800
F80FFC00
F801FC00
F800FE00
F8007F00
F8003F00
F8001F80
F8001F80
F8000FC0
F8000FC0
F8000FC0
F80007C0
F80007C0
F80007C0
F80007E0
F80007E0
F80007E0
F80007E0
F80007E0
F80007E0
F80007E0
F80007C0
F80007C0
F8000FC0
F8000FC0
F8000FC0
F8000F80
F8001F80
F8001F80
F8003F00
F8007F00
F800FE00
F803FC00
FE3FF800
FFFFF000
FFFFE000
FFFF8000
FFFC0000
ENDCHAR
STARTCHAR 0045
ENCODING 69
SWIDTH 495 0
DWIDTH 33 0
BBX 25 41 6 0
BITMAP
FFFFFE00
FFFFFE00
FFFFFE00
FFFFFE00
FC000000
FC000000
FC000000
FC000000
FC000000
FC000000
FC000000
FC000000
FC000000
FC000000
FC000000
FC000000
FC000000
FFFFF800
FFFFF800
FFFFF800
FFFFF800
FFFFF800
FC000000
FC000000
FC000000
FC000000
FC000000
FC000000
FC000000
FC000000
FC000000
FC000000
FC000000
FC000000
FC000000
FC000000
FFFFFF80
FFFFFF80
FFFFFF80
FFFFFF80
FFFFFF80
ENDCHAR
STARTCHAR 0046
ENCODING 70
SWIDTH 495 0
DWIDTH 33 0
BBX 23 41 6 0
BITMAP
FFFFFE
FFFFFE
FFFFFE
FFFFFE
FC0000
FC0000
FC0000
FC0000
FC0000
FC0000
FC0000
FC0000
FC0000
FC0000
FC0000
FC0000
FC0000
FFFFF8
FFFFF8
FFFFF8
FFFFF8
FFFFF8
FC0000
FC0000
FC0000
FC0000
FC0000
FC0000
FC0000
FC0000
FC0000
FC0000
FC0000
FC0000
FC0000
FC0000
FC0000
FC0000
FC0000
FC0000
FC0000
ENDCHAR
STARTCHAR 0047
ENCODING 71
SWIDTH 495 0
DWIDTH 33 0
BBX 27 43 3 -1
BITMAP
000FFE00
003FFF80
00FFFFE0
01FFFFE0
03FFFFE0
07F803C0
0FE000C0
0FC00000
1F800000
3F800000
3F000000
3F000000
7E000000
7E000000
7E000000
7C000000
FC000000
FC000000
FC000000
FC000000
FC000000
FC000000
FC0003E0
FC0003E0
FC0003E0
FC0003E0
FC0003E0
7C0003E0
7E0003E0
7E0003E0
7E0003E0
3F0003E0
3F0003E0
3F8003E0
1F8003E0
1FC003E0
0FF003E0
07FC07E0
03FFFFE0
01FFFFE0
00FFFFE0
003FFFC0
0007FC00
ENDCHAR
STARTCHAR 0048
ENCODING 72
SWIDTH 495 0
DWIDTH 33 0
BBX 27 41 3 0
BITMAP
F80003E0
F80003E0
F80003E0
F80003E0
F80003E0
F80003E0
F80003E0
F80003E0
F80003E0
F80003E0
F80003E0
F80003E0
F80003E0
F80003E0
F80003E0
F80003E0
F80003E0
FFFFFFE0
FFFFFFE0
FFFFFFE0
FFFFFFE0
FFFFFFE0
F80003E0
F80003E0
F80003E0
F80003E0
F80003E0
F80003E0
F80003E0
F80003E0
F80003E0
F80003E0
F80003E0
F80003E0
F80003E0
F80003E0
F80003E0
F80003E0
F80003E0
F80003E0
F80003E0
ENDCHAR
STARTCHAR 0049
ENCODING 73
SWIDTH 495 0
DWIDTH 33 0
BBX 21 41 6 0
BITMAP
FFFFF8
FFFFF8
FFFFF8
FFFFF8
00F800
00F800
00F800
00F800
00F800
00F800
00F800
00F800
00F800
00F800
00F800
00F800
00F800
00F800
00F800
00F800
00F800
00F800
00F800
00F800
00F800
00F800
00F800
00F800
00F800
00F800
00F800
00F800
00F800
00F800
00F800
00F800
FFFFF8
FFFFF8
FFFFF8
FFFFF8
FFFFF8
ENDCHAR
STARTCHAR 004A
ENCODING 74
SWIDTH 495 0
DWIDTH 33 0
BBX 24 42 4 -1
BITMAP
0FFFFF
0FFFFF
0FFFFF
0FFFFF
00001F
00001F
00001F
00001F
00001F
00001F
00001F
00001F
00001F
00001F
00001F
00001F
00001F
00001F
00001F
00001F
00001F
00001F
00001F
00001F
00001F
00001F
00001F
00001F
00003F
00003F
00003F
00003F
00003F
00007E
00007E
7000FE
7C03FC
FFFFF8
FFFFF8
7FFFE0
1FFFC0
03FE00
ENDCHAR
STARTCHAR 004B
ENCODING 75
SWIDTH 495 0
DWIDTH 33 0
BBX 29 41 4 0
BITMAP
FC000FE0
FC000FC0
FC001F80
FC003F80
FC007F00
FC007E00
FC00FC00
FC01FC00
FC03F800
FC07F000
FC07E000
FC0FC000
FC1FC000
FC3F8000
FC7F0000
FCFE0000
FDFC0000
FFF80000
FFF00000
FFF00000
FFF80000
FFFE0000
FDFF0000
FC7F8000
FC3FC000
FC1FC000
FC0FE000
FC07F000
FC03F800
FC01FC00
FC00FE00
FC00FE00
FC007F00
FC003F80
FC001F80
FC001FC0
FC000FE0
FC000FE0
FC0007F0
FC0003F0
FC0003F8
ENDCHAR
STARTCHAR 004C
ENCODING 76
SWIDTH 495 0
DWIDTH 33 0
BBX 25 41 6 0
BITMAP
FC000000
FC000000
FC000000
FC000000
FC000000
FC000000
FC000000
FC000000
FC000000
FC000000
FC000000
FC000000
FC000000
FC000000
FC000000
FC000000
FC000000
FC000000
FC000000
FC000000
FC000000
FC000000
FC000000
FC000000
FC000000
FC000000
FC000000
FC000000
FC000000
FC000000
FC000000
FC000000
FC000000
FC000000
FC000000
FC000000
FFFFFF80
FFFFFF80
FFFFFF80
FFFFFF80
FFFFFF80
ENDCHAR
STARTCHAR 004D
ENCODING 77
SWIDTH 495 0
DWIDTH 33 0
BBX 29 41 2 0
BITMAP
1F8007C0
1F8007C0
1F800FE0
1F800FE0
1FC00FE0
3FC01FE0
3FC01FE0
3DE01FE0
3DE03FE0
3DE03DE0
3CF03DE0
3CF07DF0
3CF079F0
3CF879F0
3C7879F0
3C78F1F0
7C7CF1F0
7C3CF1F0
7C3DE1F0
7C3DE1F0
7C1FE1F0
7C1FC1F0
7C1FC1F0
7C0FC0F0
7C0F80F0
7C0000F0
7C0000F8
7C0000F8
7C0000F8
7C0000F8
7C0000F8
7C0000F8
FC0000F8
FC0000F8
FC0000F8
FC0000F8
FC0000F8
FC0000F8
FC0000F8
FC0000F8
F80000F8
ENDCHAR
STARTCHAR 004E
ENCODING 78
SWIDTH 495 0
DWIDTH 33 0
BBX 26 41 4 0
BITMAP
FC0007C0
FC0007C0
FE0007C0
FE0007C0
FF0007C0
FF0007C0
FF8007C0
FFC007C0
FFC007C0
FFE007C0
FBE007C0
FBF007C0
F9F007C0
F9F807C0
F8F807C0
F87C07C0
F87C07C0
F83E07C0
F83E07C0
F81F07C0
F81F07C0
F81F07C0
F80F87C0
F80F87C0
F807C7C0
F807C7C0
F803E7C0
F803E7C0
F801E7C0
F801F7C0
F800F7C0
F800FFC0
F800FFC0
F8007FC0
F8007FC0
F8003FC0
F8003FC0
F8001FC0
F8001FC0
F8001FC0
F8000FC0
ENDCHAR
STARTCHAR 004F
ENCODING 79
SWIDTH 495 0
DWIDTH 33 0
BBX 29 43 2 -1
BITMAP
003FE000
00FFF800
03FFFE00
07FFFF00
0FFFFF80
0FE03FC0
1F800FC0
1F8007E0
3F0007E0
3E0003F0
7E0003F0
7E0001F0
7C0001F8
7C0001F8
FC0001F8
FC0001F8
FC0000F8
FC0000F8
FC0000F8
FC0000F8
FC0000F8
FC0000F8
FC0000F8
FC0000F8
FC0000F8
FC0000F8
FC0000F8
FC0001F8
FC0001F8
7C0001F8
7C0001F0
7E0003F0
7E0003F0
3F0003F0
3F0007E0
1F800FE0
1FC01FC0
0FE03F80
07FFFF80
03FFFF00
01FFFE00
00FFF800
001FC000
ENDCHAR
STARTCHAR 0050
ENCODING 80
SWIDTH 495 0
DWIDTH 33 0
BBX 25 42 5 0
BITMAP
03F80000
FFFFC000
FFFFF000
FFFFF800
FFFFFC00
F803FE00
F8007F00
F8003F00
F8001F80
F8001F80
F8001F80
F8000F80
F8000F80
F8000F80
F8000F80
F8000F80
F8001F80
F8001F80
F8001F80
F8003F00
F800FF00
F803FE00
FFFFFC00
FFFFF800
FFFFF000
FFFFC000
FFF80000
F8000000
F8000000
F8000000
F8000000
F8000000
F8000000
F8000000
F8000000
F8000000
F8000000
F8000000
F8000000
F8000000
F8000000
F8000000
ENDCHAR
STARTCHAR 0051
ENCODING 81
SWIDTH 495 0
DWIDTH 33 0
BBX 29 53 2 -11
BITMAP
003FE000
00FFF800
01FFFE00
07FFFF00
0FFFFF80
0FE03FC0
1F800FC0
1F8007E0
3F0007E0
3E0003F0
7E0003F0
7E0001F0
7C0001F8
7C0001F8
FC0001F8
FC0001F8
FC0000F8
FC0000F8
FC0000F8
FC0000F8
FC0000F8
FC0000F8
FC0000F8
FC0000F8
FC0000F8
FC0000F8
FC0000F8
FC0001F8
FC0001F8
7C0001F8
7C0001F0
7E0001F0
7E0003F0
3F0003F0
3F0007E0
1F800FE0
1FC01FC0
0FE03F80
07FFFF80
03FFFF00
01FFFE00
00FFF800
001FC000
000F8000
000FC000
0007E000
0007F000
0003FE00
0001FFE0
0000FFF0
00003FE0
00000FE0
000000E0
ENDCHAR
STARTCHAR 0052
ENCODING 82
SWIDTH 495 0
DWIDTH 33 0
BBX 27 42 4 0
BITMAP
03F80000
FFFF8000
FFFFE000
FFFFF800
FFFFFC00
F803FE00
F800FE00
F8007F00
F8003F00
F8001F00
F8001F80
F8001F80
F8001F80
F8001F80
F8001F80
F8001F80
F8001F00
F8003F00
F8003F00
F800FE00
F803FC00
FFFFFC00
FFFFF800
FFFFE000
FFFF8000
FFFFC000
F807E000
F807E000
F803F000
F801F000
F801F800
F800FC00
F800FC00
F8007E00
F8007E00
F8003F00
F8003F00
F8001F80
F8001F80
F8000FC0
F8000FC0
F80007E0
ENDCHAR
STARTCHAR 0053
ENCODING 83
SWIDTH 495 0
DWIDTH 33 0
BBX 26 43 4 -1
BITMAP
00FFE000
03FFFE00
0FFFFF00
1FFFFF00
1FFFFE00
3F801E00
7F000200
7E000000
7C000000
7C000000
7C000000
7C000000
7C000000
7E000000
7E000000
7F000000
3FC00000
1FF00000
0FFC0000
07FF0000
03FFC000
00FFF000
003FFC00
0007FE00
0001FF00
0000FF00
00003F80
00001F80
00001F80
00000FC0
00000FC0
00000FC0
00000FC0
00000FC0
00000F80
00001F80
70003F80
7C00FF00
FFFFFF00
FFFFFE00
7FFFF800
1FFFF000
01FF0000
ENDCHAR
STARTCHAR 0054
ENCODING 84
SWIDTH 495 0
DWIDTH 33 0
BBX 28 41 3 0
BITMAP
FFFFFFF0
FFFFFFF0
FFFFFFF0
FFFFFFF0
001F0000
001F0000
001F0000
001F0000
001F0000
001F0000
001F0000
001F0000
001F0000
001F0000
001F0000
001F0000
001F0000
001F0000
001F0000
001F0000
001F0000
001F0000
001F0000
001F0000
001F0000
001F0000
001F0000
001F0000
001F0000
001F0000
001F0000
001F0000
001F0000
001F0000
001F0000
001F0000
001F0000
001F0000
001F0000
001F0000
001F0000
ENDCHAR
STARTCHAR 0055
ENCODING 85
SWIDTH 495 0
DWIDTH 33 0
BBX 27 42 3 -1
BITMAP
FC0003E0
FC0003E0
FC0003E0
FC0003E0
FC0003E0
FC0003E0
FC0003E0
FC0003E0
FC0003E0
FC0003E0
FC0003E0
FC0003E0
FC0003E0
FC0003E0
FC0003E0
FC0003E0
FC0003E0
FC0003E0
FC0003E0
FC0003E0
FC0003E0
FC0003E0
FC0003E0
FC0003E0
FC0003E0
FC0003E0
FC0003E0
FC0003E0
FC0003E0
FC0007E0
FC0007E0
7C0007E0
7E0007E0
7E000FC0
7F000FC0
3F801FC0
3FC07F80
1FFFFF00
0FFFFE00
07FFFC00
01FFF800
003F8000
ENDCHAR
STARTCHAR 0056
ENCODING 86
SWIDTH 495 0
DWIDTH 33 0
BBX 31 41 1 0
BITMAP
FC00003E
FC00007E
7C00007E
7E00007E
7E00007C
7E00007C
3E0000FC
3E0000FC
3F0000F8
3F0000F8
1F0001F8
1F0001F8
1F8001F0
1F8001F0
0F8003F0
0FC003E0
0FC003E0
07C007E0
07C007C0
07E007C0
03E007C0
03E00FC0
03E00F80
03F00F80
01F01F80
01F01F00
01F81F00
00F81F00
00F83E00
00FC3E00
007C3E00
007C7C00
007E7C00
003E7C00
003EF800
003FF800
001FF800
001FF000
001FF000
000FF000
000FE000
ENDCHAR
STARTCHAR 0057
ENCODING 87
SWIDTH 495 0
DWIDTH 33 0
BBX 29 41 2 0
BITMAP
F80000F8
FC0000F8
FC0000F8
FC0000F8
FC0000F8
FC0000F8
FC0000F8
FC0000F8
FC0000F8
7C0000F8
7C0000F8
7C0000F8
7C0000F8
7C0000F8
7C0000F0
7C0F80F0
7C0F80F0
7C0FC1F0
7C1FC1F0
7C1FC1F0
7C1FE1F0
7C3DE1F0
7C3DE1F0
7C3CF1F0
7C78F1F0
7C78F1F0
3C78F9F0
3CF079F0
3CF079E0
3CF07DE0
3DE03DE0
3DE03DE0
3DE03FE0
3FE01FE0
3FC01FE0
3FC01FE0
3FC00FE0
1F800FE0
1F800FC0
1F8007C0
1F0007C0
ENDCHAR
STARTCHAR 0058
ENCODING 88
SWIDTH 495 0
DWIDTH 33 0
BBX 29 41 2 0
BITMAP
7E0001F8
7E0003F0
3F0003F0
3F0007E0
1F8007C0
1F800FC0
0FC01F80
07C01F80
07E03F00
03E03F00
03F07E00
01F07C00
01F8FC00
00F8F800
00FDF800
007FF000
003FF000
003FE000
001FC000
001FC000
003FE000
003FF000
007FF000
00FDF800
00FCF800
01F8FC00
01F87E00
03F07E00
03E03F00
07E03F00
07C01F80
0FC01F80
0F800FC0
1F800FC0
1F8007E0
3F0007E0
3F0003F0
7E0003F0
7E0001F8
FC0001F8
FC0001F8
ENDCHAR
STARTCHAR 0059
ENCODING 89
SWIDTH 495 0
DWIDTH 33 0
BBX 31 41 1 0
BITMAP
FC00007E
7E00007E
7E0000FC
7E0000FC
3F0000FC
3F0001F8
1F8001F8
1F8003F0
0FC003F0
0FC003E0
0FC007E0
07E007C0
03E00FC0
03F00F80
01F01F80
01F81F00
00F83F00
00FC3E00
007E7C00
007E7C00
003FF800
003FF800
001FF000
000FF000
000FE000
0007E000
0007C000
0007C000
0007C000
0007C000
0007C000
0007C000
0007C000
0007C000
0007C000
0007C000
0007C000
0007C000
0007C000
0007C000
0007C000
ENDCHAR
STARTCHAR 005A
ENCODING 90
SWIDTH 495 0
DWIDTH 33 0
BBX 26 41 4 0
BITMAP
7FFFFFC0
7FFFFFC0
7FFFFFC0
7FFFFFC0
00001F80
00001F80
00003F00
00007E00
00007E00
0000FC00
0001F800
0001F800
0003F000
0007E000
0007E000
000FC000
001F8000
001F8000
003F0000
003F0000
007E0000
00FC0000
00FC0000
01F80000
01F80000
03F00000
07E00000
07E00000
0FC00000
0FC00000
1F800000
1F000000
3F000000
3E000000
7E000000
7C000000
FFFFFFC0
FFFFFFC0
FFFFFFC0
FFFFFFC0
FFFFFFC0
ENDCHAR
STARTCHAR 005B
ENCODING 91
SWIDTH 495 0
DWIDTH 33 0
BBX 15 58 10 -11
BITMAP
FFFE
FFFE
FFFE
FFFE
FFFE
F800
F800
F800
F800
F800
F800
F800
F800
F800
F800
F800
F800
F800
F800
F800
F800
F800
F800
F800
F800
F800
F800
F800
F800
F800
F800
F800
F800
F800
F800
F800
F800
F800
F800
F800
F800
F800
F800
F800
F800
F800
F800
F800
F800
F800
F800
F800
F800
F800
FFFE
FFFE
FFFE
FFFE
ENDCHAR
STARTCHAR 005C
ENCODING 92
SWIDTH 495 0
DWIDTH 33 0
BBX 24 58 5 -11
BITMAP
F80000
FC0000
FC0000
7C0000
7E0000
7E0000
3E0000
3E0000
3F0000
1F0000
1F0000
1F8000
0F8000
0F8000
0FC000
0FC000
07C000
07E000
07E000
03E000
03F000
03F000
01F000
01F800
01F800
00F800
00FC00
00FC00
007C00
007E00
007E00
003E00
003F00
003F00
001F00
001F00
001F80
000F80
000F80
000FC0
000FC0
0007C0
0007E0
0007E0
0003E0
0003F0
0003F0
0001F0
0001F8
0001F8
0000F8
0000FC
0000FC
00007C
00007E
00007E
00003E
00003F
ENDCHAR
STARTCHAR 005D
ENCODING 93
SWIDTH 495 0
DWIDTH 33 0
BBX 16 58 8 -11
BITMAP
FFFF
FFFF
FFFF
FFFF
FFFF
001F
001F
001F
001F
001F
001F
001F
001F
001F
001F
001F
001F
001F
001F
001F
001F
001F
001F
001F
001F
001F
001F
001F
001F
001F
001F
001F
001F
001F
001F
001F
001F
001F
001F
001F
001F
001F
001F
001F
001F
001F
001F
001F
001F
001F
001F
001F
001F
001F
FFFF
FFFF
FFFF
FFFF
ENDCHAR
STARTCHAR 005E
ENCODING 94
SWIDTH 495 0
DWIDTH 33 0
BBX 27 22 3 19
BITMAP
001F8000
003F8000
003FC000
007FC000
00FFE000
00FFE000
01FBF000
01F9F800
03F1F800
03E0FC00
07E07C00
0FC07E00
0FC03E00
1F803F00
1F801F80
3F001F80
3E000FC0
7E0007C0
7C0007E0
FC0003E0
780003E0
18000180
ENDCHAR
STARTCHAR 005F
ENCODING 95
SWIDTH 495 0
DWIDTH 33 0
BBX 32 5 1 -11
BITMAP
FFFFFFFF
FFFFFFFF
FFFFFFFF
FFFFFFFF
FFFFFFFF
ENDCHAR
STARTCHAR 0060
ENCODING 96
SWIDTH 495 0
DWIDTH 33 0
BBX 11 11 11 35
BITMAP
1000
3800
7C00
FC00
7E00
3F00
1F80
0FC0
07E0
03C0
0180
ENDCHAR
STARTCHAR 0061
ENCODING 97
SWIDTH 495 0
DWIDTH 33 0
BBX 25 33 4 -1
BITMAP
003E0000
1FFFE000
1FFFF800
1FFFFC00
1FFFFE00
0E01FF00
00007F00
00003F00
00001F00
00001F80
00001F80
00001F80
00001F80
007F9F80
03FFFF80
0FFFFF80
1FFFFF80
3FFFFF80
7F801F80
FE001F80
FC001F80
FC001F80
FC001F80
FC001F80
FC001F80
FC001F80
FE001F80
7F801F80
7FFFFF80
3FFFFF80
0FFFFF80
03FFFF80
001F0000
ENDCHAR
STARTCHAR 0062
ENCODING 98
SWIDTH 495 0
DWIDTH 33 0
BBX 26 47 5 -1
BITMAP
78000000
F8000000
F8000000
F8000000
F8000000
F8000000
F8000000
F8000000
F8000000
F8000000
F8000000
F8000000
F8000000
F8000000
F83C0000
F9FFC000
FFFFF000
FFFFF800
FFFFFC00
FF83FE00
FE00FE00
F8007F00
F8003F00
F8001F80
F8001F80
F8001F80
F8000F80
F8000F80
F8000FC0
F8000FC0
F8000FC0
F8000FC0
F8000FC0
F8000F80
F8000F80
F8001F80
F8001F80
F8003F80
F8003F00
F8007F00
F800FE00
FE07FC00
FFFFF800
FFFFF000
FFFFE000
7FFF8000
01FC0000
ENDCHAR
STARTCHAR 0063
ENCODING 99
SWIDTH 495 0
DWIDTH 33 0
BBX 27 33 3 -1
BITMAP
0001F800
003FFFC0
00FFFFC0
03FFFFC0
07FFFFC0
0FFE03C0
1FE00000
1FC00000
3F800000
3F000000
7E000000
7E000000
7C000000
FC000000
FC000000
FC000000
FC000000
FC000000
FC000000
FC000000
7C000000
7E000000
7E000000
7F000000
3F800000
3FC00000
1FE00000
0FFE03C0
07FFFFE0
03FFFFE0
00FFFFE0
003FFFC0
0003FC00
ENDCHAR
STARTCHAR 0064
ENCODING 100
SWIDTH 495 0
DWIDTH 33 0
BBX 26 47 3 -1
BITMAP
000007C0
00000FC0
00000FC0
00000FC0
00000FC0
00000FC0
00000FC0
00000FC0
00000FC0
00000FC0
00000FC0
00000FC0
00000FC0
00000FC0
001E0FC0
01FFEFC0
03FFFFC0
0FFFFFC0
0FFFFFC0
1FE0FFC0
3F803FC0
3F000FC0
7E000FC0
7E000FC0
FC000FC0
FC000FC0
FC000FC0
FC000FC0
F8000FC0
F8000FC0
F8000FC0
F8000FC0
F8000FC0
FC000FC0
FC000FC0
FC000FC0
FC000FC0
7E000FC0
7F000FC0
3F000FC0
3FC00FC0
1FF01FC0
0FFFFFC0
07FFFFC0
03FFFFC0
00FFFF00
001FE000
ENDCHAR
STARTCHAR 0065
ENCODING 101
SWIDTH 495 0
DWIDTH 33 0
BBX 27 33 3 -1
BITMAP
000F0000
00FFF000
01FFFC00
07FFFE00
0FFFFF00
1FE07F80
3F801F80
3F000FC0
7E0007C0
7E0007E0
7C0007E0
FC0003E0
FC0003E0
F80003E0
FFFFFFE0
FFFFFFE0
FFFFFFE0
FFFFFFE0
F8000000
F8000000
FC000000
FC000000
FC000000
7E000000
7F000000
3F800000
3FC00080
1FF81F80
0FFFFF80
07FFFF80
01FFFF80
007FFF00
0007E000
ENDCHAR
STARTCHAR 0066
ENCODING 102
SWIDTH 495 0
DWIDTH 33 0
BBX 28 46 4 0
BITMAP
0003FF00
000FFFF0
003FFFF0
007FFFF0
007FFFF0
00FE0060
00FC0000
01F80000
01F80000
01F00000
01F00000
01F00000
01F00000
01F00000
01F00000
FFFFFF80
FFFFFF80
FFFFFF80
FFFFFF80
FFFFFF80
01F00000
01F00000
01F00000
01F00000
01F00000
01F00000
01F00000
01F00000
01F00000
01F00000
01F00000
01F00000
01F00000
01F00000
01F00000
01F00000
01F00000
01F00000
01F00000
01F00000
01F00000
01F00000
01F00000
01F00000
01F00000
01F00000
ENDCHAR
STARTCHAR 0067
ENCODING 103
SWIDTH 495 0
DWIDTH 33 0
BBX 26 43 3 -11
BITMAP
000FC000
00FFFF00
03FFFFC0
07FFFFC0
0FFFFFC0
1FF03FC0
3F800FC0
3F000FC0
7E000FC0
7E000FC0
FC000FC0
FC000FC0
FC000FC0
F8000FC0
F8000FC0
F8000FC0
F8000FC0
F8000FC0
F8000FC0
FC000FC0
FC000FC0
FC000FC0
7E000FC0
7F000FC0
3F801FC0
3FC07FC0
1FFFFFC0
0FFFFFC0
07FFFFC0
01FFEFC0
007F0FC0
00000FC0
00000F80
00000F80
00001F80
00001F80
00003F00
3800FF00
3FFFFE00
3FFFFE00
7FFFF800
7FFFF000
0FFF8000
ENDCHAR
STARTCHAR 0068
ENCODING 104
SWIDTH 495 0
DWIDTH 33 0
BBX 24 46 5 0
BITMAP
780000
F80000
F80000
F80000
F80000
F80000
F80000
F80000
F80000
F80000
F80000
F80000
F80000
F80000
F83C00
FFFFC0
FFFFE0
FFFFF0
FFFFF8
FF87FC
F800FC
F8007E
F8007E
F8003E
F8003F
F8003F
F8003F
F8003F
F8003F
F8003F
F8003F
F8003F
F8003F
F8003F
F8003F
F8003F
F8003F
F8003F
F8003F
F8003F
F8003F
F8003F
F8003F
F8003F
F8003F
F8003F
ENDCHAR
STARTCHAR 0069
ENCODING 105
SWIDTH 495 0
DWIDTH 33 0
BBX 26 46 4 -1
BITMAP
00600000
01F80000
03FC0000
03FC0000
03FC0000
03FC0000
03FC0000
03F80000
01F00000
00000000
00000000
00000000
00000000
00000000
FFFC0000
FFFC0000
FFFC0000
FFFC0000
FFFC0000
007C0000
007C0000
007C0000
007C0000
007C0000
007C0000
007C0000
007C0000
007C0000
007C0000
007C0000
007C0000
007C0000
007C0000
007C0000
007C0000
007C0000
007C0000
007C0000
007E0000
007F0000
003F8780
003FFFC0
001FFFC0
001FFFC0
0007FF80
0000F800
ENDCHAR
STARTCHAR 006A
ENCODING 106
SWIDTH 495 0
DWIDTH 33 0
BBX 21 56 5 -11
BITMAP
000100
0007E0
000FE0
001FF0
001FF0
001FF0
000FF0
000FE0
0007C0
000000
000000
000000
000000
000000
1FFFF8
1FFFF8
1FFFF8
1FFFF8
1FFFF8
0001F8
0001F8
0001F8
0001F8
0001F8
0001F8
0001F8
0001F8
0001F8
0001F8
0001F8
0001F8
0001F8
0001F8
0001F8
0001F8
0001F8
0001F8
0001F8
0001F8
0001F8
0001F8
0001F8
0001F8
0001F8
0001F8
0001F8
0001F8
0001F0
0001F0
0003F0
7007F0
7FFFE0
FFFFC0
FFFFC0
FFFF00
1FFE00
ENDCHAR
STARTCHAR 006B
ENCODING 107
SWIDTH 495 0
DWIDTH 33 0
BBX 27 46 5 0
BITMAP
78000000
F8000000
F8000000
F8000000
F8000000
F8000000
F8000000
F8000000
F8000000
F8000000
F8000000
F8000000
F8000000
F8000000
F8000000
F8001F80
F8003F00
F8007F00
F800FE00
F801FC00
F803F800
F807E000
F80FC000
F83F8000
F87F0000
F8FE0000
F9FC0000
FBF80000
FFE00000
FFF00000
FFF80000
FBFC0000
F9FE0000
F8FF0000
F83F8000
F81FC000
F80FE000
F807F000
F803F800
F801FC00
F800FE00
F8007F00
F8003F00
F8001F80
F8001FC0
F8000FE0
ENDCHAR
STARTCHAR 006C
ENCODING 108
SWIDTH 495 0
DWIDTH 33 0
BBX 26 47 4 -1
BITMAP
FFFC0000
FFFC0000
FFFC0000
FFFC0000
FFFC0000
007C0000
007C0000
007C0000
007C0000
007C0000
007C0000
007C0000
007C0000
007C0000
007C0000
007C0000
007C0000
007C0000
007C0000
007C0000
007C0000
007C0000
007C0000
007C0000
007C0000
007C0000
007C0000
007C0000
007C0000
007C0000
007C0000
007C0000
007C0000
007C0000
007C0000
007C0000
007C0000
007C0000
007C0000
007E0000
007E0000
003F8780
003FFFC0
001FFFC0
001FFFC0
0007FF80
0001F800
ENDCHAR
STARTCHAR 006D
ENCODING 109
SWIDTH 495 0
DWIDTH 33 0
BBX 28 32 3 0
BITMAP
07801800
7FF0FF00
FFFFFF80
FFFFFFC0
FFFFFFE0
F83F87E0
F81F03E0
F81F01F0
F81F01F0
F81F01F0
F81F01F0
F81F01F0
F81F01F0
F81F01F0
F81F01F0
F81F01F0
F81F01F0
F81F01F0
F81F01F0
F81F01F0
F80001F0
F80001F0
F80001F0
F80001F0
F80001F0
F80001F0
F80001F0
F80001F0
F80001F0
F80001F0
F80001F0
F80001F0
ENDCHAR
STARTCHAR 006E
ENCODING 110
SWIDTH 495 0
DWIDTH 33 0
BBX 24 32 5 0
BITMAP
003800
3FFF80
FFFFE0
FFFFF8
FFFFF8
FF07FC
F800FE
F8007E
F8007E
F8003E
F8003F
F8003F
F8003F
F8003F
F8003F
F8003F
F8003F
F8003F
F8003F
F8003F
F8003F
F8003F
F8003F
F8003F
F8003F
F8003F
F8003F
F8003F
F8003F
F8003F
F8003F
F8003F
ENDCHAR
STARTCHAR 006F
ENCODING 111
SWIDTH 495 0
DWIDTH 33 0
BBX 28 33 3 -1
BITMAP
001E0000
00FFE000
03FFF800
07FFFC00
0FFFFE00
1FE0FF00
3F803F80
3F001FC0
7E000FC0
7E0007E0
FC0007E0
FC0007E0
FC0003E0
FC0003E0
F80003F0
F80003F0
F80003F0
F80003F0
F80003F0
FC0003E0
FC0003E0
FC0007E0
FC0007E0
7E0007E0
7E000FC0
3F001FC0
3F803F80
1FE0FF00
0FFFFF00
07FFFE00
03FFF800
00FFE000
001F0000
ENDCHAR
STARTCHAR 0070
ENCODING 112
SWIDTH 495 0
DWIDTH 33 0
BBX 26 43 5 -11
BITMAP
00F00000
3FFF8000
FFFFE000
FFFFF000
FFFFF800
FE07FC00
F801FE00
F8007F00
F8003F00
F8003F00
F8001F80
F8001F80
F8000F80
F8000F80
F8000FC0
F8000FC0
F8000FC0
F8000FC0
F8000FC0
F8000FC0
F8000F80
F8001F80
F8001F80
F8001F80
F8003F00
F8007F00
FE00FE00
FF83FE00
FFFFFC00
FFFFF800
FFFFF000
FBFFC000
F83E0000
F8000000
F8000000
F8000000
F8000000
F8000000
F8000000
F8000000
F8000000
F8000000
F8000000
ENDCHAR
STARTCHAR 0071
ENCODING 113
SWIDTH 495 0
DWIDTH 33 0
BBX 26 43 3 -11
BITMAP
0007C000
007FFE00
01FFFFC0
07FFFFC0
0FFFFFC0
1FF03FC0
3FC00FC0
3F800FC0
7F000FC0
7E000FC0
7C000FC0
FC000FC0
FC000FC0
FC000FC0
F8000FC0
F8000FC0
F8000FC0
F8000FC0
F8000FC0
FC000FC0
FC000FC0
FC000FC0
FC000FC0
7E000FC0
7E000FC0
3F000FC0
3F801FC0
1FE0FFC0
1FFFFFC0
0FFFFFC0
03FFFFC0
01FFEFC0
001F0FC0
00000FC0
00000FC0
00000FC0
00000FC0
00000FC0
00000FC0
00000FC0
00000FC0
00000FC0
00000FC0
ENDCHAR
STARTCHAR 0072
ENCODING 114
SWIDTH 495 0
DWIDTH 33 0
BBX 22 32 7 0
BITMAP
001F00
0FFFFC
7FFFFC
FFFFFC
FFFFFC
FFC038
FC0000
FC0000
FC0000
FC0000
FC0000
FC0000
FC0000
FC0000
FC0000
FC0000
FC0000
FC0000
FC0000
FC0000
FC0000
FC0000
FC0000
FC0000
FC0000
FC0000
FC0000
FC0000
FC0000
FC0000
FC0000
FC0000
ENDCHAR
STARTCHAR 0073
ENCODING 115
SWIDTH 495 0
DWIDTH 33 0
BBX 25 33 4 -1
BITMAP
003F0000
03FFFE00
0FFFFE00
1FFFFE00
3FFFFE00
3F801E00
7E000000
7E000000
7C000000
7C000000
7E000000
7F000000
3FC00000
3FF00000
1FFE0000
07FFC000
03FFF000
00FFF800
001FFE00
0003FE00
0000FF00
00003F80
00001F80
00001F80
00001F80
00001F80
70003F80
7E007F00
7FFFFF00
7FFFFE00
FFFFFC00
1FFFF000
00FE0000
ENDCHAR
STARTCHAR 0074
ENCODING 116
SWIDTH 495 0
DWIDTH 33 0
BBX 26 41 4 0
BITMAP
01F00000
01F00000
01F00000
01F00000
01F00000
01F00000
01F00000
01F00000
01F00000
FFFFFF80
FFFFFF80
FFFFFF80
FFFFFF80
FFFFFF80
01F00000
01F00000
01F00000
01F00000
01F00000
01F00000
01F00000
01F00000
01F00000
01F00000
01F00000
01F00000
01F00000
01F00000
01F00000
01F00000
01F00000
01F80000
01F80000
01F80000
01FC0000
00FF0780
00FFFFC0
007FFFC0
003FFFC0
001FFF80
0003F800
ENDCHAR
STARTCHAR 0075
ENCODING 117
SWIDTH 495 0
DWIDTH 33 0
BBX 24 32 5 -1
BITMAP
F8003F
F8003F
F8003F
F8003F
F8003F
F8003F
F8003F
F8003F
F8003F
F8003F
F8003F
F8003F
F8003F
F8003F
F8003F
F8003F
F8003F
F8003F
F8003F
F8003F
F8003F
F8003F
FC003F
FC003F
FE003F
7F003F
7FC0FF
3FFFFF
1FFFFF
0FFFFF
03FFFC
003F00
ENDCHAR
STARTCHAR 0076
ENCODING 118
SWIDTH 495 0
DWIDTH 33 0
BBX 29 31 2 0
BITMAP
FC0001F8
FC0001F8
7E0001F8
7E0001F0
7E0003F0
3F0003F0
3F0003E0
3F0007E0
1F8007E0
1F8007C0
1F800FC0
0FC00FC0
0FC01F80
0FC01F80
07E01F00
07E03F00
03E03F00
03F03E00
03F07E00
01F07C00
01F8FC00
00F8F800
00FCF800
00FDF800
007FF000
007FF000
003FE000
003FE000
001FC000
001FC000
000F8000
ENDCHAR
STARTCHAR 0077
ENCODING 119
SWIDTH 495 0
DWIDTH 33 0
BBX 31 31 1 0
BITMAP
F800003E
FC00003E
FC00003E
7C00003E
7C00003E
7C00003C
7C00007C
7C03C07C
7C07C07C
7C07E07C
7C07E07C
3E0FE07C
3E0FE07C
3E0FF078
3E1FF0F8
3E1EF0F8
3E1EF8F8
1E3E78F8
1F3C78F8
1F3C7CF0
1F7C3CF0
1F783DF0
1F783FF0
0FF01FF0
0FF01FE0
0FF00FE0
0FE00FE0
0FE00FE0
07C007E0
07C007C0
07C003C0
ENDCHAR
STARTCHAR 0078
ENCODING 120
SWIDTH 495 0
DWIDTH 33 0
BBX 29 31 2 0
BITMAP
7E0003F0
7F0003E0
3F0007E0
1F800FC0
0FC01F80
07E01F80
07F03F00
03F07E00
01F87C00
00FCFC00
00FFF800
007FF000
003FF000
001FE000
001FC000
001FE000
003FF000
007FF800
007FF800
00FCFC00
01F87E00
03F07F00
07E03F00
07E01F80
0FC01FC0
1F800FC0
1F8007E0
3F0007F0
7E0003F0
7E0001F8
FC0001F8
ENDCHAR
STARTCHAR 0079
ENCODING 121
SWIDTH 495 0
DWIDTH 33 0
BBX 28 42 3 -11
BITMAP
FC0003F0
7E0003E0
7E0007E0
7E0007E0
7E0007E0
3F0007C0
3F000FC0
3F000FC0
1F800FC0
1F800F80
1F801F80
0FC01F80
0FC01F00
0FC01F00
07E03F00
07E03E00
03E03E00
03F07E00
03F07C00
01F87C00
01F87C00
00F8F800
00FCF800
007CF800
007FF000
003FF000
003FF000
001FE000
001FE000
000FC000
000FC000
0007C000
000F8000
001F8000
001F0000
003F0000
007E0000
FFFC0000
FFF80000
FFF00000
FFE00000
FF800000
ENDCHAR
STARTCHAR 007A
ENCODING 122
SWIDTH 495 0
DWIDTH 33 0
BBX 23 31 5 0
BITMAP
7FFFFE
7FFFFE
7FFFFE
7FFFFE
7FFFFE
0001FC
0003F8
0003F0
0007E0
000FE0
001FC0
003F80
003F00
007E00
00FE00
00FC00
01F800
03F000
07F000
07E000
0FC000
1FC000
1F8000
3F0000
7F0000
7E0000
FFFFFE
FFFFFE
FFFFFE
FFFFFE
FFFFFE
ENDCHAR
STARTCHAR 007B
ENCODING 123
SWIDTH 495 0
DWIDTH 33 0
BBX 23 58 5 -11
BITMAP
0000FE
000FFE
003FFE
007FFE
007FFE
00FC00
00F800
00F800
00F800
00F800
00F800
00F800
00F800
00F800
00F800
00F800
00F800
00F800
00F800
00F800
00F800
01F800
01F800
01F000
01F000
03F000
07E000
FFC000
FFC000
FF8000
FFC000
0FE000
03E000
01F000
01F000
01F000
01F800
00F800
00F800
00F800
00F800
00F800
00F800
00F800
00F800
00F800
00F800
00F800
00F800
00F800
00F800
00F800
00FC00
00FF80
007FFE
003FFE
001FFE
0003FE
ENDCHAR
STARTCHAR 007C
ENCODING 124
SWIDTH 495 0
DWIDTH 33 0
BBX 5 58 14 -11
BITMAP
F8
F8
F8
F8
F8
F8
F8
F8
F8
F8
F8
F8
F8
F8
F8
F8
F8
F8
F8
F8
F8
F8
F8
F8
F8
F8
F8
F8
F8
F8
F8
F8
F8
F8
F8
F8
F8
F8
F8
F8
F8
F8
F8
F8
F8
F8
F8
F8
F8
F8
F8
F8
F8
F8
F8
F8
F8
F8
ENDCHAR
STARTCHAR 007D
ENCODING 125
SWIDTH 495 0
DWIDTH 33 0
BBX 23 58 5 -11
BITMAP
FF0000
FFE000
FFF800
FFFC00
FFFE00
007E00
003E00
003F00
003F00
001F00
001F00
001F00
001F00
001F00
001F00
001F00
001F00
001F00
001F00
001F00
001F00
001F00
001F00
001F00
001F80
000F80
000FC0
0007FE
0003FE
0003FE
0007FE
000FE0
000FC0
001F80
001F00
001F00
001F00
001F00
001F00
001F00
001F00
001F00
001F00
001F00
001F00
001F00
001F00
001F00
001F00
001F00
003F00
003F00
007E00
01FE00
FFFC00
FFFC00
FFF000
FFC000
ENDCHAR
STARTCHAR 007E
ENCODING 126
SWIDTH 495 0
DWIDTH 33 0
BBX 28 9 3 13
BITMAP
0FE000C0
1FF800F0
3FFE01F0
7FFF83E0
FEFFEFE0
F81FFFC0
F00FFFC0
F003FF80
2000FE00
ENDCHAR
STARTCHAR 00A0
ENCODING 160
SWIDTH 495 0
DWIDTH 33 0
BBX 0 0 0 0
BITMAP
ENDCHAR
STARTCHAR 00A1
ENCODING 161
SWIDTH 495 0
DWIDTH 33 0
BBX 9 42 12 -11
BITMAP
1E00
7F00
7F80
FF80
FF80
FF80
7F80
7F00
3E00
0000
0000
0000
0000
0000
0000
1E00
1E00
3E00
3E00
3E00
3E00
3E00
3E00
3E00
3E00
3E00
3F00
3F00
3F00
3F00
3F00
3F00
3F00
3F00
3F00
3F00
3F00
3F00
3F00
3F00
3F00
3F00
ENDCHAR
STARTCHAR 00A2
ENCODING 162
SWIDTH 495 0
DWIDTH 33 0
BBX 27 47 3 -6
BITMAP
0003E000
0003E000
0003E000
0003E000
0003E000
0003E000
0003E000
0003E000
000FFE00
007FFFC0
01FFFFC0
07FFFFC0
0FFFFF80
1FF00180
1FC00000
3F800000
3F000000
7E000000
7E000000
7C000000
FC000000
FC000000
FC000000
FC000000
FC000000
FC000000
FC000000
7C000000
7E000000
7E000000
7F000000
3F800000
3FC00000
1FF00040
0FFFFFC0
07FFFFE0
01FFFFE0
00FFFFE0
001FFF00
0003E000
0003E000
0003E000
0003E000
0003E000
0003E000
0003E000
0003E000
ENDCHAR
STARTCHAR 00A3
ENCODING 163
SWIDTH 495 0
DWIDTH 33 0
BBX 27 42 3 0
BITMAP
0003FE00
001FFFC0
003FFFC0
007FFFC0
00FFFF80
01FE0180
01F80000
03F80000
03F00000
03F00000
03E00000
03E00000
03E00000
03E00000
03E00000
03E00000
03E00000
03E00000
03E00000
03E00000
FFFFFC00
FFFFFC00
FFFFFC00
FFFFFC00
03E00000
03E00000
07E00000
07E00000
07E00000
07E00000
07E00000
07E00000
07E00000
07E00000
07C00000
07C00000
07C00000
07FFFFE0
0FFFFFE0
0FFFFFE0
0FFFFFE0
0FFFFFE0
ENDCHAR
STARTCHAR 00A4
ENCODING 164
SWIDTH 495 0
DWIDTH 33 0
BBX 28 28 3 6
BITMAP
00000080
300001C0
780003E0
FC3F87F0
FEFFFFE0
7FFFFFC0
3FFFFF80
1FE0FF00
0F803F00
1F001F00
1F000F80
3E000F80
3E000F80
3E000780
3E000780
3E000780
3E000F80
1E000F80
1F000F00
1F801F00
0FC03F00
1FF1FF00
3FFFFF80
7FFFFFC0
FEFFEFE0
FC1F87E0
780003C0
30000180
ENDCHAR
STARTCHAR 00A5
ENCODING 165
SWIDTH 495 0
DWIDTH 33 0
BBX 31 41 1 0
BITMAP
FC00007E
7E00007E
7E0000FC
3F0000FC
3F0001F8
1F8001F0
1F8003F0
0FC003E0
07C007E0
07E007C0
03E00FC0
03F00F80
01F81F80
01F83F00
00FC3E00
007C7E00
007E7C00
003FFC00
003FF800
001FF000
1FFFFFF0
1FFFFFF0
1FFFFFF0
1FFFFFF0
0007C000
0007C000
0007C000
0007C000
0007C000
0007C000
1FFFFFF0
1FFFFFF0
1FFFFFF0
1FFFFFF0
1FFFFFF0
0007C000
0007C000
0007C000
0007C000
0007C000
0007C000
ENDCHAR
STARTCHAR 00A6
ENCODING 166
SWIDTH 495 0
DWIDTH 33 0
BBX 5 58 14 -11
BITMAP
F8
F8
F8
F8
F8
F8
F8
F8
F8
F8
F8
F8
F8
F8
F8
F8
F8
F8
F8
F8
F8
F8
F8
00
00
00
00
00
00
00
00
00
00
00
00
F8
F8
F8
F8
F8
F8
F8
F8
F8
F8
F8
F8
F8
F8
F8
F8
F8
F8
F8
F8
F8
F8
F8
ENDCHAR
STARTCHAR 00A7
ENCODING 167
SWIDTH 495 0
DWIDTH 33 0
BBX 24 48 5 -6
BITMAP
00FFE0
07FFFC
0FFFFC
1FFFFC
1FE1FC
3F0018
3E0000
3E0000
3E0000
3E0000
3E0000
3F0000
1FC000
1FF800
0FFE00
0FFFC0
1FFFF0
3F7FF8
7E0FFC
7C01FE
F800FE
F8007E
F8003F
F8001F
F8001F
F8001F
FC003E
FE003E
7F807E
3FF0FC
1FFFF8
0FFFF0
03FFE0
00FFF0
001FF8
0003F8
0000FC
0000FC
00007C
00007E
00007C
00007C
4000FC
7C03FC
FFFFF8
FFFFF0
FFFFE0
3FFF80
ENDCHAR
STARTCHAR 00A8
ENCODING 168
SWIDTH 495 0
DWIDTH 33 0
BBX 18 7 8 37
BITMAP
300600
FC0F80
FC1FC0
FC1FC0
FC1FC0
FC1F80
780F80
ENDCHAR
STARTCHAR 00A9
ENCODING 169
SWIDTH 495 0
DWIDTH 33 0
BBX 29 33 2 -1
BITMAP
00078000
007FF000
01FFFC00
03FFFF00
07E03F80
0F800FC0
1F0007C0
3E0003E0
3C07C1E0
3C1FF0F0
783FE0F0
787FE0F0
78FC0078
F0F00078
F0F00078
F0F00078
F1F00078
F1F00078
F0F00078
F0F00078
78FC0078
787FE0F0
787FE0F0
7C3FF0F0
3C0FC1E0
3E0003E0
1F0007C0
0F800FC0
07E03F80
03FFFF00
01FFFC00
007FF000
000F8000
ENDCHAR
STARTCHAR 00AA
ENCODING 170
SWIDTH 495 0
DWIDTH 33 0
BBX 18 22 8 20
BITMAP
0FF800
3FFE00
3FFF00
1FFF80
001F80
000780
000780
0007C0
0007C0
0FFFC0
3FFFC0
7FFFC0
7E07C0
F807C0
F007C0
F007C0
F007C0
F807C0
FE07C0
7FFFC0
3FFFC0
0FFFC0
ENDCHAR
STARTCHAR 00AB
ENCODING 171
SWIDTH 495 0
DWIDTH 33 0
BBX 23 22 4 6
BITMAP
01C01C
01E01E
03E03E
07C07C
07C07C
0F80F8
1F81F8
1F01F0
3E03E0
7E07E0
7C07C0
FC0FC0
7E07E0
3E03E0
3F03F0
1F01F0
0F80F8
0FC0FC
07C07C
03E03E
03E03E
01C01C
ENDCHAR
STARTCHAR 00AC
ENCODING 172
SWIDTH 495 0
DWIDTH 33 0
BBX 27 20 3 3
BITMAP
FFFFFFE0
FFFFFFE0
FFFFFFE0
FFFFFFE0
FFFFFFE0
000003E0
000003E0
000003E0
000003E0
000003E0
000003E0
000003E0
000003E0
000003E0
000003E0
000003E0
000003E0
000003E0
000003E0
000003E0
ENDCHAR
STARTCHAR 00AD
ENCODING 173
SWIDTH 495 0
DWIDTH 33 0
BBX 15 6 9 14
BITMAP
FFFE
FFFE
FFFE
FFFE
FFFE
FFFE
ENDCHAR
STARTCHAR 00AE
ENCODING 174
SWIDTH 495 0
DWIDTH 33 0
BBX 29 33 2 -1
BITMAP
00078000
007FF000
01FFFC00
03FFFF00
07E03F80
0F800FC0
1F0007C0
3E0003E0
3C3F81E0
3C7FE0F0
787FF0F0
787FF8F0
78787878
F0787878
F0787878
F0787878
F07FF078
F07FF078
F07FE078
F07FE078
7878E078
7878F0F0
787878F0
7C7878F0
3C783DE0
3E0003E0
1F0007C0
0F800FC0
07E03F80
03FFFF00
01FFFC00
007FF000
000F8000
ENDCHAR
STARTCHAR 00AF
ENCODING 175
SWIDTH 495 0
DWIDTH 33 0
BBX 17 4 8 38
BITMAP
FFFF80
FFFF80
FFFF80
FFFF80
ENDCHAR
STARTCHAR 00B0
ENCODING 176
SWIDTH 495 0
DWIDTH 33 0
BBX 17 16 8 30
BITMAP
07F000
1FFC00
3FFE00
3FFF00
7C1F00
780F80
F80780
F00780
F00780
F00780
780F80
7C0F00
7F7F00
3FFE00
1FFC00
07F000
ENDCHAR
STARTCHAR 00B1
ENCODING 177
SWIDTH 495 0
DWIDTH 33 0
BBX 27 37 3 0
BITMAP
001F0000
001F0000
001F0000
001F0000
001F0000
001F0000
001F0000
001F0000
001F0000
001F0000
001F0000
001F0000
FFFFFFE0
FFFFFFE0
FFFFFFE0
FFFFFFE0
FFFFFFE0
001F0000
001F0000
001F0000
001F0000
001F0000
001F0000
001F0000
001F0000
001F0000
001F0000
001F0000
001F0000
00000000
00000000
00000000
FFFFFFE0
FFFFFFE0
FFFFFFE0
FFFFFFE0
FFFFFFE0
ENDCHAR
STARTCHAR 00B2
ENCODING 178
SWIDTH 495 0
DWIDTH 33 0
BBX 16 23 9 19
BITMAP
1FE0
7FF8
FFFC
FFFE
E03E
401E
001E
001E
003E
007C
00FC
01F8
03F0
07E0
0FC0
1F80
3F00
7C00
7C00
7FFF
FFFF
FFFF
FFFF
ENDCHAR
STARTCHAR 00B3
ENCODING 179
SWIDTH 495 0
DWIDTH 33 0
BBX 16 24 9 18
BITMAP
1FE0
FFF8
FFFC
7DFC
603C
003E
003E
003C
007C
0FF8
0FF0
0FF8
0FFC
007E
001F
001F
000F
001F
001F
C03E
FFFE
FFFC
FFF8
0F80
ENDCHAR
STARTCHAR 00B4
ENCODING 180
SWIDTH 495 0
DWIDTH 33 0
BBX 10 11 12 35
BITMAP
0300
0380
07C0
0FC0
1F80
3F00
7E00
7C00
F800
F000
6000
ENDCHAR
STARTCHAR 00B5
ENCODING 181
SWIDTH 495 0
DWIDTH 33 0
BBX 24 42 5 -11
BITMAP
F8003F
F8003F
F8003F
F8003F
F8003F
F8003F
F8003F
F8003F
F8003F
F8003F
F8003F
F8003F
F8003F
F8003F
F8003F
F8003F
F8003F
F8003F
F8003F
F8003F
FC003F
FC003F
FC003F
FC003F
FE003F
FF003F
FFC07F
FFFFFF
FFFFFF
FFFFFF
FBFFFC
F87F00
F80000
F80000
F80000
F80000
F80000
F80000
F80000
F80000
F80000
F80000
ENDCHAR
STARTCHAR 00B6
ENCODING 182
SWIDTH 495 0
DWIDTH 33 0
BBX 28 53 2 -11
BITMAP
0001FC00
007FFFF0
01FFFFF0
07FFFFF0
0FFFFFF0
1FFF81F0
3FFF81F0
7FFF81F0
7FFF81F0
FFFF81F0
FFFF81F0
FFFF81F0
FFFF81F0
FFFF81F0
FFFF81F0
FFFF81F0
FFFF81F0
FFFF81F0
7FFF81F0
7FFF81F0
7FFF81F0
3FFF81F0
1FFF81F0
0FFF81F0
03FF81F0
00FF81F0
000781F0
000781F0
000781F0
000781F0
000781F0
000781F0
000781F0
000781F0
000781F0
000781F0
000781F0
000781F0
000781F0
000781F0
000781F0
000781F0
000781F0
000781F0
000781F0
000781F0
000781F0
000781F0
000781F0
000781F0
000781F0
000781F0
000781F0
ENDCHAR
STARTCHAR 00B7
ENCODING 183
SWIDTH 495 0
DWIDTH 33 0
BBX 10 10 12 12
BITMAP
3F00
7F80
FF80
FF80
FFC0
FFC0
FF80
7F80
7F00
1C00
ENDCHAR
STARTCHAR 00B8
ENCODING 184
SWIDTH 495 0
DWIDTH 33 0
BBX 11 12 10 -11
BITMAP
03C0
0780
0700
0F80
0FC0
07E0
03E0
03E0
67E0
7FE0
7FC0
FF80
ENDCHAR
STARTCHAR 00B9
ENCODING 185
SWIDTH 495 0
DWIDTH 33 0
BBX 17 23 9 19
BITMAP
01E000
03E000
07E000
1FE000
7FE000
FFE000
FBE000
E3E000
03E000
03E000
03E000
03E000
03E000
03E000
03E000
03E000
03E000
03E000
03E000
FFFF80
FFFF80
FFFF80
FFFF80
ENDCHAR
STARTCHAR 00BA
ENCODING 186
SWIDTH 495 0
DWIDTH 33 0
BBX 21 22 6 20
BITMAP
01FE00
07FF80
1FFFC0
3FFFE0
3F03F0
7C01F0
7C00F8
F800F8
F80078
F00078
F00078
F00078
F00078
F80078
F800F8
7800F8
7C01F0
3E03F0
3FFFE0
1FFFC0
0FFF80
03FE00
ENDCHAR
STARTCHAR 00BB
ENCODING 187
SWIDTH 495 0
DWIDTH 33 0
BBX 23 22 6 6
BITMAP
700700
F80F80
F80780
7C07C0
3E03E0
3E03E0
1F01F0
1F81F8
0F80F8
0FC0FC
07E07E
07E07E
0FC0FC
0F80F8
1F81F8
1F01F0
3E03E0
3E03E0
7C07C0
F80F80
F80F80
700700
ENDCHAR
STARTCHAR 00BC
ENCODING 188
SWIDTH 495 0
DWIDTH 33 0
BBX 31 42 1 0
BITMAP
01C00000
03C0003C
0FC0007C
1FC000F8
FFC000F0
7FC001F0
7BC001E0
43C003E0
03C007C0
03C00780
03C00F80
03C01F00
03C01F00
03C03E00
03C03C00
03C07C00
03C0F800
0000F800
0001F000
0001E000
0003E000
0007C000
00078000
000F8000
000F0000
001F01F0
003E03F0
003C07F0
007C07F0
00F80EF0
00F81EF0
01F01CF0
01E03CF0
03E078F0
07C070F0
0780FFFE
0F80FFFE
0F00FFFE
1F00FFFE
3E0000F0
3C0000F0
7C0000F0
ENDCHAR
STARTCHAR 00BD
ENCODING 189
SWIDTH 495 0
DWIDTH 33 0
BBX 31 42 1 0
BITMAP
01C00000
03C0007C
07C000F8
1FC000F0
7FC001F0
7FC003E0
7BC003E0
23C007C0
03C00780
03C00F80
03C01F00
03C01E00
03C03E00
03C03C00
03C07C00
03C0F800
03C0F000
0001F000
0001E000
0003E000
0007C000
00078000
000F8000
001F0000
001F0000
003E0FF0
003C1FF8
007C3FFC
00F81E7C
00F0083C
01F0001E
01E0003C
03E0003C
07C000F8
078001F8
0F8007E0
1F000FC0
1F001F00
3E003E00
3C003FFE
7C003FFE
F8003FFE
ENDCHAR
STARTCHAR 00BE
ENCODING 190
SWIDTH 495 0
DWIDTH 33 0
BBX 31 42 1 0
BITMAP
3FC00000
7FF0003C
7FF0007C
30F00078
00F000F8
00F001F0
03F001E0
1FE003E0
1FE003C0
1FF007C0
00F80F80
00780F00
00781F00
40783E00
7FF83E00
7FF07C00
FFE07800
0800F800
0001F000
0001E000
0003E000
0003C000
0007C000
000F8000
000F0000
001F01F0
003E03F0
003E07F0
007C07F0
00780EF0
00F81EF0
01F01CF0
01F03CF0
03E078F0
03C070F0
07C0FFFE
0F80FFFE
0F00FFFE
1F00FFFE
1E0000F0
3E0000F0
7C0000F0
ENDCHAR
STARTCHAR 00BF
ENCODING 191
SWIDTH 495 0
DWIDTH 33 0
BBX 21 42 6 -11
BITMAP
003C00
007F00
00FF00
00FF80
00FF80
00FF80
00FF00
007F00
003C00
000000
000000
000000
000000
000000
000000
003E00
003E00
003E00
003E00
007E00
00FC00
01F800
03F800
07F000
0FE000
1FC000
1F8000
3F0000
7E0000
7C0000
FC0000
FC0000
FC0000
FC0000
FC0000
7E0000
7F0030
7FE3F0
3FFFF8
1FFFF8
0FFFF0
03FF80
ENDCHAR
STARTCHAR 00C0
ENCODING 192
SWIDTH 495 0
DWIDTH 33 0
BBX 32 55 1 0
BITMAP
00040000
000E0000
001F0000
003F8000
001FC000
000FE000
0003E000
0001F000
0000F800
00007800
00002000
00000000
00000000
00000000
000FE000
000FF000
001FF000
001FF800
001FF800
003EF800
003EFC00
007E7C00
007C7C00
007C7E00
00FC3E00
00F83E00
00F83F00
01F81F00
01F01F00
01F01F80
01F00F80
03E00F80
03E00FC0
03E007C0
07C007C0
07C007C0
07C007E0
0F8003E0
0F8003E0
0F8003F0
1FFFFFF0
1FFFFFF0
1FFFFFF0
1FFFFFF8
3F0000F8
3E0000F8
3E0000F8
3E0000FC
7E0000FC
7C00007C
7C00007E
FC00007E
FC00007E
FC00003E
F800003F
ENDCHAR
STARTCHAR 00C1
ENCODING 193
SWIDTH 495 0
DWIDTH 33 0
BBX 32 55 1 0
BITMAP
00006000
0000F000
0001F800
0001F800
0003F000
0007E000
000FC000
001F8000
003F0000
001E0000
000C0000
00000000
00000000
00000000
000FE000
000FF000
001FF000
001FF800
001FF800
003EF800
003EFC00
007E7C00
007C7C00
007C7E00
00FC3E00
00F83E00
00F83F00
01F81F00
01F01F00
01F01F80
01F00F80
03E00F80
03E00FC0
03E007C0
07C007C0
07C007C0
07C007E0
0F8003E0
0F8003E0
0F8003F0
1FFFFFF0
1FFFFFF0
1FFFFFF0
1FFFFFF8
3F0000F8
3E0000F8
3E0000F8
3E0000FC
7E0000FC
7C00007C
7C00007E
FC00007E
FC00007E
FC00003E
F800003F
ENDCHAR
STARTCHAR 00C2
ENCODING 194
SWIDTH 495 0
DWIDTH 33 0
BBX 32 55 1 0
BITMAP
00010000
00038000
0007C000
000FE000
001FF000
003FF800
007EFC00
007C7E00
00F81F00
00F00E00
00600400
00000000
00000000
00000000
000FE000
000FF000
001FF000
001FF800
001FF800
003EF800
003EFC00
007E7C00
007C7C00
007C7E00
00FC3E00
00F83E00
00F83F00
01F81F00
01F01F00
01F01F80
01F00F80
03E00F80
03E00FC0
03E007C0
07C007C0
07C007C0
07C007E0
0F8003E0
0F8003E0
0F8003F0
1FFFFFF0
1FFFFFF0
1FFFFFF0
1FFFFFF8
3F0000F8
3E0000F8
3E0000F8
3E0000FC
7E0000FC
7C00007C
7C00007E
FC00007E
FC00007E
FC00003E
F800003F
ENDCHAR
STARTCHAR 00C3
ENCODING 195
SWIDTH 495 0
DWIDTH 33 0
BBX 32 53 1 0
BITMAP
00180200
007F0780
00FFFF00
01FFFF00
01FFFE00
01C1FC00
00C07000
00000000
00000000
00000000
00000000
00000000
000FE000
000FF000
001FF000
001FF800
001FF800
003EF800
003EFC00
007E7C00
007C7C00
007C7E00
00FC3E00
00F83E00
00F83F00
01F81F00
01F01F00
01F01F80
01F00F80
03E00F80
03E00FC0
03E007C0
07C007C0
07C007C0
07C007E0
0F8003E0
0F8003E0
0F8003F0
1FFFFFF0
1FFFFFF0
1FFFFFF0
1FFFFFF8
3F0000F8
3E0000F8
3E0000F8
3E0000FC
7E0000FC
7C00007C
7C00007E
FC00007E
FC00007E
FC00003E
F800003F
ENDCHAR
STARTCHAR 00C4
ENCODING 196
SWIDTH 495 0
DWIDTH 33 0
BBX 32 53 1 0
BITMAP
00F00E00
01F83F00
01F83F80
01F83F80
01F83F80
01F83F00
00F01E00
00000000
00000000
00000000
00000000
00000000
000FE000
000FF000
001FF000
001FF800
001FF800
003EF800
003EFC00
007E7C00
007C7C00
007C7E00
00FC3E00
00F83E00
00F83F00
01F81F00
01F01F00
01F01F80
01F00F80
03E00F80
03E00FC0
03E007C0
07C007C0
07C007C0
07C007E0
0F8003E0
0F8003E0
0F8003F0
1FFFFFF0
1FFFFFF0
1FFFFFF0
1FFFFFF8
3F0000F8
3E0000F8
3E0000F8
3E0000FC
7E0000FC
7C00007C
7C00007E
FC00007E
FC00007E
FC00003E
F800003F
ENDCHAR
STARTCHAR 00C5
ENCODING 197
SWIDTH 495 0
DWIDTH 33 0
BBX 32 50 1 0
BITMAP
0007C000
000FF000
001FF800
003C3800
00381C00
00381C00
00381C00
00381C00
00383800
001FF800
001FF000
000FF000
001FF000
001FF800
003EF800
003EF800
003E7C00
007C7C00
007C7E00
007C3E00
00F83E00
00F83F00
00F81F00
01F01F00
01F01F80
01F00F80
03E00F80
03E00F80
03E007C0
07C007C0
07C007C0
07C007E0
0F8003E0
0F8003E0
0F8003F0
0FFFFFF0
1FFFFFF0
1FFFFFF0
1FFFFFF8
3F0000F8
3E0000F8
3E0000F8
3E0000FC
7E0000FC
7C00007C
7C00007E
FC00007E
FC00007E
FC00003E
F800003F
ENDCHAR
STARTCHAR 00C6
ENCODING 198
SWIDTH 495 0
DWIDTH 33 0
BBX 30 41 2 0
BITMAP
000FFFF8
000FFFF8
000FFFF8
001EFFF8
001EF800
003EF800
003EF800
003CF800
007CF800
007CF800
0078F800
00F8F800
00F8F800
00F0F800
01F0F800
01F0F800
01F0F800
03E0FFF0
03E0FFF0
03E0FFF0
07C0FFF0
07C0FFF0
07C0F800
0780F800
0F80F800
0F80F800
0FFFF800
1FFFF800
1FFFF800
1FFFF800
1F00F800
3E00F800
3E00F800
3E00F800
7E00F800
7C00F800
7C00FFFC
7C00FFFC
FC00FFFC
FC00FFFC
F800FFFC
ENDCHAR
STARTCHAR 00C7
ENCODING 199
SWIDTH 495 0
DWIDTH 33 0
BBX 27 53 3 -11
BITMAP
0007FC00
003FFF80
00FFFFE0
01FFFFE0
03FFFFE0
07F803C0
0FF000C0
0FC00000
1F800000
3F800000
3F000000
3F000000
7E000000
7E000000
7E000000
7C000000
FC000000
FC000000
FC000000
FC000000
FC000000
FC000000
FC000000
FC000000
FC000000
FC000000
FC000000
7C000000
7C000000
7E000000
7E000000
7F000000
3F000000
3F800000
1FC00000
1FE00000
0FF00040
07FC03E0
03FFFFE0
01FFFFE0
00FFFFE0
003FFF80
0007F800
0001E000
0003E000
0003F000
0001F800
0000F800
0000F800
0019F800
001FF800
001FF000
003FE000
ENDCHAR
STARTCHAR 00C8
ENCODING 200
SWIDTH 495 0
DWIDTH 33 0
BBX 25 55 6 0
BITMAP
00C00000
01E00000
03F00000
03F80000
01F80000
00FC0000
007E0000
003F0000
001F8000
000F0000
00060000
00000000
00000000
00000000
FFFFFE00
FFFFFE00
FFFFFE00
FFFFFE00
FC000000
FC000000
FC000000
FC000000
FC000000
FC000000
FC000000
FC000000
FC000000
FC000000
FC000000
FC000000
FC000000
FFFFF800
FFFFF800
FFFFF800
FFFFF800
FFFFF800
FC000000
FC000000
FC000000
FC000000
FC000000
FC000000
FC000000
FC000000
FC000000
FC000000
FC000000
FC000000
FC000000
FC000000
FFFFFF80
FFFFFF80
FFFFFF80
FFFFFF80
FFFFFF80
ENDCHAR
STARTCHAR 00C9
ENCODING 201
SWIDTH 495 0
DWIDTH 33 0
BBX 25 55 6 0
BITMAP
00030000
00078000
000FC000
001FC000
001F8000
003F0000
007E0000
00FC0000
01F80000
00F00000
00600000
00000000
00000000
00000000
FFFFFE00
FFFFFE00
FFFFFE00
FFFFFE00
FC000000
FC000000
FC000000
FC000000
FC000000
FC000000
FC000000
FC000000
FC000000
FC000000
FC000000
FC000000
FC000000
FFFFF800
FFFFF800
FFFFF800
FFFFF800
FFFFF800
FC000000
FC000000
FC000000
FC000000
FC000000
FC000000
FC000000
FC000000
FC000000
FC000000
FC000000
FC000000
FC000000
FC000000
FFFFFF80
FFFFFF80
FFFFFF80
FFFFFF80
FFFFFF80
ENDCHAR
STARTCHAR 00CA
ENCODING 202
SWIDTH 495 0
DWIDTH 33 0
BBX 25 55 6 0
BITMAP
00100000
00380000
007C0000
00FE0000
00FF0000
01FF8000
03E7C000
07C3E000
0F81F000
0700E000
02004000
00000000
00000000
00000000
FFFFFE00
FFFFFE00
FFFFFE00
FFFFFE00
FC000000
FC000000
FC000000
FC000000
FC000000
FC000000
FC000000
FC000000
FC000000
FC000000
FC000000
FC000000
FC000000
FFFFF800
FFFFF800
FFFFF800
FFFFF800
FFFFF800
FC000000
FC000000
FC000000
FC000000
FC000000
FC000000
FC000000
FC000000
FC000000
FC000000
FC000000
FC000000
FC000000
FC000000
FFFFFF80
FFFFFF80
FFFFFF80
FFFFFF80
FFFFFF80
ENDCHAR
STARTCHAR 00CB
ENCODING 203
SWIDTH 495 0
DWIDTH 33 0
BBX 25 53 6 0
BITMAP
0700E000
1F81F000
1FC3F800
1FC3F800
1FC3F800
1F81F000
0F00E000
00000000
00000000
00000000
00000000
00000000
FFFFFE00
FFFFFE00
FFFFFE00
FFFFFE00
FC000000
FC000000
FC000000
FC000000
FC000000
FC000000
FC000000
FC000000
FC000000
FC000000
FC000000
FC000000
FC000000
FFFFF800
FFFFF800
FFFFF800
FFFFF800
FFFFF800
FC000000
FC000000
FC000000
FC000000
FC000000
FC000000
FC000000
FC000000
FC000000
FC000000
FC000000
FC000000
FC000000
FC000000
FFFFFF80
FFFFFF80
FFFFFF80
FFFFFF80
FFFFFF80
ENDCHAR
STARTCHAR 00CC
ENCODING 204
SWIDTH 495 0
DWIDTH 33 0
BBX 21 55 6 0
BITMAP
008000
01C000
03E000
03F000
01F800
00FC00
007C00
003E00
001F00
000F00
000400
000000
000000
000000
FFFFF8
FFFFF8
FFFFF8
FFFFF8
00F800
00F800
00F800
00F800
00F800
00F800
00F800
00F800
00F800
00F800
00F800
00F800
00F800
00F800
00F800
00F800
00F800
00F800
00F800
00F800
00F800
00F800
00F800
00F800
00F800
00F800
00F800
00F800
00F800
00F800
00F800
00F800
FFFFF8
FFFFF8
FFFFF8
FFFFF8
FFFFF8
ENDCHAR
STARTCHAR 00CD
ENCODING 205
SWIDTH 495 0
DWIDTH 33 0
BBX 21 55 6 0
BITMAP
000400
000F00
001F80
003F80
003F00
007E00
00FC00
01F800
03F000
01E000
00C000
000000
000000
000000
FFFFF8
FFFFF8
FFFFF8
FFFFF8
00F800
00F800
00F800
00F800
00F800
00F800
00F800
00F800
00F800
00F800
00F800
00F800
00F800
00F800
00F800
00F800
00F800
00F800
00F800
00F800
00F800
00F800
00F800
00F800
00F800
00F800
00F800
00F800
00F800
00F800
00F800
00F800
FFFFF8
FFFFF8
FFFFF8
FFFFF8
FFFFF8
ENDCHAR
STARTCHAR 00CE
ENCODING 206
SWIDTH 495 0
DWIDTH 33 0
BBX 21 55 6 0
BITMAP
002000
007000
00F800
01FC00
03FE00
07FF00
0FDF80
0F8FC0
1F03E0
1E01C0
0C0080
000000
000000
000000
FFFFF8
FFFFF8
FFFFF8
FFFFF8
00F800
00F800
00F800
00F800
00F800
00F800
00F800
00F800
00F800
00F800
00F800
00F800
00F800
00F800
00F800
00F800
00F800
00F800
00F800
00F800
00F800
00F800
00F800
00F800
00F800
00F800
00F800
00F800
00F800
00F800
00F800
00F800
FFFFF8
FFFFF8
FFFFF8
FFFFF8
FFFFF8
ENDCHAR
STARTCHAR 00CF
ENCODING 207
SWIDTH 495 0
DWIDTH 33 0
BBX 21 53 6 0
BITMAP
1E01C0
3F07E0
3F07F0
3F07F0
3F07F0
3F07E0
1E03C0
000000
000000
000000
000000
000000
FFFFF8
FFFFF8
FFFFF8
FFFFF8
00F800
00F800
00F800
00F800
00F800
00F800
00F800
00F800
00F800
00F800
00F800
00F800
00F800
00F800
00F800
00F800
00F800
00F800
00F800
00F800
00F800
00F800
00F800
00F800
00F800
00F800
00F800
00F800
00F800
00F800
00F800
00F800
FFFFF8
FFFFF8
FFFFF8
FFFFF8
FFFFF8
ENDCHAR
STARTCHAR 00D0
ENCODING 208
SWIDTH 495 0
DWIDTH 33 0
BBX 30 42 1 0
BITMAP
007C0000
0FFFE000
0FFFF800
0FFFFE00
0FFFFF00
0F80FF80
0F803FC0
0F800FC0
0F8007E0
0F8007E0
0F8003F0
0F8003F0
0F8001F8
0F8001F8
0F8001F8
0F8000F8
0F8000F8
0F8000F8
FFFF00FC
FFFF00FC
FFFF00FC
FFFF00FC
FFFF00FC
0F8000FC
0F8000FC
0F8000F8
0F8000F8
0F8000F8
0F8001F8
0F8001F8
0F8001F0
0F8003F0
0F8003F0
0F8007E0
0F800FE0
0F801FC0
0F803F80
0FC7FF80
0FFFFF00
0FFFFC00
0FFFF800
07FFC000
ENDCHAR
STARTCHAR 00D1
ENCODING 209
SWIDTH 495 0
DWIDTH 33 0
BBX 26 53 4 0
BITMAP
00C01000
03F83C00
07FFF800
0FFFF800
0FFFF000
0E0FE000
06038000
00000000
00000000
00000000
00000000
00000000
FC0007C0
FC0007C0
FE0007C0
FE0007C0
FF0007C0
FF0007C0
FF8007C0
FFC007C0
FFC007C0
FFE007C0
FBE007C0
FBF007C0
F9F007C0
F9F807C0
F8F807C0
F87C07C0
F87C07C0
F83E07C0
F83E07C0
F81F07C0
F81F07C0
F81F07C0
F80F87C0
F80F87C0
F807C7C0
F807C7C0
F803E7C0
F803E7C0
F801E7C0
F801F7C0
F800F7C0
F800FFC0
F800FFC0
F8007FC0
F8007FC0
F8003FC0
F8003FC0
F8001FC0
F8001FC0
F8001FC0
F8000FC0
ENDCHAR
STARTCHAR 00D2
ENCODING 210
SWIDTH 495 0
DWIDTH 33 0
BBX 29 56 2 -1
BITMAP
00080000
001C0000
003E0000
003F0000
001F8000
000FC000
0007C000
0003E000
0001F000
0000F000
00004000
00000000
00000000
003FE000
00FFF800
03FFFE00
07FFFF00
0FFFFF80
0FE03FC0
1F800FC0
1F8007E0
3F0007E0
3E0003F0
7E0003F0
7E0001F0
7C0001F8
7C0001F8
FC0001F8
FC0001F8
FC0000F8
FC0000F8
FC0000F8
FC0000F8
FC0000F8
FC0000F8
FC0000F8
FC0000F8
FC0000F8
FC0000F8
FC0000F8
FC0001F8
FC0001F8
7C0001F8
7C0001F0
7E0003F0
7E0003F0
3F0003F0
3F0007E0
1F800FE0
1FC01FC0
0FE03F80
07FFFF80
03FFFF00
01FFFE00
00FFF800
001FC000
ENDCHAR
STARTCHAR 00D3
ENCODING 211
SWIDTH 495 0
DWIDTH 33 0
BBX 29 56 2 -1
BITMAP
00004000
0000E000
0001F000
0003F800
0003F000
0007E000
000FC000
001F8000
003F0000
001E0000
000C0000
00000000
00000000
003FE000
00FFF800
03FFFE00
07FFFF00
0FFFFF80
0FE03FC0
1F800FC0
1F8007E0
3F0007E0
3E0003F0
7E0003F0
7E0001F0
7C0001F8
7C0001F8
FC0001F8
FC0001F8
FC0000F8
FC0000F8
FC0000F8
FC0000F8
FC0000F8
FC0000F8
FC0000F8
FC0000F8
FC0000F8
FC0000F8
FC0000F8
FC0001F8
FC0001F8
7C0001F8
7C0001F0
7E0003F0
7E0003F0
3F0003F0
3F0007E0
1F800FE0
1FC01FC0
0FE03F80
07FFFF80
03FFFF00
01FFFE00
00FFF800
001FC000
ENDCHAR
STARTCHAR 00D4
ENCODING 212
SWIDTH 495 0
DWIDTH 33 0
BBX 29 56 2 -1
BITMAP
00020000
00070000
000F8000
001FC000
003FE000
007FF000
00FDF800
00F8FC00
01F03E00
01E01C00
00C00800
00000000
00000000
003FE000
00FFF800
03FFFE00
07FFFF00
0FFFFF80
0FE03FC0
1F800FC0
1F8007E0
3F0007E0
3E0003F0
7E0003F0
7E0001F0
7C0001F8
7C0001F8
FC0001F8
FC0001F8
FC0000F8
FC0000F8
FC0000F8
FC0000F8
FC0000F8
FC0000F8
FC0000F8
FC0000F8
FC0000F8
FC0000F8
FC0000F8
FC0001F8
FC0001F8
7C0001F8
7C0001F0
7E0003F0
7E0003F0
3F0003F0
3F0007E0
1F800FE0
1FC01FC0
0FE03F80
07FFFF80
03FFFF00
01FFFE00
00FFF800
001FC000
ENDCHAR
STARTCHAR 00D5
ENCODING 213
SWIDTH 495 0
DWIDTH 33 0
BBX 29 54 2 -1
BITMAP
00300400
00FE0F00
01FFFE00
03FFFE00
03FFFC00
0383F800
0180E000
00000000
00000000
00000000
00000000
003FE000
00FFF800
03FFFE00
07FFFF00
0FFFFF80
0FE03FC0
1F800FC0
1F8007E0
3F0007E0
3E0003F0
7E0003F0
7E0001F0
7C0001F8
7C0001F8
FC0001F8
FC0001F8
FC0000F8
FC0000F8
FC0000F8
FC0000F8
FC0000F8
FC0000F8
FC0000F8
FC0000F8
FC0000F8
FC0000F8
FC0000F8
FC0001F8
FC0001F8
7C0001F8
7C0001F0
7E0003F0
7E0003F0
3F0003F0
3F0007E0
1F800FE0
1FC01FC0
0FE03F80
07FFFF80
03FFFF00
01FFFE00
00FFF800
001FC000
ENDCHAR
STARTCHAR 00D6
ENCODING 214
SWIDTH 495 0
DWIDTH 33 0
BBX 29 54 2 -1
BITMAP
01E01C00
03F07E00
03F07F00
03F07F00
03F07F00
03F07E00
01E03C00
00000000
00000000
00000000
00000000
003FE000
00FFF800
03FFFE00
07FFFF00
0FFFFF80
0FE03FC0
1F800FC0
1F8007E0
3F0007E0
3E0003F0
7E0003F0
7E0001F0
7C0001F8
7C0001F8
FC0001F8
FC0001F8
FC0000F8
FC0000F8
FC0000F8
FC0000F8
FC0000F8
FC0000F8
FC0000F8
FC0000F8
FC0000F8
FC0000F8
FC0000F8
FC0001F8
FC0001F8
7C0001F8
7C0001F0
7E0003F0
7E0003F0
3F0003F0
3F0007E0
1F800FE0
1FC01FC0
0FE03F80
07FFFF80
03FFFF00
01FFFE00
00FFF800
001FC000
ENDCHAR
STARTCHAR 00D7
ENCODING 215
SWIDTH 495 0
DWIDTH 33 0
BBX 23 23 5 6
BITMAP
300018
78003C
FC007E
FE00FE
7F01FC
3F83F8
1FC7F0
0FEFE0
07FFC0
03FF80
01FF00
00FE00
01FF00
03FF80
07FFC0
0FEFE0
1FC7F0
3F83F8
7F01FC
FE00FE
FC007E
78003C
300018
ENDCHAR
STARTCHAR 00D8
ENCODING 216
SWIDTH 495 0
DWIDTH 33 0
BBX 29 45 2 -2
BITMAP
00000180
003FE3E0
00FFFBE0
03FFFFC0
07FFFFC0
0FFFFF80
0FE01FC0
1F801FC0
1F801FE0
3F003FE0
3E003FF0
7E007FF0
7E007DF0
7C00F9F8
7C00F9F8
FC01F1F8
FC01F0F8
FC03E0F8
FC03E0F8
FC07C0F8
FC07C0F8
FC0F80F8
FC0F80F8
FC1F00F8
FC1F00F8
FC3E00F8
FC3E00F8
FC7E00F8
FC7C01F8
FCFC01F8
7CF801F8
7DF801F0
7DF003F0
7FF003F0
3FE003F0
3FE007E0
1FC00FE0
1FC01FC0
0FE03F80
0FFFFF80
1FFFFF00
1FFFFE00
3EFFF800
1E0FC000
04000000
ENDCHAR
STARTCHAR 00D9
ENCODING 217
SWIDTH 495 0
DWIDTH 33 0
BBX 27 56 3 -1
BITMAP
00100000
00380000
007C0000
00FE0000
007E0000
003F0000
001F8000
000FC000
0007E000
0003C000
00018000
00000000
00000000
00000000
FC0003E0
FC0003E0
FC0003E0
FC0003E0
FC0003E0
FC0003E0
FC0003E0
FC0003E0
FC0003E0
FC0003E0
FC0003E0
FC0003E0
FC0003E0
FC0003E0
FC0003E0
FC0003E0
FC0003E0
FC0003E0
FC0003E0
FC0003E0
FC0003E0
FC0003E0
FC0003E0
FC0003E0
FC0003E0
FC0003E0
FC0003E0
FC0003E0
FC0003E0
FC0007E0
FC0007E0
7C0007E0
7E0007E0
7E000FC0
7F000FC0
3F801FC0
3FC07F80
1FFFFF00
0FFFFE00
07FFFC00
01FFF800
003F8000
ENDCHAR
STARTCHAR 00DA
ENCODING 218
SWIDTH 495 0
DWIDTH 33 0
BBX 27 56 3 -1
BITMAP
00008000
0001C000
0003E000
0007F000
0007E000
000FC000
001F8000
003F0000
007E0000
003C0000
00180000
00000000
00000000
00000000
FC0003E0
FC0003E0
FC0003E0
FC0003E0
FC0003E0
FC0003E0
FC0003E0
FC0003E0
FC0003E0
FC0003E0
FC0003E0
FC0003E0
FC0003E0
FC0003E0
FC0003E0
FC0003E0
FC0003E0
FC0003E0
FC0003E0
FC0003E0
FC0003E0
FC0003E0
FC0003E0
FC0003E0
FC0003E0
FC0003E0
FC0003E0
FC0003E0
FC0003E0
FC0007E0
FC0007E0
7C0007E0
7E0007E0
7E000FC0
7F000FC0
3F801FC0
3FC07F80
1FFFFF00
0FFFFE00
07FFFC00
01FFF800
003F8000
ENDCHAR
STARTCHAR 00DB
ENCODING 219
SWIDTH 495 0
DWIDTH 33 0
BBX 27 56 3 -1
BITMAP
00040000
000E0000
001F0000
003F8000
007FC000
00FFE000
01FBF000
01F1F800
03E07C00
03C03800
01801000
00000000
00000000
00000000
FC0003E0
FC0003E0
FC0003E0
FC0003E0
FC0003E0
FC0003E0
FC0003E0
FC0003E0
FC0003E0
FC0003E0
FC0003E0
FC0003E0
FC0003E0
FC0003E0
FC0003E0
FC0003E0
FC0003E0
FC0003E0
FC0003E0
FC0003E0
FC0003E0
FC0003E0
FC0003E0
FC0003E0
FC0003E0
FC0003E0
FC0003E0
FC0003E0
FC0003E0
FC0007E0
FC0007E0
7C0007E0
7E0007E0
7E000FC0
7F000FC0
3F801FC0
3FC07F80
1FFFFF00
0FFFFE00
07FFFC00
01FFF800
003F8000
ENDCHAR
STARTCHAR 00DC
ENCODING 220
SWIDTH 495 0
DWIDTH 33 0
BBX 27 54 3 -1
BITMAP
03C03800
07E0FC00
07E0FE00
07E0FE00
07E0FE00
07E0FC00
03C07800
00000000
00000000
00000000
00000000
00000000
FC0003E0
FC0003E0
FC0003E0
FC0003E0
FC0003E0
FC0003E0
FC0003E0
FC0003E0
FC0003E0
FC0003E0
FC0003E0
FC0003E0
FC0003E0
FC0003E0
FC0003E0
FC0003E0
FC0003E0
FC0003E0
FC0003E0
FC0003E0
FC0003E0
FC0003E0
FC0003E0
FC0003E0
FC0003E0
FC0003E0
FC0003E0
FC0003E0
FC0003E0
FC0007E0
FC0007E0
7C0007E0
7E0007E0
7E000FC0
7F000FC0
3F801FC0
3FC07F80
1FFFFF00
0FFFFE00
07FFFC00
01FFF800
003F8000
ENDCHAR
STARTCHAR 00DD
ENCODING 221
SWIDTH 495 0
DWIDTH 33 0
BBX 31 55 1 0
BITMAP
00002000
00007000
0000F800
0001FC00
0001F800
0003F000
0007E000
000FC000
001F8000
000F0000
00060000
00000000
00000000
00000000
FC00007E
7E00007E
7E0000FC
7E0000FC
3F0000FC
3F0001F8
1F8001F8
1F8003F0
0FC003F0
0FC003E0
0FC007E0
07E007C0
03E00FC0
03F00F80
01F01F80
01F81F00
00F83F00
00FC3E00
007E7C00
007E7C00
003FF800
003FF800
001FF000
000FF000
000FE000
0007E000
0007C000
0007C000
0007C000
0007C000
0007C000
0007C000
0007C000
0007C000
0007C000
0007C000
0007C000
0007C000
0007C000
0007C000
0007C000
ENDCHAR
STARTCHAR 00DE
ENCODING 222
SWIDTH 495 0
DWIDTH 33 0
BBX 25 41 5 0
BITMAP
F8000000
F8000000
F8000000
F8000000
F8000000
F8000000
F9F00000
FFFF8000
FFFFF000
FFFFF800
FFFFFC00
F807FE00
F800FF00
F8003F00
F8001F80
F8001F80
F8001F80
F8000F80
F8000F80
F8000F80
F8000F80
F8001F80
F8001F80
F8001F80
F8003F00
F8007F00
F800FE00
F807FE00
FFFFFC00
FFFFF800
FFFFE000
FFFF0000
F8000000
F8000000
F8000000
F8000000
F8000000
F8000000
F8000000
F8000000
F8000000
ENDCHAR
STARTCHAR 00DF
ENCODING 223
SWIDTH 495 0
DWIDTH 33 0
BBX 27 47 5 -1
BITMAP
01FF0000
07FFC000
0FFFE000
1FFFF000
3FFFF800
7F03F800
7E01F800
7C00FC00
FC00FC00
FC00FC00
F800FC00
F800F800
F801F800
F801F800
F803F000
F807E000
F80FE000
F81FC000
F83F8000
F83F0000
F87E0000
F87E0000
F87E0000
F87E0000
F87F0000
F83F8000
F83FE000
F81FF800
F80FFE00
F803FF00
F800FF80
F8003F80
F8001FC0
F8000FC0
F80007E0
F80007E0
F80007E0
F80007E0
F80007E0
F80007C0
F8400FC0
F8781FC0
F87FFF80
F87FFF80
F87FFF00
F87FFC00
0007C000
ENDCHAR
STARTCHAR 00E0
ENCODING 224
SWIDTH 495 0
DWIDTH 33 0
BBX 25 47 4 -1
BITMAP
00200000
00700000
00F80000
01F80000
00FC0000
007E0000
003F0000
001F8000
000FC000
00078000
00030000
00000000
00000000
00000000
003E0000
1FFFE000
1FFFF800
1FFFFC00
1FFFFE00
0E01FF00
00007F00
00003F00
00001F00
00001F80
00001F80
00001F80
00001F80
007F9F80
03FFFF80
0FFFFF80
1FFFFF80
3FFFFF80
7F801F80
FE001F80
FC001F80
FC001F80
FC001F80
FC001F80
FC001F80
FC001F80
FE001F80
7F801F80
7FFFFF80
3FFFFF80
0FFFFF80
03FFFF80
001F0000
ENDCHAR
STARTCHAR 00E1
ENCODING 225
SWIDTH 495 0
DWIDTH 33 0
BBX 25 47 4 -1
BITMAP
00008000
0001C000
0003E000
0007F000
000FE000
001FC000
001F0000
003E0000
007C0000
00780000
00300000
00000000
00000000
00000000
003E0000
1FFFE000
1FFFF800
1FFFFC00
1FFFFE00
0E01FF00
00007F00
00003F00
00001F00
00001F80
00001F80
00001F80
00001F80
007F9F80
03FFFF80
0FFFFF80
1FFFFF80
3FFFFF80
7F801F80
FE001F80
FC001F80
FC001F80
FC001F80
FC001F80
FC001F80
FC001F80
FE001F80
7F801F80
7FFFFF80
3FFFFF80
0FFFFF80
03FFFF80
001F0000
ENDCHAR
STARTCHAR 00E2
ENCODING 226
SWIDTH 495 0
DWIDTH 33 0
BBX 25 47 4 -1
BITMAP
00040000
000E0000
001E0000
003F0000
007F8000
00FFC000
01FBE000
03F1F000
07E0F800
03C07800
01003000
00000000
00000000
00000000
003E0000
1FFFE000
1FFFF800
1FFFFC00
1FFFFE00
0E01FF00
00007F00
00003F00
00001F00
00001F80
00001F80
00001F80
00001F80
007F9F80
03FFFF80
0FFFFF80
1FFFFF80
3FFFFF80
7F801F80
FE001F80
FC001F80
FC001F80
FC001F80
FC001F80
FC001F80
FC001F80
FE001F80
7F801F80
7FFFFF80
3FFFFF80
0FFFFF80
03FFFF80
001F0000
ENDCHAR
STARTCHAR 00E3
ENCODING 227
SWIDTH 495 0
DWIDTH 33 0
BBX 25 45 4 -1
BITMAP
00001000
01F03C00
07FE7C00
07FFF800
0FFFF000
0F0FF000
0E03C000
00000000
00000000
00000000
00000000
00000000
003E0000
1FFFE000
1FFFF800
1FFFFC00
1FFFFE00
0E01FF00
00007F00
00003F00
00001F00
00001F80
00001F80
00001F80
00001F80
007F9F80
03FFFF80
0FFFFF80
1FFFFF80
3FFFFF80
7F801F80
FE001F80
FC001F80
FC001F80
FC001F80
FC001F80
FC001F80
FC001F80
FE001F80
7F801F80
7FFFFF80
3FFFFF80
0FFFFF80
03FFFF80
001F0000
ENDCHAR
STARTCHAR 00E4
ENCODING 228
SWIDTH 495 0
DWIDTH 33 0
BBX 25 45 4 -1
BITMAP
03006000
0FC0F800
0FC1FC00
0FC1FC00
0FC1FC00
0FC1F800
0780F800
00000000
00000000
00000000
00000000
00000000
003E0000
1FFFE000
1FFFF800
1FFFFC00
1FFFFE00
0E01FF00
00007F00
00003F00
00001F00
00001F80
00001F80
00001F80
00001F80
007F9F80
03FFFF80
0FFFFF80
1FFFFF80
3FFFFF80
7F801F80
FE001F80
FC001F80
FC001F80
FC001F80
FC001F80
FC001F80
FC001F80
FE001F80
7F801F80
7FFFFF80
3FFFFF80
0FFFFF80
03FFFF80
001F0000
ENDCHAR
STARTCHAR 00E5
ENCODING 229
SWIDTH 495 0
DWIDTH 33 0
BBX 25 47 4 -1
BITMAP
007F0000
00FF8000
01F7C000
01C1C000
01C0E000
01C0E000
01C0E000
01C1E000
01E3C000
00FFC000
007F8000
001C0000
00000000
00000000
003E0000
1FFFE000
1FFFF800
1FFFFC00
1FFFFE00
0E01FF00
00007F00
00003F00
00001F00
00001F80
00001F80
00001F80
00001F80
007F9F80
03FFFF80
0FFFFF80
1FFFFF80
3FFFFF80
7F801F80
FE001F80
FC001F80
FC001F80
FC001F80
FC001F80
FC001F80
FC001F80
FE001F80
7F801F80
7FFFFF80
3FFFFF80
0FFFFF80
03FFFF80
001F0000
ENDCHAR
STARTCHAR 00E6
ENCODING 230
SWIDTH 495 0
DWIDTH 33 0
BBX 30 33 2 -1
BITMAP
01C00E00
3FF83F80
3FFC7FC0
3FFEFFE0
1FFFFFF0
103FF1F0
001FE0F8
001FC0F8
000FC0F8
000FC078
000FC07C
000FC07C
000FC07C
03EFC07C
0FFFFFFC
1FFFFFFC
3FFFFFFC
7FFFFFFC
7E0F8000
7C0FC000
F80FC000
F807C000
F807C000
F807C000
F807E000
FC03E000
7C07F000
7E0FFC70
7FFFFFF8
3FFFFFF8
1FFE7FF8
0FFC3FF0
01E00780
ENDCHAR
STARTCHAR 00E7
ENCODING 231
SWIDTH 495 0
DWIDTH 33 0
BBX 27 43 3 -11
BITMAP
0001F800
003FFFC0
00FFFFC0
03FFFFC0
07FFFFC0
0FFE03C0
1FE00000
1FC00000
3F800000
3F000000
7E000000
7E000000
7C000000
FC000000
FC000000
FC000000
FC000000
FC000000
FC000000
FC000000
7C000000
7E000000
7E000000
7F000000
3F800000
3FC00000
1FE00000
0FFE03C0
07FFFFE0
03FFFFE0
00FFFFE0
003FFFC0
0003F000
00078000
00078000
000FE000
0007E000
0001F000
0001F000
0063F000
007FF000
007FE000
007FC000
ENDCHAR
STARTCHAR 00E8
ENCODING 232
SWIDTH 495 0
DWIDTH 33 0
BBX 27 47 3 -1
BITMAP
00100000
00380000
007C0000
00FC0000
007E0000
003F0000
001F8000
000FC000
0007E000
0003C000
00018000
00000000
00000000
00000000
000F0000
00FFF000
01FFFC00
07FFFE00
0FFFFF00
1FE07F80
3F801F80
3F000FC0
7E0007C0
7E0007E0
7C0007E0
FC0003E0
FC0003E0
F80003E0
FFFFFFE0
FFFFFFE0
FFFFFFE0
FFFFFFE0
F8000000
F8000000
FC000000
FC000000
FC000000
7E000000
7F000000
3F800000
3FC00080
1FF81F80
0FFFFF80
07FFFF80
01FFFF80
007FFF00
0007E000
ENDCHAR
STARTCHAR 00E9
ENCODING 233
SWIDTH 495 0
DWIDTH 33 0
BBX 27 47 3 -1
BITMAP
00004000
0000E000
0001F000
0003F800
0007F000
000FE000
000F8000
001F0000
003E0000
003C0000
00180000
00000000
00000000
00000000
000F0000
00FFF000
01FFFC00
07FFFE00
0FFFFF00
1FE07F80
3F801F80
3F000FC0
7E0007C0
7E0007E0
7C0007E0
FC0003E0
FC0003E0
F80003E0
FFFFFFE0
FFFFFFE0
FFFFFFE0
FFFFFFE0
F8000000
F8000000
FC000000
FC000000
FC000000
7E000000
7F000000
3F800000
3FC00080
1FF81F80
0FFFFF80
07FFFF80
01FFFF80
007FFF00
0007E000
ENDCHAR
STARTCHAR 00EA
ENCODING 234
SWIDTH 495 0
DWIDTH 33 0
BBX 27 47 3 -1
BITMAP
00020000
00070000
000F8000
001FC000
003FE000
007FF000
007DF000
00F8F800
01F07C00
01E03C00
00C01800
00000000
00000000
00000000
000F0000
00FFF000
01FFFC00
07FFFE00
0FFFFF00
1FE07F80
3F801F80
3F000FC0
7E0007C0
7E0007E0
7C0007E0
FC0003E0
FC0003E0
F80003E0
FFFFFFE0
FFFFFFE0
FFFFFFE0
FFFFFFE0
F8000000
F8000000
FC000000
FC000000
FC000000
7E000000
7F000000
3F800000
3FC00080
1FF81F80
0FFFFF80
07FFFF80
01FFFF80
007FFF00
0007E000
ENDCHAR
STARTCHAR 00EB
ENCODING 235
SWIDTH 495 0
DWIDTH 33 0
BBX 27 45 3 -1
BITMAP
00C01800
03F03E00
03F07E00
07F07F00
07F07F00
03F07E00
01E03C00
00000000
00000000
00000000
00000000
00000000
000F0000
00FFF000
01FFFC00
07FFFE00
0FFFFF00
1FE07F80
3F801F80
3F000FC0
7E0007C0
7E0007E0
7C0007E0
FC0003E0
FC0003E0
F80003E0
FFFFFFE0
FFFFFFE0
FFFFFFE0
FFFFFFE0
F8000000
F8000000
FC000000
FC000000
FC000000
7E000000
7F000000
3F800000
3FC00080
1FF81F80
0FFFFF80
07FFFF80
01FFFF80
007FFF00
0007E000
ENDCHAR
STARTCHAR 00EC
ENCODING 236
SWIDTH 495 0
DWIDTH 33 0
BBX 26 47 4 -1
BITMAP
01800000
03800000
07C00000
07E00000
03F00000
01F80000
00FC0000
007C0000
003E0000
001E0000
000C0000
00000000
00000000
00000000
00000000
FFFC0000
FFFC0000
FFFC0000
FFFC0000
FFFC0000
007C0000
007C0000
007C0000
007C0000
007C0000
007C0000
007C0000
007C0000
007C0000
007C0000
007C0000
007C0000
007C0000
007C0000
007C0000
007C0000
007C0000
007C0000
007C0000
007E0000
007F0000
003F8780
003FFFC0
001FFFC0
001FFFC0
0007FF80
0000F800
ENDCHAR
STARTCHAR 00ED
ENCODING 237
SWIDTH 495 0
DWIDTH 33 0
BBX 26 47 4 -1
BITMAP
00040000
000E0000
001F0000
003F8000
007F0000
00FE0000
00FC0000
01F80000
03E00000
03C00000
01800000
00000000
00000000
00000000
00000000
FFFC0000
FFFC0000
FFFC0000
FFFC0000
FFFC0000
007C0000
007C0000
007C0000
007C0000
007C0000
007C0000
007C0000
007C0000
007C0000
007C0000
007C0000
007C0000
007C0000
007C0000
007C0000
007C0000
007C0000
007C0000
007C0000
007E0000
007F0000
003F8780
003FFFC0
001FFFC0
001FFFC0
0007FF80
0000F800
ENDCHAR
STARTCHAR 00EE
ENCODING 238
SWIDTH 495 0
DWIDTH 33 0
BBX 26 47 4 -1
BITMAP
00200000
00700000
00F80000
01F80000
03FC0000
07FE0000
0FDF0000
1F8F8000
3F07C000
1E03C000
08018000
00000000
00000000
00000000
00000000
FFFC0000
FFFC0000
FFFC0000
FFFC0000
FFFC0000
007C0000
007C0000
007C0000
007C0000
007C0000
007C0000
007C0000
007C0000
007C0000
007C0000
007C0000
007C0000
007C0000
007C0000
007C0000
007C0000
007C0000
007C0000
007C0000
007E0000
007F0000
003F8780
003FFFC0
001FFFC0
001FFFC0
0007FF80
0000F800
ENDCHAR
STARTCHAR 00EF
ENCODING 239
SWIDTH 495 0
DWIDTH 33 0
BBX 26 45 4 -1
BITMAP
0C018000
3E07E000
7F07E000
7F07E000
7F07E000
3F07E000
3E03C000
00000000
00000000
00000000
00000000
00000000
00000000
FFFC0000
FFFC0000
FFFC0000
FFFC0000
FFFC0000
007C0000
007C0000
007C0000
007C0000
007C0000
007C0000
007C0000
007C0000
007C0000
007C0000
007C0000
007C0000
007C0000
007C0000
007C0000
007C0000
007C0000
007C0000
007C0000
007E0000
007F0000
003F8780
003FFFC0
001FFFC0
001FFFC0
0007FF80
0000F800
ENDCHAR
STARTCHAR 00F0
ENCODING 240
SWIDTH 495 0
DWIDTH 33 0
BBX 27 47 4 -1
BITMAP
00180000
003C0000
007E0000
007F0080
003F87C0
001FFFC0
000FFFE0
000FFF80
003FFC00
01FFF800
01FFF800
00F8FC00
00C0FC00
00007C00
00007E00
00003E00
00003E00
01FE1F00
07FF9F00
0FFFFF00
1FFFFF00
3FF7FF00
3F80FF80
7F003F80
7E001F80
7C001F80
FC001F80
FC001F80
F8001F80
F8001F80
F8001F80
F8001F80
F8001F80
F8001F00
F8001F00
F8001F00
FC003F00
FC003E00
7C007E00
7E007E00
3F00FC00
3F83FC00
1FFFF800
0FFFF000
07FFE000
03FF8000
003C0000
ENDCHAR
STARTCHAR 00F1
ENCODING 241
SWIDTH 495 0
DWIDTH 33 0
BBX 24 44 5 0
BITMAP
000020
03E078
0FFCF8
0FFFF0
1FFFE0
1E1FE0
1C0780
000000
000000
000000
000000
000000
003800
3FFF80
FFFFE0
FFFFF8
FFFFF8
FF07FC
F800FE
F8007E
F8007E
F8003E
F8003F
F8003F
F8003F
F8003F
F8003F
F8003F
F8003F
F8003F
F8003F
F8003F
F8003F
F8003F
F8003F
F8003F
F8003F
F8003F
F8003F
F8003F
F8003F
F8003F
F8003F
F8003F
ENDCHAR
STARTCHAR 00F2
ENCODING 242
SWIDTH 495 0
DWIDTH 33 0
BBX 28 47 3 -1
BITMAP
00180000
00380000
007C0000
007E0000
003F0000
001F8000
000FC000
0007C000
0003E000
0001E000
0000C000
00000000
00000000
00000000
001E0000
00FFE000
03FFF800
07FFFC00
0FFFFE00
1FE0FF00
3F803F80
3F001FC0
7E000FC0
7E0007E0
FC0007E0
FC0007E0
FC0003E0
FC0003E0
F80003F0
F80003F0
F80003F0
F80003F0
F80003F0
FC0003E0
FC0003E0
FC0007E0
FC0007E0
7E0007E0
7E000FC0
3F001FC0
3F803F80
1FE0FF00
0FFFFF00
07FFFE00
03FFF800
00FFE000
001F0000
ENDCHAR
STARTCHAR 00F3
ENCODING 243
SWIDTH 495 0
DWIDTH 33 0
BBX 28 47 3 -1
BITMAP
00008000
0001C000
0003E000
0007F000
0007E000
000FC000
001F8000
003F0000
007E0000
007C0000
00180000
00000000
00000000
00000000
001E0000
00FFE000
03FFF800
07FFFC00
0FFFFE00
1FE0FF00
3F803F80
3F001FC0
7E000FC0
7E0007E0
FC0007E0
FC0007E0
FC0003E0
FC0003E0
F80003F0
F80003F0
F80003F0
F80003F0
F80003F0
FC0003E0
FC0003E0
FC0007E0
FC0007E0
7E0007E0
7E000FC0
3F001FC0
3F803F80
1FE0FF00
0FFFFF00
07FFFE00
03FFF800
00FFE000
001F0000
ENDCHAR
STARTCHAR 00F4
ENCODING 244
SWIDTH 495 0
DWIDTH 33 0
BBX 28 47 3 -1
BITMAP
00040000
000E0000
001F0000
001F8000
003FC000
007FE000
00FBF000
01F1F800
03E0FC00
03C07800
01801000
00000000
00000000
00000000
001E0000
00FFE000
03FFF800
07FFFC00
0FFFFE00
1FE0FF00
3F803F80
3F001FC0
7E000FC0
7E0007E0
FC0007E0
FC0007E0
FC0003E0
FC0003E0
F80003F0
F80003F0
F80003F0
F80003F0
F80003F0
FC0003E0
FC0003E0
FC0007E0
FC0007E0
7E0007E0
7E000FC0
3F001FC0
3F803F80
1FE0FF00
0FFFFF00
07FFFE00
03FFF800
00FFE000
001F0000
ENDCHAR
STARTCHAR 00F5
ENCODING 245
SWIDTH 495 0
DWIDTH 33 0
BBX 28 45 3 -1
BITMAP
00000800
00F81E00
03FF3E00
03FFFC00
07FFF800
0787F800
0701E000
00000000
00000000
00000000
00000000
00000000
001E0000
00FFE000
03FFF800
07FFFC00
0FFFFE00
1FE0FF00
3F803F80
3F001FC0
7E000FC0
7E0007E0
FC0007E0
FC0007E0
FC0003E0
FC0003E0
F80003F0
F80003F0
F80003F0
F80003F0
F80003F0
FC0003E0
FC0003E0
FC0007E0
FC0007E0
7E0007E0
7E000FC0
3F001FC0
3F803F80
1FE0FF00
0FFFFF00
07FFFE00
03FFF800
00FFE000
001F0000
ENDCHAR
STARTCHAR 00F6
ENCODING 246
SWIDTH 495 0
DWIDTH 33 0
BBX 28 45 3 -1
BITMAP
01803000
07E07C00
07E0FE00
07E0FE00
07E0FE00
07E0FC00
03C07C00
00000000
00000000
00000000
00000000
00000000
001E0000
00FFE000
03FFF800
07FFFC00
0FFFFE00
1FE0FF00
3F803F80
3F001FC0
7E000FC0
7E0007E0
FC0007E0
FC0007E0
FC0003E0
FC0003E0
F80003F0
F80003F0
F80003F0
F80003F0
F80003F0
FC0003E0
FC0003E0
FC0007E0
FC0007E0
7E0007E0
7E000FC0
3F001FC0
3F803F80
1FE0FF00
0FFFFF00
07FFFE00
03FFF800
00FFE000
001F0000
ENDCHAR
STARTCHAR 00F7
ENCODING 247
SWIDTH 495 0
DWIDTH 33 0
BBX 27 31 3 2
BITMAP
00040000
001F0000
003F8000
003F8000
003FC000
003F8000
003F8000
001F0000
00000000
00000000
00000000
00000000
00000000
FFFFFFE0
FFFFFFE0
FFFFFFE0
FFFFFFE0
FFFFFFE0
00000000
00000000
00000000
00000000
00040000
001F0000
003F8000
003F8000
003FC000
003F8000
003F8000
001F0000
00040000
ENDCHAR
STARTCHAR 00F8
ENCODING 248
SWIDTH 495 0
DWIDTH 33 0
BBX 28 35 3 -2
BITMAP
00000080
001F01C0
00FFE3E0
03FFFBC0
07FFFFC0
0FFFFF80
1FE0FF00
3F803F80
3F003FC0
7E007FC0
7E00FFC0
FC00FFE0
FC01F7E0
FC03E3E0
FC07C3E0
F807C3F0
F80F83F0
F81F03F0
F83E03F0
F83E03F0
F87C03E0
FCF803E0
FCF007E0
FDF007E0
7FE007E0
7FC00FC0
3F801FC0
3F803F80
1FE0FF00
3FFFFF00
3FFFFE00
7FFFF800
F8FFE000
701F0000
30000000
ENDCHAR
STARTCHAR 00F9
ENCODING 249
SWIDTH 495 0
DWIDTH 33 0
BBX 24 47 5 -1
BITMAP
004000
00E000
01F000
03F000
01F800
00FC00
007E00
003F00
001F80
000F00
000600
000000
000000
000000
000000
F8003F
F8003F
F8003F
F8003F
F8003F
F8003F
F8003F
F8003F
F8003F
F8003F
F8003F
F8003F
F8003F
F8003F
F8003F
F8003F
F8003F
F8003F
F8003F
F8003F
F8003F
F8003F
FC003F
FC003F
FE003F
7F003F
7FC0FF
3FFFFF
1FFFFF
0FFFFF
03FFFC
003F00
ENDCHAR
STARTCHAR 00FA
ENCODING 250
SWIDTH 495 0
DWIDTH 33 0
BBX 24 47 5 -1
BITMAP
000200
000700
000F80
001FC0
001F80
003F00
007E00
00FC00
01F800
01F000
006000
000000
000000
000000
000000
F8003F
F8003F
F8003F
F8003F
F8003F
F8003F
F8003F
F8003F
F8003F
F8003F
F8003F
F8003F
F8003F
F8003F
F8003F
F8003F
F8003F
F8003F
F8003F
F8003F
F8003F
F8003F
FC003F
FC003F
FE003F
7F003F
7FC0FF
3FFFFF
1FFFFF
0FFFFF
03FFFC
003F00
ENDCHAR
STARTCHAR 00FB
ENCODING 251
SWIDTH 495 0
DWIDTH 33 0
BBX 24 47 5 -1
BITMAP
001000
003800
007C00
007E00
00FF00
01FF80
03EFC0
07C7E0
0F83F0
0F01E0
060040
000000
000000
000000
000000
F8003F
F8003F
F8003F
F8003F
F8003F
F8003F
F8003F
F8003F
F8003F
F8003F
F8003F
F8003F
F8003F
F8003F
F8003F
F8003F
F8003F
F8003F
F8003F
F8003F
F8003F
F8003F
FC003F
FC003F
FE003F
7F003F
7FC0FF
3FFFFF
1FFFFF
0FFFFF
03FFFC
003F00
ENDCHAR
STARTCHAR 00FC
ENCODING 252
SWIDTH 495 0
DWIDTH 33 0
BBX 24 45 5 -1
BITMAP
0600C0
1F81F0
1F83F8
1F83F8
1F83F8
1F83F0
0F01F0
000000
000000
000000
000000
000000
000000
F8003F
F8003F
F8003F
F8003F
F8003F
F8003F
F8003F
F8003F
F8003F
F8003F
F8003F
F8003F
F8003F
F8003F
F8003F
F8003F
F8003F
F8003F
F8003F
F8003F
F8003F
F8003F
FC003F
FC003F
FE003F
7F003F
7FC0FF
3FFFFF
1FFFFF
0FFFFF
03FFFC
003F00
ENDCHAR
STARTCHAR 00FD
ENCODING 253
SWIDTH 495 0
DWIDTH 33 0
BBX 28 57 3 -11
BITMAP
0000C000
0000E000
0001F000
0003F000
0007E000
000FC000
001F8000
001F0000
003E0000
003C0000
00180000
00000000
00000000
00000000
00000000
FC0003F0
7E0003E0
7E0007E0
7E0007E0
7E0007E0
3F0007C0
3F000FC0
3F000FC0
1F800FC0
1F800F80
1F801F80
0FC01F80
0FC01F00
0FC01F00
07E03F00
07E03E00
03E03E00
03F07E00
03F07C00
01F87C00
01F87C00
00F8F800
00FCF800
007CF800
007FF000
003FF000
003FF000
001FE000
001FE000
000FC000
000FC000
0007C000
000F8000
001F8000
001F0000
003F0000
007E0000
FFFC0000
FFF80000
FFF00000
FFE00000
FF800000
ENDCHAR
STARTCHAR 00FE
ENCODING 254
SWIDTH 495 0
DWIDTH 33 0
BBX 26 57 5 -11
BITMAP
78000000
F8000000
F8000000
F8000000
F8000000
F8000000
F8000000
F8000000
F8000000
F8000000
F8000000
F8000000
F8000000
F8000000
F83C0000
F9FFC000
FFFFF000
FFFFF800
FFFFFC00
FFC3FE00
FE00FE00
F8007F00
F8003F00
F8001F80
F8001F80
F8001F80
F8000F80
F8000F80
F8000FC0
F8000FC0
F8000FC0
F8000FC0
F8000FC0
F8000FC0
F8000F80
F8001F80
F8001F80
F8001F80
F8003F00
F8007F00
FE00FE00
FF83FE00
FFFFFC00
FFFFF800
FFFFF000
FBFFC000
F83E0000
F8000000
F8000000
F8000000
F8000000
F8000000
F8000000
F8000000
F8000000
F8000000
F8000000
ENDCHAR
STARTCHAR 00FF
ENCODING 255
SWIDTH 495 0
DWIDTH 33 0
BBX 28 55 3 -11
BITMAP
00C01800
03F03E00
03F07F00
03F07F00
03F07F00
03F07E00
01E03E00
00000000
00000000
00000000
00000000
00000000
00000000
FC0003F0
7E0003E0
7E0007E0
7E0007E0
7E0007E0
3F0007C0
3F000FC0
3F000FC0
1F800FC0
1F800F80
1F801F80
0FC01F80
0FC01F00
0FC01F00
07E03F00
07E03E00
03E03E00
03F07E00
03F07C00
01F87C00
01F87C00
00F8F800
00FCF800
007CF800
007FF000
003FF000
003FF000
001FE000
001FE000
000FC000
000FC000
0007C000
000F8000
001F8000
001F0000
003F0000
007E0000
FFFC0000
FFF80000
FFF00000
FFE00000
FF800000
ENDCHAR
STARTCHAR 0100
ENCODING 256
SWIDTH 495 0
DWIDTH 33 0
BBX 32 52 1 0
BITMAP
01FFFF00
01FFFF00
01FFFF00
01FFFF00
01FFFF00
00000000
00000000
00000000
00000000
00000000
00000000
000FE000
000FF000
001FF000
001FF800
001FF800
003EF800
003EFC00
007E7C00
007C7C00
007C7E00
00FC3E00
00F83E00
00F83F00
01F81F00
01F01F00
01F01F80
01F00F80
03E00F80
03E00FC0
03E007C0
07C007C0
07C007C0
07C007E0
0F8003E0
0F8003E0
0F8003F0
1FFFFFF0
1FFFFFF0
1FFFFFF0
1FFFFFF8
3F0000F8
3E0000F8
3E0000F8
3E0000FC
7E0000FC
7C00007C
7C00007E
FC00007E
FC00007E
FC00003E
F800003F
ENDCHAR
STARTCHAR 0101
ENCODING 257
SWIDTH 495 0
DWIDTH 33 0
BBX 25 43 4 -1
BITMAP
07FFFC00
07FFFC00
07FFFC00
07FFFC00
00000000
00000000
00000000
00000000
00000000
00000000
003E0000
1FFFE000
1FFFF800
1FFFFC00
1FFFFE00
0E01FF00
00007F00
00003F00
00001F00
00001F80
00001F80
00001F80
00001F80
007F9F80
03FFFF80
0FFFFF80
1FFFFF80
3FFFFF80
7F801F80
FE001F80
FC001F80
FC001F80
FC001F80
FC001F80
FC001F80
FC001F80
FE001F80
7F801F80
7FFFFF80
3FFFFF80
0FFFFF80
03FFFF80
001F0000
ENDCHAR
STARTCHAR 0102
ENCODING 258
SWIDTH 495 0
DWIDTH 33 0
BBX 32 54 1 0
BITMAP
00E00F00
00F00F00
00F01E00
00F81E00
007FFE00
007FFC00
003FF800
000FF000
00000000
00000000
00000000
00000000
00000000
000FE000
000FF000
001FF000
001FF800
001FF800
003EF800
003EFC00
007E7C00
007C7C00
007C7E00
00FC3E00
00F83E00
00F83F00
01F81F00
01F01F00
01F01F80
01F00F80
03E00F80
03E00FC0
03E007C0
07C007C0
07C007C0
07C007E0
0F8003E0
0F8003E0
0F8003F0
1FFFFFF0
1FFFFFF0
1FFFFFF0
1FFFFFF8
3F0000F8
3E0000F8
3E0000F8
3E0000FC
7E0000FC
7C00007C
7C00007E
FC00007E
FC00007E
FC00003E
F800003F
ENDCHAR
STARTCHAR 0103
ENCODING 259
SWIDTH 495 0
DWIDTH 33 0
BBX 25 46 4 -1
BITMAP
07007800
07807800
0780F000
07C0F000
07F7F000
03FFE000
01FFC000
00FF8000
001C0000
00000000
00000000
00000000
00000000
003E0000
1FFFE000
1FFFF800
1FFFFC00
1FFFFE00
0E01FF00
00007F00
00003F00
00001F00
00001F80
00001F80
00001F80
00001F80
007F9F80
03FFFF80
0FFFFF80
1FFFFF80
3FFFFF80
7F801F80
FE001F80
FC001F80
FC001F80
FC001F80
FC001F80
FC001F80
FC001F80
FE001F80
7F801F80
7FFFFF80
3FFFFF80
0FFFFF80
03FFFF80
001F0000
ENDCHAR
STARTCHAR 0104
ENCODING 260
SWIDTH 495 0
DWIDTH 33 0
BBX 32 52 1 -11
BITMAP
000FE000
000FF000
001FF000
001FF800
001FF800
003EF800
003EFC00
007E7C00
007C7C00
007C7E00
00FC3E00
00F83E00
00F83F00
01F81F00
01F01F00
01F01F80
01F00F80
03E00F80
03E00FC0
03E007C0
07C007C0
07C007C0
07C007E0
0F8003E0
0F8003E0
0F8003F0
1FFFFFF0
1FFFFFF0
1FFFFFF0
1FFFFFF8
3F0000F8
3E0000F8
3E0000F8
3E0000FC
7E0000FC
7C00007C
7C00007E
FC00007E
FC00007E
FC00003E
F800003F
0000003E
00000078
000000F0
000001F0
000003E0
000003E0
000003E0
000003FF
000003FF
000001FF
000000FF
ENDCHAR
STARTCHAR 0105
ENCODING 261
SWIDTH 495 0
DWIDTH 33 0
BBX 25 43 4 -11
BITMAP
003E0000
1FFFE000
1FFFF800
1FFFFC00
1FFFFE00
0E01FF00
00007F00
00003F00
00001F00
00001F80
00001F80
00001F80
00001F80
007F9F80
03FFFF80
0FFFFF80
1FFFFF80
3FFFFF80
7F801F80
FE001F80
FC001F80
FC001F80
FC001F80
FC001F80
FC001F80
FC001F80
FE001F80
7F801F80
7FFFFF80
3FFFFF80
0FFFFF80
03FFFF80
001FFE00
00007C00
0000F800
0001F800
0001F000
0001F000
0003F000
0003FF80
0001FF80
0001FF80
00007F80
ENDCHAR
STARTCHAR 0106
ENCODING 262
SWIDTH 495 0
DWIDTH 33 0
BBX 27 56 3 -1
BITMAP
00001000
00003800
00007C00
0000FE00
0000FC00
0001F800
0003F000
0007E000
000FC000
00078000
00030000
00000000
00000000
0007FC00
003FFF80
00FFFFE0
01FFFFE0
03FFFFE0
07F803C0
0FF000C0
0FC00000
1F800000
3F800000
3F000000
3F000000
7E000000
7E000000
7E000000
7C000000
FC000000
FC000000
FC000000
FC000000
FC000000
FC000000
FC000000
FC000000
FC000000
FC000000
FC000000
7C000000
7C000000
7E000000
7E000000
3F000000
3F000000
3F800000
1FC00000
1FE00000
0FF00040
07FC03E0
03FFFFE0
01FFFFE0
00FFFFE0
003FFF80
0007F800
ENDCHAR
STARTCHAR 0107
ENCODING 263
SWIDTH 495 0
DWIDTH 33 0
BBX 27 47 3 -1
BITMAP
00003000
00003800
00007C00
0000FC00
0001F800
0003F000
0007E000
0007C000
000F8000
000F0000
00060000
00000000
00000000
00000000
0001F800
003FFFC0
00FFFFC0
03FFFFC0
07FFFFC0
0FFE03C0
1FE00000
1FC00000
3F800000
3F000000
7E000000
7E000000
7C000000
FC000000
FC000000
FC000000
FC000000
FC000000
FC000000
FC000000
7C000000
7E000000
7E000000
7F000000
3F800000
3FC00000
1FE00000
0FFE03C0
07FFFFE0
03FFFFE0
00FFFFE0
003FFFC0
0003FC00
ENDCHAR
STARTCHAR 0108
ENCODING 264
SWIDTH 495 0
DWIDTH 33 0
BBX 27 56 3 -1
BITMAP
00004000
0000E000
0001F000
0003F800
0007FC00
000FFE00
001FBE00
003E1F00
007C0F80
00380700
00100300
00000000
00000000
0007FC00
003FFF80
00FFFFE0
01FFFFE0
03FFFFE0
07F803C0
0FF000C0
0FC00000
1F800000
3F800000
3F000000
3F000000
7E000000
7E000000
7E000000
7C000000
FC000000
FC000000
FC000000
FC000000
FC000000
FC000000
FC000000
FC000000
FC000000
FC000000
FC000000
7C000000
7C000000
7E000000
7E000000
3F000000
3F000000
3F800000
1FC00000
1FE00000
0FF00040
07FC03E0
03FFFFE0
01FFFFE0
00FFFFE0
003FFF80
0007F800
ENDCHAR
STARTCHAR 0109
ENCODING 265
SWIDTH 495 0
DWIDTH 33 0
BBX 27 46 3 0
BITMAP
0000C000
0001E000
0003F000
0007F800
000FFC00
001FFE00
003E1F00
007C0F80
00380700
00300300
00000000
00000000
00000000
0001F800
003FFFC0
00FFFFC0
03FFFFC0
07FFFFC0
0FFE03C0
1FE00000
1FC00000
3F800000
3F000000
7E000000
7E000000
7C000000
FC000000
FC000000
FC000000
FC000000
FC000000
FC000000
FC000000
7C000000
7E000000
7E000000
7F000000
3F800000
3FC00000
1FE00000
0FFE03C0
07FFFFE0
03FFFFE0
00FFFFE0
003FFFC0
0003FC00
ENDCHAR
STARTCHAR 010A
ENCODING 266
SWIDTH 495 0
DWIDTH 33 0
BBX 27 54 3 -1
BITMAP
0001F000
0003F800
0007F800
0007F800
0007F800
0003F800
0003F000
00004000
00000000
00000000
00000000
0007FC00
003FFF80
00FFFFE0
01FFFFE0
03FFFFE0
07F803C0
0FF000C0
0FC00000
1F800000
3F800000
3F000000
3F000000
7E000000
7E000000
7E000000
7C000000
FC000000
FC000000
FC000000
FC000000
FC000000
FC000000
FC000000
FC000000
FC000000
FC000000
FC000000
7C000000
7C000000
7E000000
7E000000
3F000000
3F000000
3F800000
1FC00000
1FE00000
0FF00040
07FC03E0
03FFFFE0
01FFFFE0
00FFFFE0
003FFF80
0007F800
ENDCHAR
STARTCHAR 010B
ENCODING 267
SWIDTH 495 0
DWIDTH 33 0
BBX 27 45 3 -1
BITMAP
0001F000
0003F800
0007F800
0007F800
0007F800
0003F800
0003F000
0001E000
00000000
00000000
00000000
00000000
0001F800
003FFFC0
00FFFFC0
03FFFFC0
07FFFFC0
0FFE03C0
1FE00000
1FC00000
3F800000
3F000000
7E000000
7E000000
7C000000
FC000000
FC000000
FC000000
FC000000
FC000000
FC000000
FC000000
7C000000
7E000000
7E000000
7F000000
3F800000
3FC00000
1FE00000
0FFE03C0
07FFFFE0
03FFFFE0
00FFFFE0
003FFFC0
0003FC00
ENDCHAR
STARTCHAR 010C
ENCODING 268
SWIDTH 495 0
DWIDTH 33 0
BBX 27 56 3 -1
BITMAP
00100300
00380780
007E0F80
003F1F00
001FBE00
000FFC00
0007F800
0003F000
0001F000
0000E000
00004000
00000000
00000000
0007FC00
003FFF80
00FFFFE0
01FFFFE0
03FFFFE0
07F803C0
0FF000C0
0FC00000
1F800000
3F800000
3F000000
3F000000
7E000000
7E000000
7E000000
7C000000
FC000000
FC000000
FC000000
FC000000
FC000000
FC000000
FC000000
FC000000
FC000000
FC000000
FC000000
7C000000
7C000000
7E000000
7E000000
3F000000
3F000000
3F800000
1FC00000
1FE00000
0FF00040
07FC03E0
03FFFFE0
01FFFFE0
00FFFFE0
003FFF80
0007F800
ENDCHAR
STARTCHAR 010D
ENCODING 269
SWIDTH 495 0
DWIDTH 33 0
BBX 27 47 3 -1
BITMAP
00100200
00380700
007C0F80
003E1F00
001F3E00
000FFC00
0007F800
0003F000
0001E000
0001E000
0000C000
00000000
00000000
00000000
0001F800
003FFFC0
00FFFFC0
03FFFFC0
07FFFFC0
0FFE03C0
1FE00000
1FC00000
3F800000
3F000000
7E000000
7E000000
7C000000
FC000000
FC000000
FC000000
FC000000
FC000000
FC000000
FC000000
7C000000
7E000000
7E000000
7F000000
3F800000
3FC00000
1FE00000
0FFE03C0
07FFFFE0
03FFFFE0
00FFFFE0
003FFFC0
0003FC00
ENDCHAR
STARTCHAR 010E
ENCODING 270
SWIDTH 495 0
DWIDTH 33 0
BBX 27 55 4 0
BITMAP
08018000
1E03C000
3F07C000
1F8F8000
0FDF0000
07FE0000
03FC0000
01FC0000
00F80000
00700000
00200000
00000000
00000000
07C00000
FFFE0000
FFFFC000
FFFFE000
FFFFF800
F80FFC00
F801FC00
F800FE00
F8007F00
F8003F00
F8001F80
F8001F80
F8000FC0
F8000FC0
F8000FC0
F80007C0
F80007C0
F80007C0
F80007E0
F80007E0
F80007E0
F80007E0
F80007E0
F80007E0
F80007E0
F80007C0
F80007C0
F8000FC0
F8000FC0
F8000FC0
F8000F80
F8001F80
F8001F80
F8003F00
F8007F00
F800FE00
F803FC00
FE3FF800
FFFFF000
FFFFE000
FFFF8000
FFFC0000
ENDCHAR
STARTCHAR 010F
ENCODING 271
SWIDTH 495 0
DWIDTH 33 0
BBX 32 47 1 -1
BITMAP
00001E1F
00003E1F
00003E1F
00003E1F
00003E1F
00003E1F
00003E1F
00003E1E
00003E1E
00003E1E
00003E1E
00003E1E
00003E1E
00003E00
003C3E00
01FFBE00
07FFFE00
0FFFFE00
0FFFFE00
1FE3FE00
3F80FE00
3F003E00
3E003E00
7E003E00
7E003E00
7C003E00
7C003E00
FC003E00
FC003E00
FC003E00
FC003E00
FC003E00
FC003E00
FC003E00
7C003E00
7E003E00
7E003E00
7E003E00
3F003E00
3F003E00
1F803E00
1FE0FE00
0FFFFE00
07FFFE00
03FFFE00
00FFFC00
001F8000
ENDCHAR
STARTCHAR 0110
ENCODING 272
SWIDTH 495 0
DWIDTH 33 0
BBX 30 42 1 0
BITMAP
007C0000
0FFFE000
0FFFF800
0FFFFE00
0FFFFF00
0F80FF80
0F803FC0
0F800FC0
0F8007E0
0F8007E0
0F8003F0
0F8003F0
0F8001F8
0F8001F8
0F8001F8
0F8000F8
0F8000F8
0F8000F8
FFFF00FC
FFFF00FC
FFFF00FC
FFFF00FC
FFFF00FC
0F8000FC
0F8000FC
0F8000F8
0F8000F8
0F8000F8
0F8001F8
0F8001F8
0F8001F0
0F8003F0
0F8003F0
0F8007E0
0F800FE0
0F801FC0
0F803F80
0FC7FF80
0FFFFF00
0FFFFC00
0FFFF800
07FFC000
ENDCHAR
STARTCHAR 0111
ENCODING 273
SWIDTH 495 0
DWIDTH 33 0
BBX 29 47 3 -1
BITMAP
00000780
00001F80
00001F80
00001F80
00001F80
01FFFFF8
01FFFFF8
01FFFFF8
01FFFFF8
00001F80
00001F80
00001F80
00001F80
00001F80
001E1F80
01FFDF80
03FFFF80
0FFFFF80
1FFFFF80
1FE1FF80
3F803F80
7F001F80
7E001F80
7E001F80
FC001F80
FC001F80
FC001F80
FC001F80
F8001F80
F8001F80
F8001F80
F8001F80
F8001F80
FC001F80
FC001F80
FC001F80
FC001F80
7E001F80
7E001F80
3F001F80
3FC01F80
1FF03F80
0FFFFF80
07FFFF80
03FFFF80
00FFFE00
001FC000
ENDCHAR
STARTCHAR 0112
ENCODING 274
SWIDTH 495 0
DWIDTH 33 0
BBX 25 52 6 0
BITMAP
1FFFF000
1FFFF000
1FFFF000
1FFFF000
1FFFF000
00000000
00000000
00000000
00000000
00000000
00000000
FFFFFE00
FFFFFE00
FFFFFE00
FFFFFE00
FC000000
FC000000
FC000000
FC000000
FC000000
FC000000
FC000000
FC000000
FC000000
FC000000
FC000000
FC000000
FC000000
FFFFF800
FFFFF800
FFFFF800
FFFFF800
FFFFF800
FC000000
FC000000
FC000000
FC000000
FC000000
FC000000
FC000000
FC000000
FC000000
FC000000
FC000000
FC000000
FC000000
FC000000
FFFFFF80
FFFFFF80
FFFFFF80
FFFFFF80
FFFFFF80
ENDCHAR
STARTCHAR 0113
ENCODING 275
SWIDTH 495 0
DWIDTH 33 0
BBX 27 43 3 -1
BITMAP
03FFFE00
03FFFE00
03FFFE00
03FFFE00
00000000
00000000
00000000
00000000
00000000
00000000
000F0000
00FFF000
01FFFC00
07FFFE00
0FFFFF00
1FE07F80
3F801F80
3F000FC0
7E0007C0
7E0007E0
7C0007E0
FC0003E0
FC0003E0
F80003E0
FFFFFFE0
FFFFFFE0
FFFFFFE0
FFFFFFE0
F8000000
F8000000
FC000000
FC000000
FC000000
7E000000
7F000000
3F800000
3FC00080
1FF81F80
0FFFFF80
07FFFF80
01FFFF80
007FFF00
0007E000
ENDCHAR
STARTCHAR 0114
ENCODING 276
SWIDTH 495 0
DWIDTH 33 0
BBX 25 54 6 0
BITMAP
0F00F000
0F00F000
0F00F000
0F81E000
07FFE000
07FFC000
03FF8000
00FF0000
00000000
00000000
00000000
00000000
00000000
FFFFFE00
FFFFFE00
FFFFFE00
FFFFFE00
FC000000
FC000000
FC000000
FC000000
FC000000
FC000000
FC000000
FC000000
FC000000
FC000000
FC000000
FC000000
FC000000
FFFFF800
FFFFF800
FFFFF800
FFFFF800
FFFFF800
FC000000
FC000000
FC000000
FC000000
FC000000
FC000000
FC000000
FC000000
FC000000
FC000000
FC000000
FC000000
FC000000
FC000000
FFFFFF80
FFFFFF80
FFFFFF80
FFFFFF80
FFFFFF80
ENDCHAR
STARTCHAR 0115
ENCODING 277
SWIDTH 495 0
DWIDTH 33 0
BBX 27 46 3 -1
BITMAP
03C01C00
03C03C00
03C03C00
01E07C00
01F9F800
00FFF800
007FF000
003FE000
000F0000
00000000
00000000
00000000
00000000
000F0000
00FFF000
01FFFC00
07FFFE00
0FFFFF00
1FE07F80
3F801F80
3F000FC0
7E0007C0
7E0007E0
7C0007E0
FC0003E0
FC0003E0
F80003E0
FFFFFFE0
FFFFFFE0
FFFFFFE0
FFFFFFE0
F8000000
F8000000
FC000000
FC000000
FC000000
7E000000
7F000000
3F800000
3FC00080
1FF81F80
0FFFFF80
07FFFF80
01FFFF80
007FFF00
0007E000
ENDCHAR
STARTCHAR 0116
ENCODING 278
SWIDTH 495 0
DWIDTH 33 0
BBX 25 53 6 0
BITMAP
007E0000
007F0000
00FF0000
00FF0000
00FF0000
007F0000
007E0000
00080000
00000000
00000000
00000000
00000000
FFFFFE00
FFFFFE00
FFFFFE00
FFFFFE00
FC000000
FC000000
FC000000
FC000000
FC000000
FC000000
FC000000
FC000000
FC000000
FC000000
FC000000
FC000000
FC000000
FFFFF800
FFFFF800
FFFFF800
FFFFF800
FFFFF800
FC000000
FC000000
FC000000
FC000000
FC000000
FC000000
FC000000
FC000000
FC000000
FC000000
FC000000
FC000000
FC000000
FC000000
FFFFFF80
FFFFFF80
FFFFFF80
FFFFFF80
FFFFFF80
ENDCHAR
STARTCHAR 0117
ENCODING 279
SWIDTH 495 0
DWIDTH 33 0
BBX 27 45 3 -1
BITMAP
000F8000
001FC000
003FC000
003FC000
003FC000
001FC000
001F8000
000F0000
00000000
00000000
00000000
00000000
000F0000
00FFF000
01FFFC00
07FFFE00
0FFFFF00
1FE07F80
3F801F80
3F000FC0
7E0007C0
7E0007E0
7C0007E0
FC0003E0
FC0003E0
F80003E0
FFFFFFE0
FFFFFFE0
FFFFFFE0
FFFFFFE0
F8000000
F8000000
FC000000
FC000000
FC000000
7E000000
7F000000
3F800000
3FC00080
1FF81F80
0FFFFF80
07FFFF80
01FFFF80
007FFF00
0007E000
ENDCHAR
STARTCHAR 0118
ENCODING 280
SWIDTH 495 0
DWIDTH 33 0
BBX 25 52 6 -11
BITMAP
FFFFFE00
FFFFFE00
FFFFFE00
FFFFFE00
FC000000
FC000000
FC000000
FC000000
FC000000
FC000000
FC000000
FC000000
FC000000
FC000000
FC000000
FC000000
FC000000
FFFFF800
FFFFF800
FFFFF800
FFFFF800
FFFFF800
FC000000
FC000000
FC000000
FC000000
FC000000
FC000000
FC000000
FC000000
FC000000
FC000000
FC000000
FC000000
FC000000
FC000000
FFFFFF80
FFFFFF80
FFFFFF80
FFFFFF80
FFFFFF80
00003F00
00007C00
0000F800
0000F000
0001F000
0001F000
0001F000
0001FF80
0001FF80
0000FF80
00007F80
ENDCHAR
STARTCHAR 0119
ENCODING 281
SWIDTH 495 0
DWIDTH 33 0
BBX 27 43 3 -11
BITMAP
000F0000
00FFF000
01FFFC00
07FFFE00
0FFFFF00
1FE07F80
3F801F80
3F000FC0
7E0007C0
7E0007E0
7C0007E0
FC0003E0
FC0003E0
F80003E0
FFFFFFE0
FFFFFFE0
FFFFFFE0
FFFFFFE0
F8000000
F8000000
FC000000
FC000000
FC000000
7E000000
7F000000
3F800000
3FC00080
1FF81F80
0FFFFF80
07FFFF80
01FFFF80
007FFF80
0007FE00
00007C00
0000F800
0001F000
0001F000
0003E000
0003F000
0003FF00
0003FF00
0001FF00
00007F00
ENDCHAR
STARTCHAR 011A
ENCODING 282
SWIDTH 495 0
DWIDTH 33 0
BBX 25 55 6 0
BITMAP
03006000
0780F000
07C1F000
07E3E000
03F7E000
01FFC000
00FF8000
007F0000
003E0000
001C0000
00080000
00000000
00000000
00000000
FFFFFE00
FFFFFE00
FFFFFE00
FFFFFE00
FC000000
FC000000
FC000000
FC000000
FC000000
FC000000
FC000000
FC000000
FC000000
FC000000
FC000000
FC000000
FC000000
FFFFF800
FFFFF800
FFFFF800
FFFFF800
FFFFF800
FC000000
FC000000
FC000000
FC000000
FC000000
FC000000
FC000000
FC000000
FC000000
FC000000
FC000000
FC000000
FC000000
FC000000
FFFFFF80
FFFFFF80
FFFFFF80
FFFFFF80
FFFFFF80
ENDCHAR
STARTCHAR 011B
ENCODING 283
SWIDTH 495 0
DWIDTH 33 0
BBX 27 47 3 -1
BITMAP
00801800
01C03800
03E07C00
01F0F800
00F9F800
007FF000
003FE000
001FC000
000F8000
00070000
00020000
00000000
00000000
00000000
000F0000
00FFF000
01FFFC00
07FFFE00
0FFFFF00
1FE07F80
3F801F80
3F000FC0
7E0007C0
7E0007E0
7C0007E0
FC0003E0
FC0003E0
F80003E0
FFFFFFE0
FFFFFFE0
FFFFFFE0
FFFFFFE0
F8000000
F8000000
FC000000
FC000000
FC000000
7E000000
7F000000
3F800000
3FC00080
1FF81F80
0FFFFF80
07FFFF80
01FFFF80
007FFF00
0007E000
ENDCHAR
STARTCHAR 011C
ENCODING 284
SWIDTH 495 0
DWIDTH 33 0
BBX 27 56 3 -1
BITMAP
00008000
0001C000
0003E000
0007F000
000FF800
001FFC00
003F7E00
003E3F00
007C0F80
00780700
00300200
00000000
00000000
000FFE00
003FFF80
00FFFFE0
01FFFFE0
03FFFFE0
07F803C0
0FE000C0
0FC00000
1F800000
3F800000
3F000000
3F000000
7E000000
7E000000
7E000000
7C000000
FC000000
FC000000
FC000000
FC000000
FC000000
FC000000
FC0003E0
FC0003E0
FC0003E0
FC0003E0
FC0003E0
7C0003E0
7E0003E0
7E0003E0
7E0003E0
3F0003E0
3F0003E0
3F8003E0
1F8003E0
1FC003E0
0FF003E0
07FC07E0
03FFFFE0
01FFFFE0
00FFFFE0
003FFFC0
0007FC00
ENDCHAR
STARTCHAR 011D
ENCODING 285
SWIDTH 495 0
DWIDTH 33 0
BBX 26 57 3 -11
BITMAP
00040000
000E0000
001F0000
001F8000
003FC000
007FE000
00FBF000
01F1F800
03E0FC00
03C07800
01801000
00000000
00000000
00000000
000FC000
00FFFF00
03FFFFC0
07FFFFC0
0FFFFFC0
1FF03FC0
3F800FC0
3F000FC0
7E000FC0
7E000FC0
FC000FC0
FC000FC0
FC000FC0
F8000FC0
F8000FC0
F8000FC0
F8000FC0
F8000FC0
F8000FC0
FC000FC0
FC000FC0
FC000FC0
7E000FC0
7F000FC0
3F801FC0
3FC07FC0
1FFFFFC0
0FFFFFC0
07FFFFC0
01FFEFC0
007F0FC0
00000FC0
00000F80
00000F80
00001F80
00001F80
00003F00
3800FF00
3FFFFE00
3FFFFE00
7FFFF800
7FFFF000
0FFF8000
ENDCHAR
STARTCHAR 011E
ENCODING 286
SWIDTH 495 0
DWIDTH 33 0
BBX 27 55 3 -1
BITMAP
00780380
00780780
007C0780
003C0F80
003FFF00
001FFF00
000FFE00
0007F800
00000000
00000000
00000000
00000000
000FFE00
003FFF80
00FFFFE0
01FFFFE0
03FFFFE0
07F803C0
0FE000C0
0FC00000
1F800000
3F800000
3F000000
3F000000
7E000000
7E000000
7E000000
7C000000
FC000000
FC000000
FC000000
FC000000
FC000000
FC000000
FC0003E0
FC0003E0
FC0003E0
FC0003E0
FC0003E0
7C0003E0
7E0003E0
7E0003E0
7E0003E0
3F0003E0
3F0003E0
3F8003E0
1F8003E0
1FC003E0
0FF003E0
07FC07E0
03FFFFE0
01FFFFE0
00FFFFE0
003FFFC0
0007FC00
ENDCHAR
STARTCHAR 011F
ENCODING 287
SWIDTH 495 0
DWIDTH 33 0
BBX 26 56 3 -11
BITMAP
03803C00
03C03C00
03C07800
03E07800
03FBF800
01FFF000
00FFE000
007FC000
000E0000
00000000
00000000
00000000
00000000
000FC000
00FFFF00
03FFFFC0
07FFFFC0
0FFFFFC0
1FF03FC0
3F800FC0
3F000FC0
7E000FC0
7E000FC0
FC000FC0
FC000FC0
FC000FC0
F8000FC0
F8000FC0
F8000FC0
F8000FC0
F8000FC0
F8000FC0
FC000FC0
FC000FC0
FC000FC0
7E000FC0
7F000FC0
3F801FC0
3FC07FC0
1FFFFFC0
0FFFFFC0
07FFFFC0
01FFEFC0
007F0FC0
00000FC0
00000F80
00000F80
00001F80
00001F80
00003F00
3800FF00
3FFFFE00
3FFFFE00
7FFFF800
7FFFF000
0FFF8000
ENDCHAR
STARTCHAR 0120
ENCODING 288
SWIDTH 495 0
DWIDTH 33 0
BBX 27 54 3 -1
BITMAP
0003E000
0007F000
0007F800
0007F800
0007F800
0007F000
0003F000
00008000
00000000
00000000
00000000
000FFE00
003FFF80
00FFFFE0
01FFFFE0
03FFFFE0
07F803C0
0FE000C0
0FC00000
1F800000
3F800000
3F000000
3F000000
7E000000
7E000000
7E000000
7C000000
FC000000
FC000000
FC000000
FC000000
FC000000
FC000000
FC0003E0
FC0003E0
FC0003E0
FC0003E0
FC0003E0
7C0003E0
7E0003E0
7E0003E0
7E0003E0
3F0003E0
3F0003E0
3F8003E0
1F8003E0
1FC003E0
0FF003E0
07FC07E0
03FFFFE0
01FFFFE0
00FFFFE0
003FFFC0
0007FC00
ENDCHAR
STARTCHAR 0121
ENCODING 289
SWIDTH 495 0
DWIDTH 33 0
BBX 26 55 3 -11
BITMAP
001F0000
003F8000
003F8000
003FC000
003FC000
003F8000
001F8000
000E0000
00000000
00000000
00000000
00000000
000FC000
00FFFF00
03FFFFC0
07FFFFC0
0FFFFFC0
1FF03FC0
3F800FC0
3F000FC0
7E000FC0
7E000FC0
FC000FC0
FC000FC0
FC000FC0
F8000FC0
F8000FC0
F8000FC0
F8000FC0
F8000FC0
F8000FC0
FC000FC0
FC000FC0
FC000FC0
7E000FC0
7F000FC0
3F801FC0
3FC07FC0
1FFFFFC0
0FFFFFC0
07FFFFC0
01FFEFC0
007F0FC0
00000FC0
00000F80
00000F80
00001F80
00001F80
00003F00
3800FF00
3FFFFE00
3FFFFE00
7FFFF800
7FFFF000
0FFF8000
ENDCHAR
STARTCHAR 0122
ENCODING 290
SWIDTH 495 0
DWIDTH 33 0
BBX 27 53 3 -11
BITMAP
000FFE00
003FFF80
00FFFFE0
01FFFFE0
03FFFFE0
07F803C0
0FE000C0
0FC00000
1F800000
3F800000
3F000000
3F000000
7E000000
7E000000
7E000000
7C000000
FC000000
FC000000
FC000000
FC000000
FC000000
FC000000
FC0003E0
FC0003E0
FC0003E0
FC0003E0
FC0003E0
7C0003E0
7E0003E0
7E0003E0
7E0003E0
3F0003E0
3F0003E0
3F8003E0
1F8003E0
1FC003E0
0FF003E0
07FC07E0
03FFFFE0
01FFFFE0
00FFFFE0
003FFFC0
0007FC00
00000000
00000000
0003E000
0003F000
0003E000
0003E000
000FE000
003FE000
003FC000
003F0000
ENDCHAR
STARTCHAR 0123
ENCODING 291
SWIDTH 495 0
DWIDTH 33 0
BBX 26 57 3 -11
BITMAP
0001C000
0003E000
0007E000
000FC000
001F8000
001F8000
001F0000
001F0000
001F0000
001F0000
00000000
00000000
00000000
00000000
000FC000
00FFFF00
03FFFFC0
07FFFFC0
0FFFFFC0
1FF03FC0
3F800FC0
3F000FC0
7E000FC0
7E000FC0
FC000FC0
FC000FC0
FC000FC0
F8000FC0
F8000FC0
F8000FC0
F8000FC0
F8000FC0
F8000FC0
FC000FC0
FC000FC0
FC000FC0
7E000FC0
7F000FC0
3F801FC0
3FC07FC0
1FFFFFC0
0FFFFFC0
07FFFFC0
01FFEFC0
007F0FC0
00000FC0
00000F80
00000F80
00001F80
00001F80
00003F00
3800FF00
3FFFFE00
3FFFFE00
7FFFF800
7FFFF000
0FFF8000
ENDCHAR
STARTCHAR 0124
ENCODING 292
SWIDTH 495 0
DWIDTH 33 0
BBX 27 55 3 0
BITMAP
00040000
000E0000
001F0000
003F8000
007FC000
00FFE000
01FBF000
01F1F800
03E07C00
03C03800
01801000
00000000
00000000
00000000
F80003E0
F80003E0
F80003E0
F80003E0
F80003E0
F80003E0
F80003E0
F80003E0
F80003E0
F80003E0
F80003E0
F80003E0
F80003E0
F80003E0
F80003E0
F80003E0
F80003E0
FFFFFFE0
FFFFFFE0
FFFFFFE0
FFFFFFE0
FFFFFFE0
F80003E0
F80003E0
F80003E0
F80003E0
F80003E0
F80003E0
F80003E0
F80003E0
F80003E0
F80003E0
F80003E0
F80003E0
F80003E0
F80003E0
F80003E0
F80003E0
F80003E0
F80003E0
F80003E0
ENDCHAR
STARTCHAR 0125
ENCODING 293
SWIDTH 495 0
DWIDTH 33 0
BBX 26 55 3 0
BITMAP
03000000
07C00000
0FE00000
3FF00000
7EFC0000
F87C0000
701C0000
40080000
00000000
00000000
3E000000
3E000000
3E000000
3E000000
3E000000
3E000000
3E000000
3E000000
3E000000
3E000000
3E000000
3E000000
3E000000
3E0F0000
3FFFF000
3FFFF800
3FFFFC00
3FFFFE00
3FE1FF00
3E003F00
3E001F80
3E001F80
3E000F80
3E000FC0
3E000FC0
3E000FC0
3E000FC0
3E000FC0
3E000FC0
3E000FC0
3E000FC0
3E000FC0
3E000FC0
3E000FC0
3E000FC0
3E000FC0
3E000FC0
3E000FC0
3E000FC0
3E000FC0
3E000FC0
3E000FC0
3E000FC0
3E000FC0
3E000FC0
ENDCHAR
STARTCHAR 0126
ENCODING 294
SWIDTH 495 0
DWIDTH 33 0
BBX 31 41 1 0
BITMAP
0F8003F0
0F8003F0
0F8003F0
0F8003F0
0F8003F0
0F8003F0
FFFFFFFE
FFFFFFFE
FFFFFFFE
FFFFFFFE
0F8003F0
0F8003F0
0F8003F0
0F8003F0
0F8003F0
0F8003F0
0F8003F0
0FFFFFF0
0FFFFFF0
0FFFFFF0
0FFFFFF0
0FFFFFF0
0F8003F0
0F8003F0
0F8003F0
0F8003F0
0F8003F0
0F8003F0
0F8003F0
0F8003F0
0F8003F0
0F8003F0
0F8003F0
0F8003F0
0F8003F0
0F8003F0
0F8003F0
0F8003F0
0F8003F0
0F8003F0
0F8003F0
ENDCHAR
STARTCHAR 0127
ENCODING 295
SWIDTH 495 0
DWIDTH 33 0
BBX 28 46 1 0
BITMAP
03C00000
07C00000
07C00000
07C00000
07C00000
FFFFF800
FFFFF800
FFFFF800
FFFFF800
07C00000
07C00000
07C00000
07C00000
07C00000
07C3C000
07FFFC00
07FFFE00
07FFFF80
07FFFF80
07FC3FC0
07C00FC0
07C007E0
07C007E0
07C003E0
07C003F0
07C003F0
07C003F0
07C003F0
07C003F0
07C003F0
07C003F0
07C003F0
07C003F0
07C003F0
07C003F0
07C003F0
07C003F0
07C003F0
07C003F0
07C003F0
07C003F0
07C003F0
07C003F0
07C003F0
07C003F0
07C003F0
ENDCHAR
STARTCHAR 0128
ENCODING 296
SWIDTH 495 0
DWIDTH 33 0
BBX 21 53 6 0
BITMAP
030040
0FE0F0
1FFFE0
3FFFE0
3FFFC0
383F80
180E00
000000
000000
000000
000000
000000
FFFFF8
FFFFF8
FFFFF8
FFFFF8
00F800
00F800
00F800
00F800
00F800
00F800
00F800
00F800
00F800
00F800
00F800
00F800
00F800
00F800
00F800
00F800
00F800
00F800
00F800
00F800
00F800
00F800
00F800
00F800
00F800
00F800
00F800
00F800
00F800
00F800
00F800
00F800
FFFFF8
FFFFF8
FFFFF8
FFFFF8
FFFFF8
ENDCHAR
STARTCHAR 0129
ENCODING 297
SWIDTH 495 0
DWIDTH 33 0
BBX 26 44 4 0
BITMAP
0FC0E000
1FF1E000
3FFFE000
3FFFC000
787F8000
381F0000
00000000
00000000
00000000
00000000
00000000
00000000
FFFC0000
FFFC0000
FFFC0000
FFFC0000
FFFC0000
007C0000
007C0000
007C0000
007C0000
007C0000
007C0000
007C0000
007C0000
007C0000
007C0000
007C0000
007C0000
007C0000
007C0000
007C0000
007C0000
007C0000
007C0000
007C0000
007E0000
007F0000
003F8780
003FFFC0
001FFFC0
001FFFC0
0007FF80
0000F800
ENDCHAR
STARTCHAR 012A
ENCODING 298
SWIDTH 495 0
DWIDTH 33 0
BBX 21 52 6 0
BITMAP
3FFFE0
3FFFE0
3FFFE0
3FFFE0
3FFFE0
000000
000000
000000
000000
000000
000000
FFFFF8
FFFFF8
FFFFF8
FFFFF8
00F800
00F800
00F800
00F800
00F800
00F800
00F800
00F800
00F800
00F800
00F800
00F800
00F800
00F800
00F800
00F800
00F800
00F800
00F800
00F800
00F800
00F800
00F800
00F800
00F800
00F800
00F800
00F800
00F800
00F800
00F800
00F800
FFFFF8
FFFFF8
FFFFF8
FFFFF8
FFFFF8
ENDCHAR
STARTCHAR 012B
ENCODING 299
SWIDTH 495 0
DWIDTH 33 0
BBX 26 43 4 -1
BITMAP
3FFFE000
3FFFE000
3FFFE000
3FFFE000
00000000
00000000
00000000
00000000
00000000
00000000
00000000
FFFC0000
FFFC0000
FFFC0000
FFFC0000
FFFC0000
007C0000
007C0000
007C0000
007C0000
007C0000
007C0000
007C0000
007C0000
007C0000
007C0000
007C0000
007C0000
007C0000
007C0000
007C0000
007C0000
007C0000
007C0000
007C0000
007E0000
007F0000
003F8780
003FFFC0
001FFFC0
001FFFC0
0007FF80
0000F800
ENDCHAR
STARTCHAR 012C
ENCODING 300
SWIDTH 495 0
DWIDTH 33 0
BBX 21 54 6 0
BITMAP
1C01E0
1E01E0
1E03C0
1F03C0
0FFFC0
0FFF80
07FF00
01FE00
000000
000000
000000
000000
000000
FFFFF8
FFFFF8
FFFFF8
FFFFF8
00F800
00F800
00F800
00F800
00F800
00F800
00F800
00F800
00F800
00F800
00F800
00F800
00F800
00F800
00F800
00F800
00F800
00F800
00F800
00F800
00F800
00F800
00F800
00F800
00F800
00F800
00F800
00F800
00F800
00F800
00F800
00F800
FFFFF8
FFFFF8
FFFFF8
FFFFF8
FFFFF8
ENDCHAR
STARTCHAR 012D
ENCODING 301
SWIDTH 495 0
DWIDTH 33 0
BBX 26 46 4 -1
BITMAP
3C01C000
3C03C000
1E03C000
1E07C000
1FDF8000
0FFF8000
07FF0000
03FE0000
00700000
00000000
00000000
00000000
00000000
00000000
FFFC0000
FFFC0000
FFFC0000
FFFC0000
FFFC0000
007C0000
007C0000
007C0000
007C0000
007C0000
007C0000
007C0000
007C0000
007C0000
007C0000
007C0000
007C0000
007C0000
007C0000
007C0000
007C0000
007C0000
007C0000
007C0000
007E0000
007F0000
003F8780
003FFFC0
001FFFC0
001FFFC0
0007FF80
0000F800
ENDCHAR
STARTCHAR 012E
ENCODING 302
SWIDTH 495 0
DWIDTH 33 0
BBX 21 52 6 -11
BITMAP
FFFFF8
FFFFF8
FFFFF8
FFFFF8
00F800
00F800
00F800
00F800
00F800
00F800
00F800
00F800
00F800
00F800
00F800
00F800
00F800
00F800
00F800
00F800
00F800
00F800
00F800
00F800
00F800
00F800
00F800
00F800
00F800
00F800
00F800
00F800
00F800
00F800
00F800
00F800
FFFFF8
FFFFF8
FFFFF8
FFFFF8
FFFFF8
01F800
03F000
07E000
07C000
0F8000
0F8000
0F8000
0FFC00
0FFC00
07FC00
03FC00
ENDCHAR
STARTCHAR 012F
ENCODING 303
SWIDTH 495 0
DWIDTH 33 0
BBX 26 56 4 -11
BITMAP
00600000
01F80000
03FC0000
03FC0000
03FC0000
03FC0000
03FC0000
03F80000
01F00000
00000000
00000000
00000000
00000000
00000000
FFFC0000
FFFC0000
FFFC0000
FFFC0000
FFFC0000
007C0000
007C0000
007C0000
007C0000
007C0000
007C0000
007C0000
007C0000
007C0000
007C0000
007C0000
007C0000
007C0000
007C0000
007C0000
007C0000
007C0000
007C0000
007C0000
007E0000
007F0000
003F8780
003FFFC0
001FFFC0
001FFFC0
0007FF80
0000FF00
00003E00
00007C00
0000F800
0001F000
0001F000
0001F000
0001FF80
0001FF80
0000FF80
00007F80
ENDCHAR
STARTCHAR 0130
ENCODING 304
SWIDTH 495 0
DWIDTH 33 0
BBX 21 53 6 0
BITMAP
00F800
01FC00
01FE00
01FE00
01FE00
01FC00
00FC00
002000
000000
000000
000000
000000
FFFFF8
FFFFF8
FFFFF8
FFFFF8
00F800
00F800
00F800
00F800
00F800
00F800
00F800
00F800
00F800
00F800
00F800
00F800
00F800
00F800
00F800
00F800
00F800
00F800
00F800
00F800
00F800
00F800
00F800
00F800
00F800
00F800
00F800
00F800
00F800
00F800
00F800
00F800
FFFFF8
FFFFF8
FFFFF8
FFFFF8
FFFFF8
ENDCHAR
STARTCHAR 0131
ENCODING 305
SWIDTH 495 0
DWIDTH 33 0
BBX 26 32 4 -1
BITMAP
FFFC0000
FFFC0000
FFFC0000
FFFC0000
FFFC0000
007C0000
007C0000
007C0000
007C0000
007C0000
007C0000
007C0000
007C0000
007C0000
007C0000
007C0000
007C0000
007C0000
007C0000
007C0000
007C0000
007C0000
007C0000
007C0000
007E0000
007F0000
003F8780
003FFFC0
001FFFC0
001FFFC0
0007FF80
0000F800
ENDCHAR
STARTCHAR 0132
ENCODING 306
SWIDTH 495 0
DWIDTH 33 0
BBX 28 42 3 -1
BITMAP
F80001F0
F80001F0
F80001F0
F80001F0
F80001F0
F80001F0
F80001F0
F80001F0
F80001F0
F80001F0
F80001F0
F80001F0
F80001F0
F80001F0
F80001F0
F80001F0
F80001F0
F80001F0
F80001F0
F80001F0
F80001F0
F80001F0
F80001F0
F80001F0
F80001F0
F80001F0
F80001F0
F80001F0
F80001F0
F80001F0
F80001F0
F80001F0
F80001F0
F80003F0
F80003F0
F83807F0
F83C0FE0
F87FFFE0
F87FFFC0
F83FFF80
F80FFE00
0001F800
ENDCHAR
STARTCHAR 0133
ENCODING 307
SWIDTH 495 0
DWIDTH 33 0
BBX 21 55 6 -11
BITMAP
3C01F0
7E03F8
FF03F8
FF07F8
FF03F8
FF03F8
7E03F8
3C00E0
000000
000000
000000
000000
000000
7E01F0
7E01F0
7E01F0
7E01F0
7E01F0
7E01F0
7E01F0
7E01F0
7E01F0
7E01F0
7E01F0
7E01F0
7E01F0
7E01F0
7E01F0
7E01F0
7E01F0
7E01F0
7E01F0
7E01F0
7E01F0
7E01F0
7E01F0
7E01F0
7E01F0
7E01F0
7E01F0
7E01F0
7E01F0
7E01F0
7E01F0
0001F0
0001F0
0003F0
0003F0
0003F0
0007E0
03FFE0
03FFC0
03FF80
03FF00
03FC00
ENDCHAR
STARTCHAR 0134
ENCODING 308
SWIDTH 495 0
DWIDTH 33 0
BBX 24 56 4 -1
BITMAP
000180
000180
0003C0
0007E0
000FF0
001FF8
003E7C
007C3E
00F81F
00700E
002004
000000
000000
000000
0FFFFF
0FFFFF
0FFFFF
0FFFFF
00001F
00001F
00001F
00001F
00001F
00001F
00001F
00001F
00001F
00001F
00001F
00001F
00001F
00001F
00001F
00001F
00001F
00001F
00001F
00001F
00001F
00001F
00001F
00001F
00003F
00003F
00003F
00003F
00003F
00007E
00007E
7000FE
7C03FC
FFFFF8
FFFFF8
7FFFE0
1FFFC0
03FE00
ENDCHAR
STARTCHAR 0135
ENCODING 309
SWIDTH 495 0
DWIDTH 33 0
BBX 21 56 5 -10
BITMAP
000C00
001E00
003F00
007F80
00FFC0
01FFE0
03E1F0
07C0F8
038070
030030
000000
000000
000000
000000
1FFFF8
1FFFF8
1FFFF8
1FFFF8
1FFFF8
0001F8
0001F8
0001F8
0001F8
0001F8
0001F8
0001F8
0001F8
0001F8
0001F8
0001F8
0001F8
0001F8
0001F8
0001F8
0001F8
0001F8
0001F8
0001F8
0001F8
0001F8
0001F8
0001F8
0001F8
0001F8
0001F8
0001F8
0001F8
0001F0
0001F0
0003F0
7007F0
7FFFE0
FFFFC0
FFFFC0
FFFF00
1FFE00
ENDCHAR
STARTCHAR 0136
ENCODING 310
SWIDTH 495 0
DWIDTH 33 0
BBX 29 52 4 -11
BITMAP
FC000FE0
FC000FC0
FC001F80
FC003F80
FC007F00
FC007E00
FC00FC00
FC01FC00
FC03F800
FC07F000
FC07E000
FC0FC000
FC1FC000
FC3F8000
FC7F0000
FCFE0000
FDFC0000
FFF80000
FFF00000
FFF00000
FFF80000
FFFE0000
FDFF0000
FC7F8000
FC3FC000
FC1FC000
FC0FE000
FC07F000
FC03F800
FC01FC00
FC00FE00
FC00FE00
FC007F00
FC003F80
FC001F80
FC001FC0
FC000FE0
FC000FE0
FC0007F0
FC0003F0
FC0003F8
00000000
00000000
00000000
001F0000
001F0000
001F0000
003F0000
007F0000
03FE0000
03FC0000
03F80000
ENDCHAR
STARTCHAR 0137
ENCODING 311
SWIDTH 495 0
DWIDTH 33 0
BBX 27 57 5 -11
BITMAP
78000000
F8000000
F8000000
F8000000
F8000000
F8000000
F8000000
F8000000
F8000000
F8000000
F8000000
F8000000
F8000000
F8000000
F8000000
F8001F80
F8003F00
F8007F00
F800FE00
F801FC00
F803F800
F807E000
F80FC000
F83F8000
F87F0000
F8FE0000
F9FC0000
FBF80000
FFE00000
FFF00000
FFF80000
FBFC0000
F9FE0000
F8FF0000
F83F8000
F81FC000
F80FE000
F807F000
F803F800
F801FC00
F800FE00
F8007F00
F8003F00
F8001F80
F8001FC0
F8000FE0
00000000
00000000
00000000
003E0000
003E0000
003E0000
007E0000
00FE0000
07FC0000
07F80000
07F00000
ENDCHAR
STARTCHAR 0138
ENCODING 312
SWIDTH 495 0
DWIDTH 33 0
BBX 27 31 5 0
BITMAP
F8001F80
F8003F00
F8007F00
F800FE00
F801FC00
F803F800
F807E000
F80FC000
F83F8000
F87F0000
F8FE0000
F9FC0000
FBF80000
FFE00000
FFF00000
FFF80000
FBFC0000
F9FE0000
F8FF0000
F83F8000
F81FC000
F80FE000
F807F000
F803F800
F801FC00
F800FE00
F8007F00
F8003F00
F8001F80
F8001FC0
F8000FE0
ENDCHAR
STARTCHAR 0139
ENCODING 313
SWIDTH 495 0
DWIDTH 33 0
BBX 25 55 6 0
BITMAP
00C00000
01E00000
03F00000
03F00000
07E00000
0FC00000
1F800000
3F000000
7E000000
3C000000
18000000
00000000
00000000
00000000
FC000000
FC000000
FC000000
FC000000
FC000000
FC000000
FC000000
FC000000
FC000000
FC000000
FC000000
FC000000
FC000000
FC000000
FC000000
FC000000
FC000000
FC000000
FC000000
FC000000
FC000000
FC000000
FC000000
FC000000
FC000000
FC000000
FC000000
FC000000
FC000000
FC000000
FC000000
FC000000
FC000000
FC000000
FC000000
FC000000
FFFFFF80
FFFFFF80
FFFFFF80
FFFFFF80
FFFFFF80
ENDCHAR
STARTCHAR 013A
ENCODING 314
SWIDTH 495 0
DWIDTH 33 0
BBX 26 56 4 -1
BITMAP
00030000
000F8000
003F8000
00FF8000
03FF0000
01FC0000
01E00000
00000000
00000000
00000000
FFFC0000
FFFC0000
FFFC0000
FFFC0000
007C0000
007C0000
007C0000
007C0000
007C0000
007C0000
007C0000
007C0000
007C0000
007C0000
007C0000
007C0000
007C0000
007C0000
007C0000
007C0000
007C0000
007C0000
007C0000
007C0000
007C0000
007C0000
007C0000
007C0000
007C0000
007C0000
007C0000
007C0000
007C0000
007C0000
007C0000
007C0000
007C0000
007C0000
007E0000
007E0000
003F8780
003FFFC0
001FFFC0
001FFFC0
0007FF80
0001F800
ENDCHAR
STARTCHAR 013B
ENCODING 315
SWIDTH 495 0
DWIDTH 33 0
BBX 25 52 6 -11
BITMAP
FC000000
FC000000
FC000000
FC000000
FC000000
FC000000
FC000000
FC000000
FC000000
FC000000
FC000000
FC000000
FC000000
FC000000
FC000000
FC000000
FC000000
FC000000
FC000000
FC000000
FC000000
FC000000
FC000000
FC000000
FC000000
FC000000
FC000000
FC000000
FC000000
FC000000
FC000000
FC000000
FC000000
FC000000
FC000000
FC000000
FFFFFF80
FFFFFF80
FFFFFF80
FFFFFF80
FFFFFF80
00000000
00000000
00000000
003E0000
003E0000
003E0000
007E0000
00FE0000
07FC0000
07FC0000
07F00000
ENDCHAR
STARTCHAR 013C
ENCODING 316
SWIDTH 495 0
DWIDTH 33 0
BBX 26 57 4 -11
BITMAP
FFFC0000
FFFC0000
FFFC0000
FFFC0000
FFFC0000
007C0000
007C0000
007C0000
007C0000
007C0000
007C0000
007C0000
007C0000
007C0000
007C0000
007C0000
007C0000
007C0000
007C0000
007C0000
007C0000
007C0000
007C0000
007C0000
007C0000
007C0000
007C0000
007C0000
007C0000
007C0000
007C0000
007C0000
007C0000
007C0000
007C0000
007C0000
007C0000
007C0000
007C0000
007E0000
007E0000
003F8780
003FFFC0
001FFFC0
001FFFC0
0007FF80
0001F800
00000000
00000000
0001F800
0001F800
0001F800
0001F800
0003F000
001FF000
001FE000
001FC000
ENDCHAR
STARTCHAR 013D
ENCODING 317
SWIDTH 495 0
DWIDTH 33 0
BBX 25 41 6 0
BITMAP
FC1F0000
FC1F0000
FC1F0000
FC1F0000
FC1F0000
FC1F0000
FC1E0000
FC1E0000
FC1E0000
FC1E0000
FC1E0000
FC1E0000
FC1E0000
FC000000
FC000000
FC000000
FC000000
FC000000
FC000000
FC000000
FC000000
FC000000
FC000000
FC000000
FC000000
FC000000
FC000000
FC000000
FC000000
FC000000
FC000000
FC000000
FC000000
FC000000
FC000000
FC000000
FFFFFF80
FFFFFF80
FFFFFF80
FFFFFF80
FFFFFF80
ENDCHAR
STARTCHAR 013E
ENCODING 318
SWIDTH 495 0
DWIDTH 33 0
BBX 26 47 4 -1
BITMAP
FFFC1F00
FFFC1F00
FFFC1F00
FFFC1F00
FFFC1E00
007C1E00
007C1E00
007C1E00
007C1E00
007C1E00
007C1E00
007C1E00
007C1C00
007C0000
007C0000
007C0000
007C0000
007C0000
007C0000
007C0000
007C0000
007C0000
007C0000
007C0000
007C0000
007C0000
007C0000
007C0000
007C0000
007C0000
007C0000
007C0000
007C0000
007C0000
007C0000
007C0000
007C0000
007C0000
007C0000
007E0000
007E0000
003F8780
003FFFC0
001FFFC0
001FFFC0
0007FF80
0001F800
ENDCHAR
STARTCHAR 013F
ENCODING 319
SWIDTH 495 0
DWIDTH 33 0
BBX 25 41 6 0
BITMAP
FC000000
FC000000
FC000000
FC000000
FC000000
FC000000
FC000000
FC000000
FC000000
FC000000
FC000000
FC000000
FC000000
FC000000
FC000000
FC006000
FC01F800
FC01FC00
FC03FC00
FC03FC00
FC03FC00
FC01FC00
FC00F800
FC000000
FC000000
FC000000
FC000000
FC000000
FC000000
FC000000
FC000000
FC000000
FC000000
FC000000
FC000000
FC000000
FFFFFF80
FFFFFF80
FFFFFF80
FFFFFF80
FFFFFF80
ENDCHAR
STARTCHAR 0140
ENCODING 320
SWIDTH 495 0
DWIDTH 33 0
BBX 32 47 4 -1
BITMAP
FFFC0000
FFFC0000
FFFC0000
FFFC0000
FFFC0000
007C0000
007C0000
007C0000
007C0000
007C0000
007C0000
007C0000
007C0000
007C0000
007C0000
007C0000
007C0000
007C0000
007C0000
007C0000
007C0018
007C007E
007C00FF
007C00FF
007C00FF
007C00FF
007C00FE
007C007E
007C0000
007C0000
007C0000
007C0000
007C0000
007C0000
007C0000
007C0000
007C0000
007C0000
007C0000
007E0000
007E0000
003F8780
003FFFC0
001FFFC0
001FFFC0
0007FF80
0001F800
ENDCHAR
STARTCHAR 0141
ENCODING 321
SWIDTH 495 0
DWIDTH 33 0
BBX 30 41 1 0
BITMAP
01F00000
01F00000
01F00000
01F00000
01F00000
01F00000
01F00000
01F00000
01F00000
01F00000
01F00000
01F00000
01F00000
01F07000
01F1F000
01F7F800
01FFF800
01FFE000
01FF8000
03FE0000
0FF80000
3FF00000
FFF00000
7FF00000
79F00000
31F00000
01F00000
01F00000
01F00000
01F00000
01F00000
01F00000
01F00000
01F00000
01F00000
01F00000
01FFFFFC
01FFFFFC
01FFFFFC
01FFFFFC
01FFFFFC
ENDCHAR
STARTCHAR 0142
ENCODING 322
SWIDTH 495 0
DWIDTH 33 0
BBX 26 47 4 -1
BITMAP
FFFC0000
FFFC0000
FFFC0000
FFFC0000
FFFC0000
007C0000
007C0000
007C0000
007C0000
007C0000
007C0000
007C0000
007C0000
007C0000
007C0000
007C0000
007C7000
007DF000
007FF800
007FF800
007FE000
00FF8000
03FE0000
0FFC0000
3FFC0000
1FFC0000
1E7C0000
087C0000
007C0000
007C0000
007C0000
007C0000
007C0000
007C0000
007C0000
007C0000
007C0000
007C0000
007C0000
007E0000
007E0000
003F8780
003FFFC0
001FFFC0
001FFFC0
0007FF80
0001F800
ENDCHAR
STARTCHAR 0143
ENCODING 323
SWIDTH 495 0
DWIDTH 33 0
BBX 26 55 4 0
BITMAP
00010000
00038000
0007C000
000FE000
000FC000
001F8000
003F0000
007E0000
00FC0000
00780000
00300000
00000000
00000000
00000000
FC0007C0
FC0007C0
FE0007C0
FE0007C0
FF0007C0
FF0007C0
FF8007C0
FFC007C0
FFC007C0
FFE007C0
FBE007C0
FBF007C0
F9F007C0
F9F807C0
F8F807C0
F87C07C0
F87C07C0
F83E07C0
F83E07C0
F81F07C0
F81F07C0
F81F07C0
F80F87C0
F80F87C0
F807C7C0
F807C7C0
F803E7C0
F803E7C0
F801E7C0
F801F7C0
F800F7C0
F800FFC0
F800FFC0
F8007FC0
F8007FC0
F8003FC0
F8003FC0
F8001FC0
F8001FC0
F8001FC0
F8000FC0
ENDCHAR
STARTCHAR 0144
ENCODING 324
SWIDTH 495 0
DWIDTH 33 0
BBX 24 46 5 0
BITMAP
000200
000700
000F80
001FC0
001F80
003F00
007E00
00FC00
01F800
01F000
006000
000000
000000
000000
003800
3FFF80
FFFFE0
FFFFF8
FFFFF8
FF07FC
F800FE
F8007E
F8007E
F8003E
F8003F
F8003F
F8003F
F8003F
F8003F
F8003F
F8003F
F8003F
F8003F
F8003F
F8003F
F8003F
F8003F
F8003F
F8003F
F8003F
F8003F
F8003F
F8003F
F8003F
F8003F
F8003F
ENDCHAR
STARTCHAR 0145
ENCODING 325
SWIDTH 495 0
DWIDTH 33 0
BBX 26 52 4 -11
BITMAP
FC0007C0
FC0007C0
FE0007C0
FE0007C0
FF0007C0
FF0007C0
FF8007C0
FFC007C0
FFC007C0
FFE007C0
FBE007C0
FBF007C0
F9F007C0
F9F807C0
F8F807C0
F87C07C0
F87C07C0
F83E07C0
F83E07C0
F81F07C0
F81F07C0
F81F07C0
F80F87C0
F80F87C0
F807C7C0
F807C7C0
F803E7C0
F803E7C0
F801E7C0
F801F7C0
F800F7C0
F800FFC0
F800FFC0
F8007FC0
F8007FC0
F8003FC0
F8003FC0
F8001FC0
F8001FC0
F8001FC0
F8000FC0
00000000
00000000
00000000
001F8000
001F8000
001F8000
001F8000
003F0000
01FF0000
01FE0000
01FC0000
ENDCHAR
STARTCHAR 0146
ENCODING 326
SWIDTH 495 0
DWIDTH 33 0
BBX 24 43 5 -11
BITMAP
003800
3FFF80
FFFFE0
FFFFF8
FFFFF8
FF07FC
F800FE
F8007E
F8007E
F8003E
F8003F
F8003F
F8003F
F8003F
F8003F
F8003F
F8003F
F8003F
F8003F
F8003F
F8003F
F8003F
F8003F
F8003F
F8003F
F8003F
F8003F
F8003F
F8003F
F8003F
F8003F
F8003F
000000
000000
000000
003E00
003E00
003E00
007E00
00FE00
07FC00
07F800
07F000
ENDCHAR
STARTCHAR 0147
ENCODING 327
SWIDTH 495 0
DWIDTH 33 0
BBX 26 55 4 0
BITMAP
03002000
0780F000
07C1F800
03E3F000
01F7E000
00FFC000
007F8000
007F0000
003E0000
001C0000
00080000
00000000
00000000
00000000
FC0007C0
FC0007C0
FE0007C0
FE0007C0
FF0007C0
FF0007C0
FF8007C0
FFC007C0
FFC007C0
FFE007C0
FBE007C0
FBF007C0
F9F007C0
F9F807C0
F8F807C0
F87C07C0
F87C07C0
F83E07C0
F83E07C0
F81F07C0
F81F07C0
F81F07C0
F80F87C0
F80F87C0
F807C7C0
F807C7C0
F803E7C0
F803E7C0
F801E7C0
F801F7C0
F800F7C0
F800FFC0
F800FFC0
F8007FC0
F8007FC0
F8003FC0
F8003FC0
F8001FC0
F8001FC0
F8001FC0
F8000FC0
ENDCHAR
STARTCHAR 0148
ENCODING 328
SWIDTH 495 0
DWIDTH 33 0
BBX 24 46 5 0
BITMAP
040040
0700E0
0F81F0
0FC3E0
07EFC0
03FF80
01FF00
00FE00
007C00
003800
001000
000000
000000
000000
003800
3FFF80
FFFFE0
FFFFF8
FFFFF8
FF07FC
F800FE
F8007E
F8007E
F8003E
F8003F
F8003F
F8003F
F8003F
F8003F
F8003F
F8003F
F8003F
F8003F
F8003F
F8003F
F8003F
F8003F
F8003F
F8003F
F8003F
F8003F
F8003F
F8003F
F8003F
F8003F
F8003F
ENDCHAR
STARTCHAR 0149
ENCODING 329
SWIDTH 495 0
DWIDTH 33 0
BBX 28 46 1 0
BITMAP
3E000000
3E000000
3E000000
3E000000
3E000000
3E000000
7C000000
7C000000
78000000
F8000000
F0000000
70000000
00000000
00000000
00038000
03FFF800
0FFFFE00
0FFFFF80
0FFFFF80
0FF07FC0
0F800FE0
0F8007E0
0F8007E0
0F8003E0
0F8003F0
0F8003F0
0F8003F0
0F8003F0
0F8003F0
0F8003F0
0F8003F0
0F8003F0
0F8003F0
0F8003F0
0F8003F0
0F8003F0
0F8003F0
0F8003F0
0F8003F0
0F8003F0
0F8003F0
0F8003F0
0F8003F0
0F8003F0
0F8003F0
0F8003F0
ENDCHAR
STARTCHAR 014A
ENCODING 330
SWIDTH 495 0
DWIDTH 33 0
BBX 26 52 4 -11
BITMAP
FC0007C0
FC0007C0
FE0007C0
FE0007C0
FF0007C0
FF0007C0
FF8007C0
FFC007C0
FFC007C0
FFE007C0
FBE007C0
FBF007C0
F9F007C0
F8F807C0
F8F807C0
F87C07C0
F87C07C0
F83E07C0
F83E07C0
F81F07C0
F81F07C0
F80F87C0
F80F87C0
F807C7C0
F807C7C0
F803E7C0
F803E7C0
F801F7C0
F801F7C0
F800FFC0
F800FFC0
F8007FC0
F8007FC0
F8003FC0
F8003FC0
F8001FC0
F8001FC0
F8000FC0
F8000FC0
F80007C0
F80007C0
000007C0
000007C0
000007C0
00000FC0
00000F80
00000F80
00037F80
0003FF80
0003FF00
0003FE00
0003FC00
ENDCHAR
STARTCHAR 014B
ENCODING 331
SWIDTH 495 0
DWIDTH 33 0
BBX 24 43 5 -11
BITMAP
003800
3FFF80
FFFFE0
FFFFF8
FFFFF8
FF07FC
F800FE
F8007E
F8007E
F8003E
F8003F
F8003F
F8003F
F8003F
F8003F
F8003F
F8003F
F8003F
F8003F
F8003F
F8003F
F8003F
F8003F
F8003F
F8003F
F8003F
F8003F
F8003F
F8003F
F8003F
F8003F
F8003F
00003F
00003F
00003F
00003F
00003E
00007E
0009FE
000FFE
000FFC
001FF8
001FE0
ENDCHAR
STARTCHAR 014C
ENCODING 332
SWIDTH 495 0
DWIDTH 33 0
BBX 29 53 2 -1
BITMAP
03FFFE00
03FFFE00
03FFFE00
03FFFE00
03FFFE00
00000000
00000000
00000000
00000000
00000000
003FE000
00FFF800
03FFFE00
07FFFF00
0FFFFF80
0FE03FC0
1F800FC0
1F8007E0
3F0007E0
3E0003F0
7E0003F0
7E0001F0
7C0001F8
7C0001F8
FC0001F8
FC0001F8
FC0000F8
FC0000F8
FC0000F8
FC0000F8
FC0000F8
FC0000F8
FC0000F8
FC0000F8
FC0000F8
FC0000F8
FC0000F8
FC0001F8
FC0001F8
7C0001F8
7C0001F0
7E0003F0
7E0003F0
3F0003F0
3F0007E0
1F800FE0
1FC01FC0
0FE03F80
07FFFF80
03FFFF00
01FFFE00
00FFF800
001FC000
ENDCHAR
STARTCHAR 014D
ENCODING 333
SWIDTH 495 0
DWIDTH 33 0
BBX 28 43 3 -1
BITMAP
07FFFC00
07FFFC00
07FFFC00
07FFFC00
00000000
00000000
00000000
00000000
00000000
00000000
001E0000
00FFE000
03FFF800
07FFFC00
0FFFFE00
1FE0FF00
3F803F80
3F001FC0
7E000FC0
7E0007E0
FC0007E0
FC0007E0
FC0003E0
FC0003E0
F80003F0
F80003F0
F80003F0
F80003F0
F80003F0
FC0003E0
FC0003E0
FC0007E0
FC0007E0
7E0007E0
7E000FC0
3F001FC0
3F803F80
1FE0FF00
0FFFFF00
07FFFE00
03FFF800
00FFE000
001F0000
ENDCHAR
STARTCHAR 014E
ENCODING 334
SWIDTH 495 0
DWIDTH 33 0
BBX 29 55 2 -1
BITMAP
01C01E00
01E01E00
01E03C00
01F03C00
00FFFC00
00FFF800
007FF000
001FE000
00000000
00000000
00000000
00000000
003FE000
00FFF800
03FFFE00
07FFFF00
0FFFFF80
0FE03FC0
1F800FC0
1F8007E0
3F0007E0
3E0003F0
7E0003F0
7E0001F0
7C0001F8
7C0001F8
FC0001F8
FC0001F8
FC0000F8
FC0000F8
FC0000F8
FC0000F8
FC0000F8
FC0000F8
FC0000F8
FC0000F8
FC0000F8
FC0000F8
FC0000F8
FC0001F8
FC0001F8
7C0001F8
7C0001F0
7E0003F0
7E0003F0
3F0003F0
3F0007E0
1F800FE0
1FC01FC0
0FE03F80
07FFFF80
03FFFF00
01FFFE00
00FFF800
001FC000
ENDCHAR
STARTCHAR 014F
ENCODING 335
SWIDTH 495 0
DWIDTH 33 0
BBX 28 46 3 -1
BITMAP
03803C00
03C03C00
03C07800
03E07800
03FBF800
01FFF000
00FFE000
007FC000
000E0000
00000000
00000000
00000000
00000000
001E0000
00FFE000
03FFF800
07FFFC00
0FFFFE00
1FE0FF00
3F803F80
3F001FC0
7E000FC0
7E0007E0
FC0007E0
FC0007E0
FC0003E0
FC0003E0
F80003F0
F80003F0
F80003F0
F80003F0
F80003F0
FC0003E0
FC0003E0
FC0007E0
FC0007E0
7E0007E0
7E000FC0
3F001FC0
3F803F80
1FE0FF00
0FFFFF00
07FFFE00
03FFF800
00FFE000
001F0000
ENDCHAR
STARTCHAR 0150
ENCODING 336
SWIDTH 495 0
DWIDTH 33 0
BBX 29 56 2 -1
BITMAP
00060180
000703C0
000F83E0
001F87E0
003F0FC0
003E0F80
007C1F00
00F83E00
00F07C00
01F07800
00601000
00000000
00000000
003FE000
00FFF800
03FFFE00
07FFFF00
0FFFFF80
0FE03FC0
1F800FC0
1F8007E0
3F0007E0
3E0003F0
7E0003F0
7E0001F0
7C0001F8
7C0001F8
FC0001F8
FC0001F8
FC0000F8
FC0000F8
FC0000F8
FC0000F8
FC0000F8
FC0000F8
FC0000F8
FC0000F8
FC0000F8
FC0000F8
FC0000F8
FC0001F8
FC0001F8
7C0001F8
7C0001F0
7E0003F0
7E0003F0
3F0003F0
3F0007E0
1F800FE0
1FC01FC0
0FE03F80
07FFFF80
03FFFF00
01FFFE00
00FFF800
001FC000
ENDCHAR
STARTCHAR 0151
ENCODING 337
SWIDTH 495 0
DWIDTH 33 0
BBX 28 47 3 -1
BITMAP
000C0200
000E0700
001F0780
003F0FC0
003E1F80
007C1F00
00F83E00
01F07C00
01F0F800
03E0F000
00C07000
00000000
00000000
00000000
001E0000
00FFE000
03FFF800
07FFFC00
0FFFFE00
1FE0FF00
3F803F80
3F001FC0
7E000FC0
7E0007E0
FC0007E0
FC0007E0
FC0003E0
FC0003E0
F80003F0
F80003F0
F80003F0
F80003F0
F80003F0
FC0003E0
FC0003E0
FC0007E0
FC0007E0
7E0007E0
7E000FC0
3F001FC0
3F803F80
1FE0FF00
0FFFFF00
07FFFE00
03FFF800
00FFE000
001F0000
ENDCHAR
STARTCHAR 0152
ENCODING 338
SWIDTH 495 0
DWIDTH 33 0
BBX 30 42 2 0
BITMAP
001E0000
00FFFFF8
03FFFFF8
07FFFFF8
0FFFFFF8
1FE1F800
1F80F800
3F00F800
3F00F800
7E00F800
7E00F800
7C00F800
7C00F800
FC00F800
FC00F800
FC00F800
F800F800
F800F800
F800FFF0
F800FFF0
F800FFF0
F800FFF0
F800FFF0
F800F800
F800F800
F800F800
F800F800
F800F800
FC00F800
FC00F800
7C00F800
7C00F800
7E00F800
7E00F800
3E00F800
3F00F800
1F80F800
1FE3FFFC
0FFFFFFC
07FFFFFC
03FFFFFC
00FFFFFC
ENDCHAR
STARTCHAR 0153
ENCODING 339
SWIDTH 495 0
DWIDTH 33 0
BBX 30 33 2 -1
BITMAP
01C00600
07F01FC0
0FFC3FE0
1FFC7FE0
3FFEFFF0
3F3EF1F0
3E1FF0F8
7C1FE0F8
7C0FE0F8
7C0FE078
7C0FC07C
F80FC07C
F807C07C
F807C07C
F807FFFC
F807FFFC
F807FFFC
F807FFFC
F807C000
F807C000
F807C000
F807C000
7C0FE000
7C0FE000
7C0FE000
7E0FF000
3E1FF800
3F3EFC30
3FFEFFF8
1FFC7FF8
0FF83FF8
07F81FF0
01C007C0
ENDCHAR
STARTCHAR 0154
ENCODING 340
SWIDTH 495 0
DWIDTH 33 0
BBX 27 55 4 0
BITMAP
00030000
00078000
0007C000
000FC000
001F8000
003F0000
007E0000
00FC0000
00F80000
00F00000
00600000
00000000
00000000
03F80000
FFFF8000
FFFFE000
FFFFF800
FFFFFC00
F803FE00
F800FE00
F8007F00
F8003F00
F8001F00
F8001F80
F8001F80
F8001F80
F8001F80
F8001F80
F8001F80
F8001F00
F8003F00
F8003F00
F800FE00
F803FC00
FFFFFC00
FFFFF800
FFFFE000
FFFF8000
FFFFC000
F807E000
F807E000
F803F000
F801F000
F801F800
F800FC00
F800FC00
F8007E00
F8007E00
F8003F00
F8003F00
F8001F80
F8001F80
F8000FC0
F8000FC0
F80007E0
ENDCHAR
STARTCHAR 0155
ENCODING 341
SWIDTH 495 0
DWIDTH 33 0
BBX 22 46 7 0
BITMAP
000300
000380
0007C0
000FC0
001F80
003F00
007E00
007C00
00F800
00F000
006000
000000
000000
000000
001F00
0FFFFC
7FFFFC
FFFFFC
FFFFFC
FFC038
FC0000
FC0000
FC0000
FC0000
FC0000
FC0000
FC0000
FC0000
FC0000
FC0000
FC0000
FC0000
FC0000
FC0000
FC0000
FC0000
FC0000
FC0000
FC0000
FC0000
FC0000
FC0000
FC0000
FC0000
FC0000
FC0000
ENDCHAR
STARTCHAR 0156
ENCODING 342
SWIDTH 495 0
DWIDTH 33 0
BBX 27 53 4 -11
BITMAP
03F80000
FFFF8000
FFFFE000
FFFFF800
FFFFFC00
F803FE00
F800FE00
F8007F00
F8003F00
F8001F00
F8001F80
F8001F80
F8001F80
F8001F80
F8001F80
F8001F80
F8001F00
F8003F00
F8003F00
F800FE00
F803FC00
FFFFFC00
FFFFF800
FFFFE000
FFFF8000
FFFFC000
F807E000
F807E000
F803F000
F801F000
F801F800
F800FC00
F800FC00
F8007E00
F8007E00
F8003F00
F8003F00
F8001F80
F8001F80
F8000FC0
F8000FC0
F80007E0
00000000
00000000
00000000
003E0000
003E0000
007E0000
007E0000
00FE0000
07FC0000
07F80000
07F00000
ENDCHAR
STARTCHAR 0157
ENCODING 343
SWIDTH 495 0
DWIDTH 33 0
BBX 26 43 3 -11
BITMAP
0001F000
00FFFFC0
07FFFFC0
0FFFFFC0
0FFFFFC0
0FFC0380
0FC00000
0FC00000
0FC00000
0FC00000
0FC00000
0FC00000
0FC00000
0FC00000
0FC00000
0FC00000
0FC00000
0FC00000
0FC00000
0FC00000
0FC00000
0FC00000
0FC00000
0FC00000
0FC00000
0FC00000
0FC00000
0FC00000
0FC00000
0FC00000
0FC00000
0FC00000
00000000
00000000
00000000
0FC00000
0FC00000
0FC00000
0FC00000
1F800000
FF800000
FF000000
FE000000
ENDCHAR
STARTCHAR 0158
ENCODING 344
SWIDTH 495 0
DWIDTH 33 0
BBX 27 55 4 0
BITMAP
0C008000
0E01C000
1F03E000
0F87C000
07DF8000
03FF0000
01FE0000
00FC0000
00780000
00300000
00000000
00000000
00000000
03F80000
FFFF8000
FFFFE000
FFFFF800
FFFFFC00
F803FE00
F800FE00
F8007F00
F8003F00
F8001F00
F8001F80
F8001F80
F8001F80
F8001F80
F8001F80
F8001F80
F8001F00
F8003F00
F8003F00
F800FE00
F803FC00
FFFFFC00
FFFFF800
FFFFE000
FFFF8000
FFFFC000
F807E000
F807E000
F803F000
F801F000
F801F800
F800FC00
F800FC00
F8007E00
F8007E00
F8003F00
F8003F00
F8001F80
F8001F80
F8000FC0
F8000FC0
F80007E0
ENDCHAR
STARTCHAR 0159
ENCODING 345
SWIDTH 495 0
DWIDTH 33 0
BBX 22 46 7 0
BITMAP
020040
0700E0
0F81F0
07C3E0
03E7C0
01FF80
00FF00
007F00
003E00
001C00
001800
000000
000000
000000
001F00
0FFFFC
7FFFFC
FFFFFC
FFFFFC
FFC038
FC0000
FC0000
FC0000
FC0000
FC0000
FC0000
FC0000
FC0000
FC0000
FC0000
FC0000
FC0000
FC0000
FC0000
FC0000
FC0000
FC0000
FC0000
FC0000
FC0000
FC0000
FC0000
FC0000
FC0000
FC0000
FC0000
ENDCHAR
STARTCHAR 015A
ENCODING 346
SWIDTH 495 0
DWIDTH 33 0
BBX 26 56 4 -1
BITMAP
00018000
0001C000
0003E000
0007E000
000FC000
001F8000
003F0000
003E0000
007C0000
00780000
00300000
00000000
00000000
00FFE000
03FFFE00
0FFFFF00
1FFFFF00
1FFFFE00
3F801E00
7F000200
7E000000
7C000000
7C000000
7C000000
7C000000
7C000000
7E000000
7E000000
7F000000
3FC00000
1FF00000
0FFC0000
07FF0000
03FFC000
00FFF000
003FFC00
0007FE00
0001FF00
0000FF00
00003F80
00001F80
00001F80
00000FC0
00000FC0
00000FC0
00000FC0
00000FC0
00000F80
00001F80
70003F80
7C00FF00
FFFFFF00
FFFFFE00
7FFFF800
1FFFF000
01FF0000
ENDCHAR
STARTCHAR 015B
ENCODING 347
SWIDTH 495 0
DWIDTH 33 0
BBX 25 47 4 -1
BITMAP
00010000
00038000
0007C000
000FE000
000FC000
001F8000
003F0000
007E0000
00FC0000
00F80000
00300000
00000000
00000000
00000000
003F0000
03FFFE00
0FFFFE00
1FFFFE00
3FFFFE00
3F801E00
7E000000
7E000000
7C000000
7C000000
7E000000
7F000000
3FC00000
3FF00000
1FFE0000
07FFC000
03FFF000
00FFF800
001FFE00
0003FE00
0000FF00
00003F80
00001F80
00001F80
00001F80
00001F80
70003F80
7E007F00
7FFFFF00
7FFFFE00
FFFFFC00
1FFFF000
00FE0000
ENDCHAR
STARTCHAR 015C
ENCODING 348
SWIDTH 495 0
DWIDTH 33 0
BBX 26 56 4 -1
BITMAP
00040000
000E0000
001F0000
003F8000
007FC000
00FFE000
01FBE000
03E1F000
07C0F800
03807000
01003000
00000000
00000000
00FFE000
03FFFE00
0FFFFF00
1FFFFF00
1FFFFE00
3F801E00
7F000200
7E000000
7C000000
7C000000
7C000000
7C000000
7C000000
7E000000
7E000000
7F000000
3FC00000
1FF00000
0FFC0000
07FF0000
03FFC000
00FFF000
003FFC00
0007FE00
0001FF00
0000FF00
00003F80
00001F80
00001F80
00000FC0
00000FC0
00000FC0
00000FC0
00000FC0
00000F80
00001F80
70003F80
7C00FF00
FFFFFF00
FFFFFE00
7FFFF800
1FFFF000
01FF0000
ENDCHAR
STARTCHAR 015D
ENCODING 349
SWIDTH 495 0
DWIDTH 33 0
BBX 25 47 4 -1
BITMAP
00040000
000E0000
001E0000
003F0000
007F8000
00FFC000
01FBE000
03F1F000
07E0F800
03C07800
01003000
00000000
00000000
00000000
003F0000
03FFFE00
0FFFFE00
1FFFFE00
3FFFFE00
3F801E00
7E000000
7E000000
7C000000
7C000000
7E000000
7F000000
3FC00000
3FF00000
1FFE0000
07FFC000
03FFF000
00FFF800
001FFE00
0003FE00
0000FF00
00003F80
00001F80
00001F80
00001F80
00001F80
70003F80
7E007F00
7FFFFF00
7FFFFE00
FFFFFC00
1FFFF000
00FE0000
ENDCHAR
STARTCHAR 015E
ENCODING 350
SWIDTH 495 0
DWIDTH 33 0
BBX 26 53 4 -11
BITMAP
00FFE000
03FFFE00
0FFFFF00
1FFFFF00
1FFFFE00
3F801E00
7F000200
7E000000
7C000000
7C000000
7C000000
7C000000
7C000000
7E000000
7E000000
7F000000
3FC00000
1FF00000
0FFC0000
07FF0000
03FFC000
00FFF000
003FFC00
0007FE00
0001FF00
0000FF00
00003F80
00001F80
00001F80
00000FC0
00000FC0
00000FC0
00000FC0
00000FC0
00000F80
00001F80
70003F80
7C00FF00
FFFFFF00
FFFFFE00
7FFFF800
1FFFE000
01FF0000
003C0000
003C0000
007F0000
003F0000
000F8000
000F8000
031F8000
03FF0000
03FF0000
03FC0000
ENDCHAR
STARTCHAR 015F
ENCODING 351
SWIDTH 495 0
DWIDTH 33 0
BBX 25 43 4 -11
BITMAP
003F0000
03FFFE00
0FFFFE00
1FFFFE00
3FFFFE00
3F801E00
7E000000
7E000000
7C000000
7C000000
7E000000
7F000000
3FC00000
3FF00000
1FFE0000
07FFC000
03FFF000
00FFF800
001FFE00
0003FE00
0000FF00
00003F80
00001F80
00001F80
00001F80
00001F80
70003F80
7E007F00
7FFFFF00
7FFFFE00
FFFFFC00
1FFFF000
01FE0000
003C0000
003C0000
007F0000
003F0000
000F8000
000F8000
031F8000
03FF0000
03FF0000
03FC0000
ENDCHAR
STARTCHAR 0160
ENCODING 352
SWIDTH 495 0
DWIDTH 33 0
BBX 26 56 4 -1
BITMAP
01801000
01C03800
03E07C00
01F1F800
00FBF000
007FE000
003FC000
001F8000
000F0000
00060000
00000000
00000000
00000000
00FFE000
03FFFE00
0FFFFF00
1FFFFF00
1FFFFE00
3F801E00
7F000200
7E000000
7C000000
7C000000
7C000000
7C000000
7C000000
7E000000
7E000000
7F000000
3FC00000
1FF00000
0FFC0000
07FF0000
03FFC000
00FFF000
003FFC00
0007FE00
0001FF00
0000FF00
00003F80
00001F80
00001F80
00000FC0
00000FC0
00000FC0
00000FC0
00000FC0
00000F80
00001F80
70003F80
7C00FF00
FFFFFF00
FFFFFE00
7FFFF800
1FFFF000
01FF0000
ENDCHAR
STARTCHAR 0161
ENCODING 353
SWIDTH 495 0
DWIDTH 33 0
BBX 25 47 4 -1
BITMAP
01001000
03807000
07C0F800
03E1F800
01FBF000
00FFE000
007FC000
003F8000
001F0000
000E0000
00040000
00000000
00000000
00000000
003F0000
03FFFE00
0FFFFE00
1FFFFE00
3FFFFE00
3F801E00
7E000000
7E000000
7C000000
7C000000
7E000000
7F000000
3FC00000
3FF00000
1FFE0000
07FFC000
03FFF000
00FFF800
001FFE00
0003FE00
0000FF00
00003F80
00001F80
00001F80
00001F80
00001F80
70003F80
7E007F00
7FFFFF00
7FFFFE00
FFFFFC00
1FFFF000
00FE0000
ENDCHAR
STARTCHAR 0162
ENCODING 354
SWIDTH 495 0
DWIDTH 33 0
BBX 28 52 3 -11
BITMAP
FFFFFFF0
FFFFFFF0
FFFFFFF0
FFFFFFF0
001F0000
001F0000
001F0000
001F0000
001F0000
001F0000
001F0000
001F0000
001F0000
001F0000
001F0000
001F0000
001F0000
001F0000
001F0000
001F0000
001F0000
001F0000
001F0000
001F0000
001F0000
001F0000
001F0000
001F0000
001F0000
001F0000
001F0000
001F0000
001F0000
001F0000
001F0000
001F0000
001F0000
001F0000
001F0000
001F0000
001F0000
000E0000
001E0000
001E0000
003F8000
001F8000
0007C000
0007C000
018FC000
01FF8000
01FF8000
01FE0000
ENDCHAR
STARTCHAR 0163
ENCODING 355
SWIDTH 495 0
DWIDTH 33 0
BBX 26 51 4 -10
BITMAP
01F00000
01F00000
01F00000
01F00000
01F00000
01F00000
01F00000
01F00000
01F00000
FFFFFF80
FFFFFF80
FFFFFF80
FFFFFF80
FFFFFF80
01F00000
01F00000
01F00000
01F00000
01F00000
01F00000
01F00000
01F00000
01F00000
01F00000
01F00000
01F00000
01F00000
01F00000
01F00000
01F00000
01F00000
01F80000
01F80000
01F80000
01FC0000
00FF0780
00FFFFC0
007FFFC0
003FFFC0
001FFF80
0003F800
0003C000
0003C000
0007F000
0003F800
0000F800
0000F800
0011F800
003FF800
003FF000
003FE000
ENDCHAR
STARTCHAR 0164
ENCODING 356
SWIDTH 495 0
DWIDTH 33 0
BBX 28 55 3 0
BITMAP
01801000
03C07800
03E0FC00
01F1F800
00FBF000
007FE000
003FC000
003F8000
001F0000
000E0000
00040000
00000000
00000000
00000000
FFFFFFF0
FFFFFFF0
FFFFFFF0
FFFFFFF0
001F0000
001F0000
001F0000
001F0000
001F0000
001F0000
001F0000
001F0000
001F0000
001F0000
001F0000
001F0000
001F0000
001F0000
001F0000
001F0000
001F0000
001F0000
001F0000
001F0000
001F0000
001F0000
001F0000
001F0000
001F0000
001F0000
001F0000
001F0000
001F0000
001F0000
001F0000
001F0000
001F0000
001F0000
001F0000
001F0000
001F0000
ENDCHAR
STARTCHAR 0165
ENCODING 357
SWIDTH 495 0
DWIDTH 33 0
BBX 26 47 4 -1
BITMAP
00007C00
00007C00
00007C00
00007C00
00007C00
00007800
01F07800
01F07800
01F07800
01F07800
01F07800
01F00000
01F00000
01F00000
01F00000
FFFFFF80
FFFFFF80
FFFFFF80
FFFFFF80
FFFFFF80
01F00000
01F00000
01F00000
01F00000
01F00000
01F00000
01F00000
01F00000
01F00000
01F00000
01F00000
01F00000
01F00000
01F00000
01F00000
01F00000
01F00000
01F80000
01F80000
01F80000
01FC0000
00FF0780
00FFFFC0
007FFFC0
003FFFC0
001FFF80
0003F800
ENDCHAR
STARTCHAR 0166
ENCODING 358
SWIDTH 495 0
DWIDTH 33 0
BBX 28 41 3 0
BITMAP
FFFFFFF0
FFFFFFF0
FFFFFFF0
FFFFFFF0
001F0000
001F0000
001F0000
001F0000
001F0000
001F0000
001F0000
001F0000
001F0000
001F0000
001F0000
001F0000
001F0000
001F0000
1FFFFF00
1FFFFF00
1FFFFF00
1FFFFF00
001F0000
001F0000
001F0000
001F0000
001F0000
001F0000
001F0000
001F0000
001F0000
001F0000
001F0000
001F0000
001F0000
001F0000
001F0000
001F0000
001F0000
001F0000
001F0000
ENDCHAR
STARTCHAR 0167
ENCODING 359
SWIDTH 495 0
DWIDTH 33 0
BBX 26 41 4 0
BITMAP
01F00000
01F00000
01F00000
01F00000
01F00000
01F00000
01F00000
01F00000
01F00000
FFFFFF80
FFFFFF80
FFFFFF80
FFFFFF80
FFFFFF80
01F00000
01F00000
01F00000
01F00000
01F00000
01F00000
01F00000
01F00000
FFFFFF80
FFFFFF80
FFFFFF80
FFFFFF80
01F00000
01F00000
01F00000
01F00000
01F00000
01F80000
01F80000
01F80000
01FC0000
00FF0780
00FFFFC0
007FFFC0
003FFFC0
001FFF80
0003F800
ENDCHAR
STARTCHAR 0168
ENCODING 360
SWIDTH 495 0
DWIDTH 33 0
BBX 27 54 3 -1
BITMAP
00600800
01FC1E00
03FFFC00
07FFFC00
07FFF800
0707F000
0301C000
00000000
00000000
00000000
00000000
00000000
FC0003E0
FC0003E0
FC0003E0
FC0003E0
FC0003E0
FC0003E0
FC0003E0
FC0003E0
FC0003E0
FC0003E0
FC0003E0
FC0003E0
FC0003E0
FC0003E0
FC0003E0
FC0003E0
FC0003E0
FC0003E0
FC0003E0
FC0003E0
FC0003E0
FC0003E0
FC0003E0
FC0003E0
FC0003E0
FC0003E0
FC0003E0
FC0003E0
FC0003E0
FC0007E0
FC0007E0
7C0007E0
7E0007E0
7E000FC0
7F000FC0
3F801FC0
3FC07F80
1FFFFF00
0FFFFE00
07FFFC00
01FFF800
003F8000
ENDCHAR
STARTCHAR 0169
ENCODING 361
SWIDTH 495 0
DWIDTH 33 0
BBX 24 45 5 -1
BITMAP
000020
03E078
0FFCF8
0FFFF0
1FFFE0
1E1FE0
1C0780
000000
000000
000000
000000
000000
000000
F8003F
F8003F
F8003F
F8003F
F8003F
F8003F
F8003F
F8003F
F8003F
F8003F
F8003F
F8003F
F8003F
F8003F
F8003F
F8003F
F8003F
F8003F
F8003F
F8003F
F8003F
F8003F
FC003F
FC003F
FE003F
7F003F
7FC0FF
3FFFFF
1FFFFF
0FFFFF
03FFFC
003F00
ENDCHAR
STARTCHAR 016A
ENCODING 362
SWIDTH 495 0
DWIDTH 33 0
BBX 27 53 3 -1
BITMAP
07FFFC00
07FFFC00
07FFFC00
07FFFC00
07FFFC00
00000000
00000000
00000000
00000000
00000000
00000000
FC0003E0
FC0003E0
FC0003E0
FC0003E0
FC0003E0
FC0003E0
FC0003E0
FC0003E0
FC0003E0
FC0003E0
FC0003E0
FC0003E0
FC0003E0
FC0003E0
FC0003E0
FC0003E0
FC0003E0
FC0003E0
FC0003E0
FC0003E0
FC0003E0
FC0003E0
FC0003E0
FC0003E0
FC0003E0
FC0003E0
FC0003E0
FC0003E0
FC0003E0
FC0007E0
FC0007E0
7C0007E0
7E0007E0
7E000FC0
7F000FC0
3F801FC0
3FC07F80
1FFFFF00
0FFFFE00
07FFFC00
01FFF800
003F8000
ENDCHAR
STARTCHAR 016B
ENCODING 363
SWIDTH 495 0
DWIDTH 33 0
BBX 24 43 5 -1
BITMAP
1FFFF0
1FFFF0
1FFFF0
1FFFF0
000000
000000
000000
000000
000000
000000
000000
F8003F
F8003F
F8003F
F8003F
F8003F
F8003F
F8003F
F8003F
F8003F
F8003F
F8003F
F8003F
F8003F
F8003F
F8003F
F8003F
F8003F
F8003F
F8003F
F8003F
F8003F
F8003F
FC003F
FC003F
FE003F
7F003F
7FC0FF
3FFFFF
1FFFFF
0FFFFF
03FFFC
003F00
ENDCHAR
STARTCHAR 016C
ENCODING 364
SWIDTH 495 0
DWIDTH 33 0
BBX 27 55 3 -1
BITMAP
03803C00
03C03C00
03C07800
03E07800
01FFF800
01FFF000
00FFE000
003FC000
00000000
00000000
00000000
00000000
00000000
FC0003E0
FC0003E0
FC0003E0
FC0003E0
FC0003E0
FC0003E0
FC0003E0
FC0003E0
FC0003E0
FC0003E0
FC0003E0
FC0003E0
FC0003E0
FC0003E0
FC0003E0
FC0003E0
FC0003E0
FC0003E0
FC0003E0
FC0003E0
FC0003E0
FC0003E0
FC0003E0
FC0003E0
FC0003E0
FC0003E0
FC0003E0
FC0003E0
FC0003E0
FC0007E0
FC0007E0
7C0007E0
7E0007E0
7E000FC0
7F000FC0
3F801FC0
3FC07F80
1FFFFF00
0FFFFE00
07FFFC00
01FFF800
003F8000
ENDCHAR
STARTCHAR 016D
ENCODING 365
SWIDTH 495 0
DWIDTH 33 0
BBX 24 46 5 -1
BITMAP
0E00F0
0F00F0
0F01E0
0F81E0
0FEFE0
07FFC0
03FF80
01FF00
003800
000000
000000
000000
000000
000000
F8003F
F8003F
F8003F
F8003F
F8003F
F8003F
F8003F
F8003F
F8003F
F8003F
F8003F
F8003F
F8003F
F8003F
F8003F
F8003F
F8003F
F8003F
F8003F
F8003F
F8003F
F8003F
FC003F
FC003F
FE003F
7F003F
7FC0FF
3FFFFF
1FFFFF
0FFFFF
03FFFC
003F00
ENDCHAR
STARTCHAR 016E
ENCODING 366
SWIDTH 495 0
DWIDTH 33 0
BBX 27 56 3 -1
BITMAP
003F8000
007FC000
00FBE000
00E0E000
00E07000
00E07000
00E07000
00E0F000
00F0E000
007FE000
003FC000
000F0000
00000000
00000000
FC0003E0
FC0003E0
FC0003E0
FC0003E0
FC0003E0
FC0003E0
FC0003E0
FC0003E0
FC0003E0
FC0003E0
FC0003E0
FC0003E0
FC0003E0
FC0003E0
FC0003E0
FC0003E0
FC0003E0
FC0003E0
FC0003E0
FC0003E0
FC0003E0
FC0003E0
FC0003E0
FC0003E0
FC0003E0
FC0003E0
FC0003E0
FC0003E0
FC0003E0
FC0007E0
FC0007E0
7C0007E0
7E0007E0
7E000FC0
7F000FC0
3F801FC0
3FC07F80
1FFFFF00
0FFFFE00
07FFFC00
01FFF800
003F8000
ENDCHAR
STARTCHAR 016F
ENCODING 367
SWIDTH 495 0
DWIDTH 33 0
BBX 24 47 5 -1
BITMAP
00FE00
01FF00
03EF80
038380
0381C0
0381C0
0381C0
0383C0
03C780
01FF80
00FF00
003800
000000
000000
000000
F8003F
F8003F
F8003F
F8003F
F8003F
F8003F
F8003F
F8003F
F8003F
F8003F
F8003F
F8003F
F8003F
F8003F
F8003F
F8003F
F8003F
F8003F
F8003F
F8003F
F8003F
F8003F
FC003F
FC003F
FE003F
7F003F
7FC0FF
3FFFFF
1FFFFF
0FFFFF
03FFFC
003F00
ENDCHAR
STARTCHAR 0170
ENCODING 368
SWIDTH 495 0
DWIDTH 33 0
BBX 27 56 3 -1
BITMAP
00080200
001C0700
003E0F80
003E1F80
007C1F00
00F83E00
01F87C00
01F0FC00
03E0F800
03C0F000
01806000
00000000
00000000
00000000
FC0003E0
FC0003E0
FC0003E0
FC0003E0
FC0003E0
FC0003E0
FC0003E0
FC0003E0
FC0003E0
FC0003E0
FC0003E0
FC0003E0
FC0003E0
FC0003E0
FC0003E0
FC0003E0
FC0003E0
FC0003E0
FC0003E0
FC0003E0
FC0003E0
FC0003E0
FC0003E0
FC0003E0
FC0003E0
FC0003E0
FC0003E0
FC0003E0
FC0003E0
FC0007E0
FC0007E0
7C0007E0
7E0007E0
7E000FC0
7F000FC0
3F801FC0
3FC07F80
1FFFFF00
0FFFFE00
07FFFC00
01FFF800
003F8000
ENDCHAR
STARTCHAR 0171
ENCODING 369
SWIDTH 495 0
DWIDTH 33 0
BBX 24 47 5 -1
BITMAP
002008
00701C
00F83E
00F87E
01F07C
03F0F8
07E1F8
07C1F0
0F83E0
0F07C0
060180
000000
000000
000000
000000
F8003F
F8003F
F8003F
F8003F
F8003F
F8003F
F8003F
F8003F
F8003F
F8003F
F8003F
F8003F
F8003F
F8003F
F8003F
F8003F
F8003F
F8003F
F8003F
F8003F
F8003F
F8003F
FC003F
FC003F
FE003F
7F003F
7FC0FF
3FFFFF
1FFFFF
0FFFFF
03FFFC
003F00
ENDCHAR
STARTCHAR 0172
ENCODING 370
SWIDTH 495 0
DWIDTH 33 0
BBX 27 52 3 -11
BITMAP
FC0003E0
FC0003E0
FC0003E0
FC0003E0
FC0003E0
FC0003E0
FC0003E0
FC0003E0
FC0003E0
FC0003E0
FC0003E0
FC0003E0
FC0003E0
FC0003E0
FC0003E0
FC0003E0
FC0003E0
FC0003E0
FC0003E0
FC0003E0
FC0003E0
FC0003E0
FC0003E0
FC0003E0
FC0003E0
FC0003E0
FC0003E0
FC0003E0
FC0003E0
FC0007E0
FC0007E0
7C0007E0
7E0007E0
7E000FC0
7F000FC0
3F801FC0
3FC07F80
1FFFFF00
1FFFFE00
0FFFFC00
07FFF800
01FFF000
000FC000
000F8000
001F0000
001F0000
001F0000
003F0000
001FF800
001FF800
000FF800
0007F800
ENDCHAR
STARTCHAR 0173
ENCODING 371
SWIDTH 495 0
DWIDTH 33 0
BBX 24 42 5 -11
BITMAP
F8003F
F8003F
F8003F
F8003F
F8003F
F8003F
F8003F
F8003F
F8003F
F8003F
F8003F
F8003F
F8003F
F8003F
F8003F
F8003F
F8003F
F8003F
F8003F
F8003F
F8003F
F8003F
FC003F
FC003F
FE003F
7F003F
7FC0FF
3FFFFF
1FFFFF
0FFFFF
03FFFE
003E7C
0000F8
0001F0
0003E0
0003E0
0007C0
0007E0
0007FE
0007FE
0003FE
0000FF
ENDCHAR
STARTCHAR 0174
ENCODING 372
SWIDTH 495 0
DWIDTH 33 0
BBX 29 55 2 0
BITMAP
00020000
00070000
000F8000
001FC000
003FE000
007FF000
00FDF800
00F8FC00
01F03E00
01E01C00
00C00800
00000000
00000000
00000000
F80000F8
FC0000F8
FC0000F8
FC0000F8
FC0000F8
FC0000F8
FC0000F8
FC0000F8
FC0000F8
7C0000F8
7C0000F8
7C0000F8
7C0000F8
7C0000F8
7C0000F0
7C0F80F0
7C0F80F0
7C0FC1F0
7C1FC1F0
7C1FC1F0
7C1FE1F0
7C3DE1F0
7C3DE1F0
7C3CF1F0
7C78F1F0
7C78F1F0
3C78F9F0
3CF079F0
3CF079E0
3CF07DE0
3DE03DE0
3DE03DE0
3DE03FE0
3FE01FE0
3FC01FE0
3FC01FE0
3FC00FE0
1F800FE0
1F800FC0
1F8007C0
1F0007C0
ENDCHAR
STARTCHAR 0175
ENCODING 373
SWIDTH 495 0
DWIDTH 33 0
BBX 31 46 1 0
BITMAP
00010000
00038000
0007C000
000FE000
001FF000
003FF800
003EF800
007C7C00
00F83E00
00F01E00
00600C00
00000000
00000000
00000000
00000000
F800003E
FC00003E
FC00003E
7C00003E
7C00003E
7C00003C
7C00007C
7C03C07C
7C07C07C
7C07E07C
7C07E07C
3E0FE07C
3E0FE07C
3E0FF078
3E1FF0F8
3E1EF0F8
3E1EF8F8
1E3E78F8
1F3C78F8
1F3C7CF0
1F7C3CF0
1F783DF0
1F783FF0
0FF01FF0
0FF01FE0
0FF00FE0
0FE00FE0
0FE00FE0
07C007E0
07C007C0
07C003C0
ENDCHAR
STARTCHAR 0176
ENCODING 374
SWIDTH 495 0
DWIDTH 33 0
BBX 31 55 1 0
BITMAP
00010000
00038000
0007C000
000FE000
001FF000
003FF800
007EFC00
007C7E00
00F81F00
00F00E00
00600400
00000000
00000000
00000000
FC00007E
7E00007E
7E0000FC
7E0000FC
3F0000FC
3F0001F8
1F8001F8
1F8003F0
0FC003F0
0FC003E0
0FC007E0
07E007C0
03E00FC0
03F00F80
01F01F80
01F81F00
00F83F00
00FC3E00
007E7C00
007E7C00
003FF800
003FF800
001FF000
000FF000
000FE000
0007E000
0007C000
0007C000
0007C000
0007C000
0007C000
0007C000
0007C000
0007C000
0007C000
0007C000
0007C000
0007C000
0007C000
0007C000
0007C000
ENDCHAR
STARTCHAR 0177
ENCODING 375
SWIDTH 495 0
DWIDTH 33 0
BBX 28 57 3 -11
BITMAP
00040000
000E0000
001F0000
001F8000
003FC000
007FE000
00FBF000
01F1F800
03E0FC00
03C07800
01801000
00000000
00000000
00000000
00000000
FC0003F0
7E0003E0
7E0007E0
7E0007E0
7E0007E0
3F0007C0
3F000FC0
3F000FC0
1F800FC0
1F800F80
1F801F80
0FC01F80
0FC01F00
0FC01F00
07E03F00
07E03E00
03E03E00
03F07E00
03F07C00
01F87C00
01F87C00
00F8F800
00FCF800
007CF800
007FF000
003FF000
003FF000
001FE000
001FE000
000FC000
000FC000
0007C000
000F8000
001F8000
001F0000
003F0000
007E0000
FFFC0000
FFF80000
FFF00000
FFE00000
FF800000
ENDCHAR
STARTCHAR 0178
ENCODING 376
SWIDTH 495 0
DWIDTH 33 0
BBX 31 53 1 0
BITMAP
00F00E00
01F81F00
01F83F80
01FC3F80
01F83F80
01F81F00
00F00E00
00000000
00000000
00000000
00000000
00000000
FC00007E
7E00007E
7E0000FC
7E0000FC
3F0000FC
3F0001F8
1F8001F8
1F8003F0
0FC003F0
0FC003E0
0FC007E0
07E007C0
03E00FC0
03F00F80
01F01F80
01F81F00
00F83F00
00FC3E00
007E7C00
007E7C00
003FF800
003FF800
001FF000
000FF000
000FE000
0007E000
0007C000
0007C000
0007C000
0007C000
0007C000
0007C000
0007C000
0007C000
0007C000
0007C000
0007C000
0007C000
0007C000
0007C000
0007C000
ENDCHAR
STARTCHAR 0179
ENCODING 377
SWIDTH 495 0
DWIDTH 33 0
BBX 26 55 4 0
BITMAP
00010000
00038000
0007C000
000FE000
000FC000
001F8000
003F0000
007E0000
00FC0000
00780000
00300000
00000000
00000000
00000000
7FFFFFC0
7FFFFFC0
7FFFFFC0
7FFFFFC0
00001F80
00001F80
00003F00
00007E00
00007E00
0000FC00
0001F800
0001F800
0003F000
0007E000
0007E000
000FC000
001F8000
001F8000
003F0000
003F0000
007E0000
00FC0000
00FC0000
01F80000
01F80000
03F00000
07E00000
07E00000
0FC00000
0FC00000
1F800000
1F000000
3F000000
3E000000
7E000000
7C000000
FFFFFFC0
FFFFFFC0
FFFFFFC0
FFFFFFC0
FFFFFFC0
ENDCHAR
STARTCHAR 017A
ENCODING 378
SWIDTH 495 0
DWIDTH 33 0
BBX 23 46 5 0
BITMAP
000200
000700
000F80
001FC0
001F80
003F00
007E00
00FC00
01F800
01F000
006000
000000
000000
000000
000000
7FFFFE
7FFFFE
7FFFFE
7FFFFE
7FFFFE
0001FC
0003F8
0003F0
0007E0
000FE0
001FC0
003F80
003F00
007E00
00FE00
00FC00
01F800
03F000
07F000
07E000
0FC000
1FC000
1F8000
3F0000
7F0000
7E0000
FFFFFE
FFFFFE
FFFFFE
FFFFFE
FFFFFE
ENDCHAR
STARTCHAR 017B
ENCODING 379
SWIDTH 495 0
DWIDTH 33 0
BBX 26 53 4 0
BITMAP
003E0000
007F0000
007F8000
007F8000
007F8000
007F0000
003F0000
00080000
00000000
00000000
00000000
00000000
7FFFFFC0
7FFFFFC0
7FFFFFC0
7FFFFFC0
00001F80
00001F80
00003F00
00007E00
00007E00
0000FC00
0001F800
0001F800
0003F000
0007E000
0007E000
000FC000
001F8000
001F8000
003F0000
003F0000
007E0000
00FC0000
00FC0000
01F80000
01F80000
03F00000
07E00000
07E00000
0FC00000
0FC00000
1F800000
1F000000
3F000000
3E000000
7E000000
7C000000
FFFFFFC0
FFFFFFC0
FFFFFFC0
FFFFFFC0
FFFFFFC0
ENDCHAR
STARTCHAR 017C
ENCODING 380
SWIDTH 495 0
DWIDTH 33 0
BBX 23 44 5 0
BITMAP
007C00
00FE00
00FE00
00FF00
00FF00
00FE00
007E00
003800
000000
000000
000000
000000
000000
7FFFFE
7FFFFE
7FFFFE
7FFFFE
7FFFFE
0001FC
0003F8
0003F0
0007E0
000FE0
001FC0
003F80
003F00
007E00
00FE00
00FC00
01F800
03F000
07F000
07E000
0FC000
1FC000
1F8000
3F0000
7F0000
7E0000
FFFFFE
FFFFFE
FFFFFE
FFFFFE
FFFFFE
ENDCHAR
STARTCHAR 017D
ENCODING 381
SWIDTH 495 0
DWIDTH 33 0
BBX 26 55 4 0
BITMAP
03002000
0780F000
07C1F800
03E3F000
01F7E000
00FFC000
007F8000
007F0000
003E0000
001C0000
00080000
00000000
00000000
00000000
7FFFFFC0
7FFFFFC0
7FFFFFC0
7FFFFFC0
00001F80
00001F80
00003F00
00007E00
00007E00
0000FC00
0001F800
0001F800
0003F000
0007E000
0007E000
000FC000
001F8000
001F8000
003F0000
003F0000
007E0000
00FC0000
00FC0000
01F80000
01F80000
03F00000
07E00000
07E00000
0FC00000
0FC00000
1F800000
1F000000
3F000000
3E000000
7E000000
7C000000
FFFFFFC0
FFFFFFC0
FFFFFFC0
FFFFFFC0
FFFFFFC0
ENDCHAR
STARTCHAR 017E
ENCODING 382
SWIDTH 495 0
DWIDTH 33 0
BBX 23 46 5 0
BITMAP
040040
0700E0
0F81F0
0FC3E0
07EFC0
03FF80
01FF00
00FE00
007C00
003800
001000
000000
000000
000000
000000
7FFFFE
7FFFFE
7FFFFE
7FFFFE
7FFFFE
0001FC
0003F8
0003F0
0007E0
000FE0
001FC0
003F80
003F00
007E00
00FE00
00FC00
01F800
03F000
07F000
07E000
0FC000
1FC000
1F8000
3F0000
7F0000
7E0000
FFFFFE
FFFFFE
FFFFFE
FFFFFE
FFFFFE
ENDCHAR
STARTCHAR 017F
ENCODING 383
SWIDTH 495 0
DWIDTH 33 0
BBX 21 46 11 0
BITMAP
01FF80
07FFF8
1FFFF8
3FFFF8
3FFFF8
7F0030
7E0000
FC0000
FC0000
F80000
F80000
F80000
F80000
F80000
F80000
F80000
F80000
F80000
F80000
F80000
F80000
F80000
F80000
F80000
F80000
F80000
F80000
F80000
F80000
F80000
F80000
F80000
F80000
F80000
F80000
F80000
F80000
F80000
F80000
F80000
F80000
F80000
F80000
F80000
F80000
F80000
ENDCHAR
STARTCHAR 0180
ENCODING 384
SWIDTH 495 0
DWIDTH 33 0
BBX 30 47 1 -1
BITMAP
03C00000
07C00000
07C00000
07C00000
07C00000
FFFFF800
FFFFF800
FFFFF800
FFFFF800
07C00000
07C00000
07C00000
07C00000
07C00000
07C1E000
07CFFC00
07FFFF00
07FFFF80
07FFFFC0
07FC3FE0
07F00FE0
07C003F0
07C003F0
07C001F8
07C001F8
07C001F8
07C000F8
07C000FC
07C000FC
07C000FC
07C000FC
07C000FC
07C000FC
07C000FC
07C000F8
07C001F8
07C001F8
07C001F8
07C003F0
07C007F0
07C00FE0
07E03FC0
07FFFFC0
07FFFF80
07FFFE00
03FFFC00
001FC000
ENDCHAR
STARTCHAR 0181
ENCODING 385
SWIDTH 495 0
DWIDTH 33 0
BBX 31 42 1 0
BITMAP
0007F800
03FFFF00
0FFFFFC0
1FFFFFE0
3FFFFFF0
7FFE07F0
7E3E03F8
FC3E01F8
F83E01F8
F83E00F8
F83E00F8
F83E00F8
603E00F8
003E00F8
003E01F8
003E01F0
003E03F0
003E0FE0
003FFFC0
003FFF80
003FFF80
003FFFE0
003FFFF0
003E03F8
003E01FC
003E00FC
003E007E
003E007E
003E003E
003E003E
003E003E
003E003E
003E007E
003E007E
003E007E
003E00FC
003E01FC
003E0FF8
003FFFF8
003FFFF0
003FFFC0
003FFF00
ENDCHAR
STARTCHAR 0182
ENCODING 386
SWIDTH 495 0
DWIDTH 33 0
BBX 26 41 4 0
BITMAP
FFFFFC00
FFFFFC00
FFFFFC00
FFFFFC00
F8000000
F8000000
F8000000
F8000000
F8000000
F8000000
F8000000
F8000000
F8000000
F8000000
F8000000
FFC00000
FFFFC000
FFFFF000
FFFFFC00
FFFFFE00
F803FF00
F8007F80
F8001F80
F8001F80
F8000FC0
F8000FC0
F8000FC0
F80007C0
F80007C0
F80007C0
F8000FC0
F8000FC0
F8000FC0
F8001F80
F8003F80
F800FF00
F80FFF00
FFFFFE00
FFFFF800
FFFFE000
FFFF8000
ENDCHAR
STARTCHAR 0183
ENCODING 387
SWIDTH 495 0
DWIDTH 33 0
BBX 26 47 5 -1
BITMAP
FFFFFC00
FFFFFC00
FFFFFC00
FFFFFC00
FFFFFC00
F8000000
F8000000
F8000000
F8000000
F8000000
F8000000
F8000000
F8000000
F8000000
F83C0000
F9FFC000
FFFFF000
FFFFF800
FFFFFC00
FF83FE00
FE00FE00
F8007F00
F8003F00
F8001F80
F8001F80
F8001F80
F8000F80
F8000F80
F8000FC0
F8000FC0
F8000FC0
F8000FC0
F8000FC0
F8000F80
F8000F80
F8001F80
F8001F80
F8003F80
F8003F00
F8007F00
F800FE00
FE07FC00
FFFFF800
FFFFF000
FFFFE000
7FFF8000
01FC0000
ENDCHAR
STARTCHAR 0184
ENCODING 388
SWIDTH 495 0
DWIDTH 33 0
BBX 30 47 1 -1
BITMAP
01800000
0F800000
3F800000
FF800000
FF800000
7F800000
3F800000
1F800000
0F800000
0F800000
0F800000
0F800000
0F800000
0F800000
0F83C000
0F9FFC00
0FFFFF00
0FFFFF80
0FFFFFC0
0FF83FE0
0FE00FE0
0FC007F0
0F8003F0
0F8001F8
0F8001F8
0F8001F8
0F8000F8
0F8000F8
0F8000FC
0F8000FC
0F8000FC
0F8000FC
0F8000FC
0F8000F8
0F8000F8
0F8001F8
0F8001F8
0F8003F8
0F8003F0
0F8007F0
0F800FE0
0FE07FC0
0FFFFF80
0FFFFF00
0FFFFE00
07FFF800
001FC000
ENDCHAR
STARTCHAR 0185
ENCODING 389
SWIDTH 495 0
DWIDTH 33 0
BBX 29 41 1 1
BITMAP
03800000
1F800000
7F800000
FF800000
7F800000
7F800000
3F800000
1F800000
0F800000
0F800000
0F800000
0F800000
0F800000
0F800000
0F800000
0FFFF000
0FFFFE00
0FFFFF80
0FFFFFC0
0F807FE0
0F800FE0
0F8007F0
0F8003F0
0F8001F8
0F8001F8
0F8001F8
0F8000F8
0F8000F8
0F8000F8
0F8000F8
0F8001F8
0F8001F8
0F8001F8
0F8003F0
0F8007F0
0F800FE0
0FC0FFE0
0FFFFFC0
0FFFFF00
0FFFFE00
0FFFF000
ENDCHAR
STARTCHAR 0186
ENCODING 390
SWIDTH 495 0
DWIDTH 33 0
BBX 27 43 3 -1
BITMAP
07FF0000
3FFFC000
FFFFF000
FFFFF800
7FFFFC00
7003FE00
4000FF00
00007F00
00003F80
00001F80
00000FC0
00000FC0
00000FC0
000007C0
000007E0
000007E0
000007E0
000007E0
000003E0
000003E0
000003E0
000003E0
000003E0
000003E0
000003E0
000007E0
000007E0
000007E0
000007E0
000007C0
00000FC0
00000FC0
00001F80
00001F80
00003F00
00007F00
6001FE00
7C07FC00
FFFFFC00
FFFFF000
FFFFE000
3FFF8000
03FC0000
ENDCHAR
STARTCHAR 0187
ENCODING 391
SWIDTH 495 0
DWIDTH 33 0
BBX 30 48 3 -1
BITMAP
000000F8
000003FC
000007F8
000007F8
00000FF8
000FFF80
007FFF00
00FFFF00
01FFFF00
03FFFE00
07F80E00
0FE00000
1FC00000
1F800000
3F000000
3F000000
3E000000
7E000000
7E000000
7C000000
7C000000
FC000000
FC000000
FC000000
FC000000
FC000000
FC000000
FC000000
FC000000
FC000000
FC000000
FC000000
FC000000
7C000000
7E000000
7E000000
7E000000
3F000000
3F000000
1F800000
1FC00000
0FE00100
0FF80F00
07FFFF80
03FFFF80
00FFFF80
007FFE00
000FE000
ENDCHAR
STARTCHAR 0188
ENCODING 392
SWIDTH 495 0
DWIDTH 33 0
BBX 29 38 3 -1
BITMAP
000003F8
000007F8
00000FF8
00000FF8
00001F80
0007FF00
007FFF00
01FFFE00
03FFFE00
07FFFE00
0FF81E00
1FC00000
3F800000
3F000000
3F000000
7E000000
7E000000
7C000000
FC000000
FC000000
FC000000
FC000000
FC000000
FC000000
FC000000
7C000000
7E000000
7E000000
7F000000
3F000000
3F800000
1FE00000
0FFC0F00
0FFFFF00
03FFFF00
01FFFF00
007FFF00
0007E000
ENDCHAR
STARTCHAR 0189
ENCODING 393
SWIDTH 495 0
DWIDTH 33 0
BBX 30 42 1 0
BITMAP
007C0000
0FFFE000
0FFFF800
0FFFFE00
0FFFFF00
0F80FF80
0F803FC0
0F800FC0
0F8007E0
0F8007E0
0F8003F0
0F8003F0
0F8001F8
0F8001F8
0F8001F8
0F8000F8
0F8000F8
0F8000F8
FFFF00FC
FFFF00FC
FFFF00FC
FFFF00FC
FFFF00FC
0F8000FC
0F8000FC
0F8000F8
0F8000F8
0F8000F8
0F8001F8
0F8001F8
0F8001F0
0F8003F0
0F8003F0
0F8007E0
0F800FE0
0F801FC0
0F803F80
0FC7FF80
0FFFFF00
0FFFFC00
0FFFF800
07FFC000
ENDCHAR
STARTCHAR 018A
ENCODING 394
SWIDTH 495 0
DWIDTH 33 0
BBX 31 42 1 0
BITMAP
001FC000
03FFFC00
0FFFFF00
1FFFFFC0
3FFFFFE0
7FFE0FE0
7E3E07F0
FC3E03F8
F83E01F8
F83E00F8
F83E00FC
F83E00FC
603E007C
003E007E
003E007E
003E007E
003E007E
003E003E
003E003E
003E003E
003E003E
003E003E
003E003E
003E003E
003E003E
003E007E
003E007E
003E007E
003E007E
003E007C
003E007C
003E00FC
003E00FC
003E00F8
003E01F8
003E03F0
003E07F0
003F3FE0
003FFFC0
003FFF80
003FFF00
003FFC00
ENDCHAR
STARTCHAR 018B
ENCODING 395
SWIDTH 495 0
DWIDTH 33 0
BBX 27 41 3 0
BITMAP
0FFFFFE0
0FFFFFE0
0FFFFFE0
0FFFFFE0
000007E0
000007E0
000007E0
000007E0
000007E0
000007E0
000007E0
000007E0
000007E0
000007E0
000007E0
0001FFE0
00FFFFE0
03FFFFE0
0FFFFFE0
1FFFFFE0
3FF007E0
3F8007E0
7F0007E0
7E0007E0
7C0007E0
FC0007E0
FC0007E0
FC0007E0
FC0007E0
FC0007E0
FC0007E0
7C0007E0
7E0007E0
7E0007E0
3F0007E0
3FC007E0
1FFC07E0
0FFFFFE0
07FFFFE0
01FFFFE0
007FFFC0
ENDCHAR
STARTCHAR 018C
ENCODING 396
SWIDTH 495 0
DWIDTH 33 0
BBX 26 47 3 -1
BITMAP
1FFFFFC0
1FFFFFC0
1FFFFFC0
1FFFFFC0
1FFFFFC0
00000FC0
00000FC0
00000FC0
00000FC0
00000FC0
00000FC0
00000FC0
00000FC0
00000FC0
001E0FC0
01FFEFC0
03FFFFC0
0FFFFFC0
0FFFFFC0
1FE0FFC0
3F803FC0
3F000FC0
7E000FC0
7E000FC0
FC000FC0
FC000FC0
FC000FC0
FC000FC0
F8000FC0
F8000FC0
F8000FC0
F8000FC0
F8000FC0
FC000FC0
FC000FC0
FC000FC0
FC000FC0
7E000FC0
7F000FC0
3F000FC0
3FC00FC0
1FF01FC0
0FFFFFC0
07FFFFC0
03FFFFC0
00FFFF00
001FE000
ENDCHAR
STARTCHAR 018D
ENCODING 397
SWIDTH 495 0
DWIDTH 33 0
BBX 28 43 3 -11
BITMAP
000F0000
01FFF000
07FFFC00
0FFFFE00
1FFFFF00
3FE0FF80
3F803FC0
7F000FC0
7E000FE0
FC0007E0
FC0007E0
FC0003E0
F80003F0
F80003F0
F80003F0
F80003F0
F80003F0
FC0003E0
FC0007E0
FC0007E0
7E0007E0
7F000FC0
3F001FC0
1F803F80
0FE07F00
07F1FE00
03FFFC00
01FFF800
007FE000
003FE000
001FF000
0007F800
0003FC00
0000FC00
00007E00
00007E00
00007E00
10007E00
1FC7FC00
1FFFFC00
3FFFF800
3FFFE000
03FF8000
ENDCHAR
STARTCHAR 018E
ENCODING 398
SWIDTH 495 0
DWIDTH 33 0
BBX 24 41 3 0
BITMAP
7FFFFF
7FFFFF
7FFFFF
7FFFFF
00001F
00001F
00001F
00001F
00001F
00001F
00001F
00001F
00001F
00001F
00001F
00001F
00001F
1FFFFF
1FFFFF
1FFFFF
1FFFFF
1FFFFF
00001F
00001F
00001F
00001F
00001F
00001F
00001F
00001F
00001F
00001F
00001F
00001F
00001F
00001F
FFFFFF
FFFFFF
FFFFFF
FFFFFF
FFFFFF
ENDCHAR
STARTCHAR 018F
ENCODING 399
SWIDTH 495 0
DWIDTH 33 0
BBX 29 43 2 -1
BITMAP
01FFC000
0FFFF000
3FFFFC00
1FFFFE00
1FEFFF00
1E007F80
08003FC0
00000FC0
00000FE0
000007E0
000003F0
000003F0
000001F0
000001F8
000001F8
000001F8
000000F8
000000F8
000000F8
000000F8
FFFFFFF8
FFFFFFF8
FFFFFFF8
FFFFFFF8
FFFFFFF8
F80000F8
F80000F8
F80001F8
F80001F8
FC0001F8
FC0001F0
7C0003F0
7C0003F0
7E0007E0
3E0007E0
3F000FC0
1F801FC0
1FE07F80
0FFFFF00
07FFFE00
03FFFC00
00FFF000
003F8000
ENDCHAR
STARTCHAR 0190
ENCODING 400
SWIDTH 495 0
DWIDTH 33 0
BBX 28 43 3 -1
BITMAP
003FF800
01FFFF80
07FFFFE0
0FFFFFC0
1FFFFFC0
1FE00780
3F800080
3F000000
3F000000
3E000000
3E000000
3E000000
3E000000
3F000000
3F000000
1F800000
0FE00000
07FE0000
03FFF800
00FFF800
01FFF800
07FFF800
1FFFF800
3FE00000
7F000000
7E000000
FC000000
FC000000
F8000000
F8000000
F8000000
F8000000
F8000000
FC000000
FC000000
FE000020
7F0000E0
3FE007E0
3FFFFFF0
1FFFFFF0
07FFFFE0
01FFFF00
001FF000
ENDCHAR
STARTCHAR 0191
ENCODING 401
SWIDTH 495 0
DWIDTH 33 0
BBX 30 52 0 -11
BITMAP
01FFFFFC
01FFFFFC
01FFFFFC
01FFFFFC
01F00000
01F00000
01F00000
01F00000
01F00000
01F00000
01F00000
01F00000
01F00000
01F00000
01F00000
01F00000
01F00000
01FFFFF0
01FFFFF0
01FFFFF0
01FFFFF0
01FFFFF0
01F00000
01F00000
01F00000
01F00000
01F00000
01F00000
01F00000
01F00000
01F00000
01F00000
01F00000
01F00000
01F00000
01F00000
01F00000
01F00000
01F00000
01F00000
01F00000
01F00000
01F00000
01F00000
03F00000
03F00000
03F00000
1FE00000
7FE00000
FFC00000
FF800000
FF000000
ENDCHAR
STARTCHAR 0192
ENCODING 402
SWIDTH 495 0
DWIDTH 33 0
BBX 31 57 1 -11
BITMAP
00007FE0
0001FFFE
0007FFFE
000FFFFE
000FFFFE
001FC00C
001F8000
003F0000
003F0000
003E0000
003E0000
003E0000
003E0000
003E0000
003E0000
1FFFFFF0
1FFFFFF0
1FFFFFF0
1FFFFFF0
1FFFFFF0
003E0000
003E0000
003E0000
003E0000
003E0000
003E0000
003E0000
003E0000
003E0000
003E0000
003E0000
003E0000
003E0000
003E0000
003E0000
003E0000
003E0000
003E0000
003E0000
003E0000
003E0000
003E0000
003E0000
003E0000
003E0000
003E0000
003E0000
003E0000
007E0000
007E0000
007E0000
01FC0000
6FFC0000
FFF80000
FFF00000
FFE00000
FF800000
ENDCHAR
STARTCHAR 0193
ENCODING 403
SWIDTH 495 0
DWIDTH 33 0
BBX 30 48 3 -1
BITMAP
000000F8
000003FC
000007F8
000007F8
00000FF8
000FFF80
007FFF00
00FFFF00
01FFFF00
03FFFE00
07F80600
0FE00000
1FC00000
1F800000
3F000000
3F000000
3E000000
7E000000
7E000000
7C000000
FC000000
FC000000
FC000000
FC000000
FC000000
FC000000
FC000000
FC0003E0
FC0003E0
FC0003E0
FC0003E0
FC0003E0
FC0003E0
7C0003E0
7E0003E0
7E0003E0
7E0003E0
3F0003E0
3F0003E0
1F8003E0
1FC003E0
0FE003E0
07FC07E0
07FFFFE0
03FFFFE0
00FFFFE0
003FFFC0
0007FC00
ENDCHAR
STARTCHAR 0194
ENCODING 404
SWIDTH 495 0
DWIDTH 33 0
BBX 31 52 1 -11
BITMAP
FC00003E
7C00007E
7E00007C
7E0000FC
3E0000FC
3F0000F8
3F0001F8
1F0001F0
1F8001F0
0F8003F0
0FC003E0
0FC007E0
07C007C0
07E007C0
03E00FC0
03F00F80
03F01F80
01F01F00
01F81F00
00F83F00
00FC3E00
007C3E00
007C7C00
007E7C00
003EF800
003FF800
001FF800
001FF000
000FF000
000FE000
0007E000
000FE000
000FE000
001FF000
001FF800
003FF800
003EFC00
007C7C00
007C7E00
00F83E00
00F83E00
00F81F00
01F01F00
01F01F00
01F01F00
01F81F00
00F83F00
00FFFE00
007FFE00
007FFC00
001FF800
000FE000
ENDCHAR
STARTCHAR 0195
ENCODING 405
SWIDTH 495 0
DWIDTH 33 0
BBX 29 47 2 -1
BITMAP
3C000000
FC000000
FC000000
FC000000
FC000000
FC000000
FC000000
FC000000
FC000000
FC000000
FC000000
FC000000
FC000000
FC000000
FC400000
FFF800F8
FFFE00F8
FFFE00F8
FFFF00F8
FE3F00F8
FC1F80F8
FC1F80F8
FC1F80F8
FC0F80F8
FC0F80F8
FC0F80F8
FC0F80F8
FC0F80F8
FC0F80F8
FC0F80F8
FC0F80F8
FC0F80F8
FC0F80F8
FC0F80F8
FC0F80F8
FC0F81F8
FC0F81F8
FC0F81F8
FC0F81F8
FC0F81F0
FC0FC1F0
FC0FE7F0
FC07FFE0
FC07FFE0
FC03FFC0
FC01FF80
00003C00
ENDCHAR
STARTCHAR 0196
ENCODING 406
SWIDTH 495 0
DWIDTH 33 0
BBX 25 42 5 -1
BITMAP
FFFFFC00
FFFFFC00
FFFFFC00
FFFFFC00
00F80000
00F80000
00F80000
00F80000
00F80000
00F80000
00F80000
00F80000
00F80000
00F80000
00F80000
00F80000
00F80000
00F80000
00F80000
00F80000
00F80000
00F80000
00F80000
00F80000
00F80000
00F80000
00F80000
00F80000
00F80000
00F80000
00F80000
00F80000
00F80000
00F80000
00FC0000
00FC0000
00FF0380
007FFF80
007FFF80
003FFF80
000FFF80
0003FC00
ENDCHAR
STARTCHAR 0197
ENCODING 407
SWIDTH 495 0
DWIDTH 33 0
BBX 21 41 6 0
BITMAP
FFFFF8
FFFFF8
FFFFF8
FFFFF8
00F800
00F800
00F800
00F800
00F800
00F800
00F800
00F800
00F800
00F800
00F800
00F800
00F800
3FFFE0
3FFFE0
3FFFE0
3FFFE0
3FFFE0
00F800
00F800
00F800
00F800
00F800
00F800
00F800
00F800
00F800
00F800
00F800
00F800
00F800
00F800
FFFFF8
FFFFF8
FFFFF8
FFFFF8
FFFFF8
ENDCHAR
STARTCHAR 0198
ENCODING 408
SWIDTH 495 0
DWIDTH 33 0
BBX 30 42 4 0
BITMAP
000007E0
FC001FF0
FC003FFC
FC007FF8
FC007FF8
FC00FC30
FC01F800
FC03F800
FC03F000
FC07E000
FC0FC000
FC1FC000
FC1F8000
FC3F0000
FC7E0000
FCFE0000
FCFC0000
FDF80000
FFF80000
FFF00000
FFF00000
FFFC0000
FFFE0000
FDFF0000
FC7F8000
FC3FC000
FC1FC000
FC0FE000
FC07F000
FC03F800
FC01FC00
FC00FE00
FC00FE00
FC007F00
FC003F80
FC001F80
FC001FC0
FC000FC0
FC000FE0
FC0007F0
FC0003F0
FC0003F8
ENDCHAR
STARTCHAR 0199
ENCODING 409
SWIDTH 495 0
DWIDTH 33 0
BBX 27 46 5 0
BITMAP
0FF00000
3FF00000
3FF00000
7FF00000
FF100000
FC000000
FC000000
F8000000
F8000000
F8000000
F8000000
F8000000
F8000000
F8000000
F8000000
F8001F80
F8003F00
F8007F00
F800FE00
F801FC00
F803F800
F807E000
F80FC000
F83F8000
F87F0000
F8FE0000
F9FC0000
FBF80000
FFE00000
FFF00000
FFF80000
FBFC0000
F9FE0000
F8FF0000
F83F8000
F81FC000
F80FE000
F807F000
F803F800
F801FC00
F800FE00
F8007F00
F8003F00
F8001F80
F8001FC0
F8000FE0
ENDCHAR
STARTCHAR 019A
ENCODING 410
SWIDTH 495 0
DWIDTH 33 0
BBX 26 47 4 -1
BITMAP
FFFC0000
FFFC0000
FFFC0000
FFFC0000
FFFC0000
007C0000
007C0000
007C0000
007C0000
007C0000
007C0000
007C0000
007C0000
007C0000
007C0000
007C0000
007C0000
007C0000
007C0000
007C0000
FFFFFE00
FFFFFE00
FFFFFE00
FFFFFE00
007C0000
007C0000
007C0000
007C0000
007C0000
007C0000
007C0000
007C0000
007C0000
007C0000
007C0000
007C0000
007C0000
007C0000
007C0000
007E0000
007E0000
003F8780
003FFFC0
001FFFC0
001FFFC0
0007FF80
0001F800
ENDCHAR
STARTCHAR 019B
ENCODING 411
SWIDTH 495 0
DWIDTH 33 0
BBX 29 46 2 0
BITMAP
3FC00000
3FE00000
3FF00000
3FF80000
03FC0E00
00FC7E00
007FFE00
003FFE00
00FFF000
07FF8000
0FFF8000
0FFF8000
078FC000
040FC000
0007C000
000FE000
000FE000
001FF000
001FF000
003FF000
003FF800
007EF800
007CF800
00FCFC00
00F87C00
01F87E00
01F07E00
01F03E00
03E03F00
03E03F00
07E01F00
07C01F80
0FC01F80
0F800F80
0F800FC0
1F800FC0
1F000FC0
1F0007E0
3F0007E0
3E0007E0
3E0003F0
7E0003F0
7C0003F0
7C0003F8
FC0001F8
FC0001F8
ENDCHAR
STARTCHAR 019C
ENCODING 412
SWIDTH 495 0
DWIDTH 33 0
BBX 27 42 3 -1
BITMAP
F80003E0
F80003E0
F80003E0
F80003E0
F80003E0
F80003E0
F80003E0
F80003E0
F80003E0
F80003E0
F80003E0
F80003E0
F80003E0
F80003E0
F80003E0
F81F03E0
F81F03E0
F81F03E0
F81F03E0
F81F03E0
F81F03E0
F81F03E0
F81F03E0
F81F03E0
F81F03E0
F81F03E0
F81F03E0
F81F03E0
F81F03E0
F81F03E0
F81F03E0
F81F03E0
F81F03E0
F80F83E0
FC0F83E0
7C0F83E0
7E0FC3E0
3FFFFFE0
3FFFFFE0
1FFFFFE0
0FFEFFE0
01F03F00
ENDCHAR
STARTCHAR 019D
ENCODING 413
SWIDTH 495 0
DWIDTH 33 0
BBX 33 52 -3 -11
BITMAP
01F8000F80
01F8000F80
01FC000F80
01FC000F80
01FE000F80
01FE000F80
01FF000F80
01FF800F80
01FF800F80
01FFC00F80
01F7C00F80
01F7E00F80
01F3E00F80
01F1F00F80
01F1F00F80
01F0F80F80
01F0F80F80
01F07C0F80
01F07C0F80
01F03E0F80
01F03E0F80
01F01F0F80
01F01F0F80
01F00F8F80
01F00F8F80
01F007CF80
01F007CF80
01F003EF80
01F003EF80
01F001FF80
01F001FF80
01F000FF80
01F000FF80
01F0007F80
01F0007F80
01F0003F80
01F0003F80
01F0003F80
01F0001F80
01F0001F80
01F0001F80
01F0000000
01F0000000
01F0000000
03E0000000
03E0000000
03E0000000
1FE0000000
FFC0000000
FFC0000000
FF80000000
FE00000000
ENDCHAR
STARTCHAR 019E
ENCODING 414
SWIDTH 495 0
DWIDTH 33 0
BBX 24 43 5 -11
BITMAP
003800
3FFF80
FFFFE0
FFFFF8
FFFFF8
FC03FC
F800FE
F8007E
F8007E
F8003E
F8003F
F8003F
F8003F
F8003F
F8003F
F8003F
F8003F
F8003F
F8003F
F8003F
F8003F
F8003F
F8003F
F8003F
F8003F
F8003F
F8003F
F8003F
F8003F
F8003F
F8003F
F8003F
00003F
00003F
00003F
00003F
00003F
00003F
00003F
00003F
00003F
00003F
00003F
ENDCHAR
STARTCHAR 019F
ENCODING 415
SWIDTH 495 0
DWIDTH 33 0
BBX 29 43 2 -1
BITMAP
003FE000
00FFF800
03FFFE00
07FFFF00
0FFFFF80
0FE03FC0
1F800FC0
1F8007E0
3F0007E0
3E0003F0
7E0003F0
7E0001F0
7C0001F8
7C0001F8
FC0001F8
FC0001F8
FC0000F8
FC0000F8
FC0000F8
FFFFFFF8
FFFFFFF8
FFFFFFF8
FFFFFFF8
FC0000F8
FC0000F8
FC0000F8
FC0000F8
FC0001F8
FC0001F8
7C0001F8
7E0001F0
7E0003F0
7E0003F0
3F0003F0
3F0007E0
1F800FE0
1FC01FC0
0FE03F80
07FFFF80
03FFFF00
01FFFE00
00FFF800
001FC000
ENDCHAR
STARTCHAR 01A0
ENCODING 416
SWIDTH 495 0
DWIDTH 33 0
BBX 31 49 2 -1
BITMAP
0000007E
0000007E
0000003E
0000007E
0000007E
0000007E
003FE07C
00FFF87C
03FFFEF8
07FFFFF8
0FFFFFF0
0FE03FE0
1F800FC0
1F8007E0
3F0007E0
3E0003F0
7E0003F0
7E0001F0
7C0001F8
7C0001F8
FC0001F8
FC0001F8
FC0000F8
FC0000F8
FC0000F8
FC0000F8
FC0000F8
FC0000F8
FC0000F8
FC0000F8
FC0000F8
FC0000F8
FC0000F8
FC0001F8
FC0001F8
7C0001F8
7C0001F0
7E0003F0
7E0003F0
3F0003F0
3F0007E0
1F800FE0
1FC01FC0
0FE03F80
07FFFF80
03FFFF00
01FFFE00
00FFF800
001FC000
ENDCHAR
STARTCHAR 01A1
ENCODING 417
SWIDTH 495 0
DWIDTH 33 0
BBX 29 38 3 -1
BITMAP
000001F8
000000F8
000000F8
000001F8
000001F0
001F01F0
00FFE1F0
03FFFBF0
07FFFFE0
0FFFFFC0
1FE0FFC0
3F803F80
3F001FC0
7E000FC0
7E0007E0
FC0007E0
FC0007E0
FC0003E0
FC0003E0
F80003F0
F80003F0
F80003F0
F80003F0
F80003F0
FC0003E0
FC0003E0
FC0007E0
FC0007E0
7E0007E0
7E000FC0
3F001FC0
3F803F80
1FE0FF00
0FFFFF00
07FFFE00
03FFF800
00FFE000
001F0000
ENDCHAR
STARTCHAR 01A2
ENCODING 418
SWIDTH 495 0
DWIDTH 33 0
BBX 28 43 3 -1
BITMAP
03F87F00
07FCFF80
0FFFFFC0
1FFFFFE0
1FBFFFE0
3F1FC3F0
3E0F83F0
7E0FC1F0
7C07C1F0
7C07C1F0
7C07E1F0
7C07E1F0
FC03E1F0
FC03E1F0
F803E1F0
F803E1F0
F803E1F0
F803E1F0
F803E1F0
F803E1F0
F803E1F0
F803E1F0
F803E1F0
F803E1F0
F803E1F0
F803E1F0
F803E1F0
F803E1F0
FC03E1F0
FC03E1F0
7C03E1F0
7C07E1F0
7C07C1F0
7C07C1F0
7E07C1F0
3E0FC1F0
3E0F81F0
3F1F81F0
1FFF01F0
1FFF01F0
0FFE01F0
07FC01F0
01F00000
ENDCHAR
STARTCHAR 01A3
ENCODING 419
SWIDTH 495 0
DWIDTH 33 0
BBX 28 43 2 -11
BITMAP
01E01C00
07F8FF00
0FFFFFC0
1FFFFFC0
3FFFFFE0
3E1FCFE0
7E1F83E0
7C0F83E0
7C0F83F0
FC0FC3F0
F807C3F0
F807C3F0
F807C3F0
F807C1F0
F807C1F0
F807C1F0
F807C1F0
F807C1F0
F807C1F0
F807C1F0
F807C1F0
F807C1F0
F807C1F0
F80FC1F0
7C0F81F0
7C0F81F0
7C0F81F0
3E1F01F0
3FFF01F0
1FFE01F0
0FFC01F0
07F801F0
01E001F0
000001F0
000001F0
000001F0
000001F0
000001F0
000001F0
000001F0
000001F0
000001F0
000001F0
ENDCHAR
STARTCHAR 01A4
ENCODING 420
SWIDTH 495 0
DWIDTH 33 0
BBX 30 42 1 0
BITMAP
000FF000
03FFFF00
0FFFFFC0
1FFFFFE0
3FFFFFF0
7FFE07F8
7E3E01F8
FC3E01F8
F83E00FC
F83E00FC
F83E00FC
F83E007C
603E007C
003E007C
003E007C
003E007C
003E00FC
003E00FC
003E00FC
003E01F8
003E03F8
003E07F0
003FFFF0
003FFFE0
003FFFC0
003FFF00
003FE000
003E0000
003E0000
003E0000
003E0000
003E0000
003E0000
003E0000
003E0000
003E0000
003E0000
003E0000
003E0000
003E0000
003E0000
003E0000
ENDCHAR
STARTCHAR 01A5
ENCODING 421
SWIDTH 495 0
DWIDTH 33 0
BBX 26 57 5 -11
BITMAP
0FF00000
3FF00000
3FF00000
7FF00000
FF100000
FC000000
FC000000
F8000000
F8000000
F8000000
F8000000
F8000000
F8000000
F8000000
F8380000
FBFF8000
FFFFE000
FFFFF000
FFFFF800
FF87FC00
F801FE00
F8007F00
F8003F00
F8003F00
F8001F80
F8001F80
F8000F80
F8000F80
F8000FC0
F8000FC0
F8000FC0
F8000FC0
F8000FC0
F8000FC0
F8000F80
F8001F80
F8001F80
F8001F80
F8003F00
F8007F00
FE00FE00
FF83FE00
FFFFFC00
FFFFF800
FFFFF000
FBFFC000
F83E0000
F8000000
F8000000
F8000000
F8000000
F8000000
F8000000
F8000000
F8000000
F8000000
F8000000
ENDCHAR
STARTCHAR 01A6
ENCODING 422
SWIDTH 495 0
DWIDTH 33 0
BBX 28 52 4 -6
BITMAP
F8000000
F8000000
F8000000
F8000000
FBF80000
FFFF8000
FFFFE000
FFFFF800
FFFFFC00
F803FE00
F800FE00
F8007F00
F8003F00
F8001F00
F8001F80
F8001F80
F8001F80
F8001F80
F8001F80
F8001F80
F8001F00
F8003F00
F8003F00
F800FE00
F803FC00
FFFFFC00
FFFFF800
FFFFE000
FFFF8000
FFFFC000
F80FC000
F807E000
F803F000
F803F000
F801F800
F801F800
F800FC00
F800FC00
F8007E00
F8007E00
F8003F00
F8003F00
F8003F00
F8001F80
F8001F80
F8000FC0
00000FC0
000007E0
000007E0
000007F0
000003F0
000003F0
ENDCHAR
STARTCHAR 01A7
ENCODING 423
SWIDTH 495 0
DWIDTH 33 0
BBX 26 43 4 -1
BITMAP
03FF8000
1FFFE000
7FFFF800
3FFFFC00
3FFFFE00
3C00FE00
10003F00
00003F00
00001F00
00001F80
00001F80
00001F80
00001F80
00001F80
00003F00
00007F00
0000FE00
0003FE00
000FFC00
007FF800
01FFE000
07FF8000
0FFE0000
1FF80000
3FE00000
7F800000
7F000000
FE000000
FC000000
FC000000
F8000000
F8000000
F8000000
F8000000
FC000000
FC000000
7E000300
7F801F80
3FFFFF80
1FFFFFC0
0FFFFF80
03FFFC00
007FC000
ENDCHAR
STARTCHAR 01A8
ENCODING 424
SWIDTH 495 0
DWIDTH 33 0
BBX 25 33 4 -1
BITMAP
007E0000
3FFFE000
3FFFF800
3FFFFC00
3FFFFE00
1C00FE00
00003F00
00001F00
00001F00
00001F00
00003F00
00007F00
0001FE00
0007FE00
003FFC00
00FFF800
03FFE000
0FFF8000
1FFC0000
3FE00000
7F800000
7E000000
FC000000
FC000000
FC000000
FC000000
7E000300
7F803F00
3FFFFF00
3FFFFF80
0FFFFF80
03FFFC00
003FC000
ENDCHAR
STARTCHAR 01A9
ENCODING 425
SWIDTH 495 0
DWIDTH 33 0
BBX 27 41 3 0
BITMAP
7FFFFFE0
7FFFFFE0
7FFFFFE0
7FFFFFE0
7E000000
3F000000
1F800000
1F800000
0FC00000
07E00000
03F00000
03F00000
01F80000
00FC0000
007E0000
007F0000
003F0000
001F8000
000FC000
0007E000
000FC000
001F8000
003F0000
003F0000
007E0000
00FC0000
01F80000
03F00000
03E00000
07E00000
0FC00000
1F800000
3F000000
3F000000
7E000000
FC000000
FFFFFFE0
FFFFFFE0
FFFFFFE0
FFFFFFE0
FFFFFFE0
ENDCHAR
STARTCHAR 01AA
ENCODING 426
SWIDTH 495 0
DWIDTH 33 0
BBX 26 57 3 -11
BITMAP
07F80000
1FFC0000
3FFE0000
7FFF0000
7C3F0000
F81F8000
F00F8000
F00F8000
F00F8000
F00F8000
F81FC000
7C3FC000
7FFFC000
3FFFC000
1FFFC000
078FC000
000FC000
000FC000
000FC000
000FC000
000FC000
000FC000
000FC000
000FC000
000FC000
000FC000
000FC000
000FC000
000FC000
000FC000
000FC000
000FC000
000FC000
000FC000
000FC000
000FC000
000FC000
000FC000
000FC000
000FC000
000FC000
000FC000
000FC000
000FC000
000FC000
000FC000
000FC000
000FC000
000FC000
0007E000
0007E000
0007F800
0003FFC0
0001FFC0
0000FFC0
00007FC0
00001FC0
ENDCHAR
STARTCHAR 01AB
ENCODING 427
SWIDTH 495 0
DWIDTH 33 0
BBX 26 51 4 -10
BITMAP
01F00000
01F00000
01F00000
01F00000
01F00000
01F00000
01F00000
01F00000
01F00000
FFFFFF80
FFFFFF80
FFFFFF80
FFFFFF80
FFFFFF80
01F00000
01F00000
01F00000
01F00000
01F00000
01F00000
01F00000
01F00000
01F00000
01F00000
01F00000
01F00000
01F00000
01F00000
01F00000
01F00000
01F00000
01F80000
01F80000
01F80000
01FC0000
00FF01C0
00FFFFC0
007FFFC0
003FFFC0
000FFFC0
000007C0
000007C0
000007C0
000007C0
000007C0
000007C0
00001FC0
0001FF80
0001FF80
0001FF00
0001FC00
ENDCHAR
STARTCHAR 01AC
ENCODING 428
SWIDTH 495 0
DWIDTH 33 0
BBX 30 41 1 0
BITMAP
03FFFFFC
0FFFFFFC
1FFFFFFC
3FFFFFFC
7F83F000
7C03F000
F803F000
F803F000
F803F000
F803F000
F803F000
6003F000
0003F000
0003F000
0003F000
0003F000
0003F000
0003F000
0003F000
0003F000
0003F000
0003F000
0003F000
0003F000
0003F000
0003F000
0003F000
0003F000
0003F000
0003F000
0003F000
0003F000
0003F000
0003F000
0003F000
0003F000
0003F000
0003F000
0003F000
0003F000
0003F000
ENDCHAR
STARTCHAR 01AD
ENCODING 429
SWIDTH 495 0
DWIDTH 33 0
BBX 27 47 4 -1
BITMAP
0003FFC0
001FFFE0
003FFFC0
007FFFC0
007FFFC0
00FE0040
00FC0000
01F80000
01F80000
01F00000
01F00000
01F00000
01F00000
01F00000
01F00000
FFFFFF80
FFFFFF80
FFFFFF80
FFFFFF80
FFFFFF80
01F00000
01F00000
01F00000
01F00000
01F00000
01F00000
01F00000
01F00000
01F00000
01F00000
01F00000
01F00000
01F00000
01F00000
01F00000
01F00000
01F00000
01F80000
01F80000
01F80000
01FC0000
00FF0780
00FFFFC0
007FFFC0
003FFFC0
001FFF80
0003FC00
ENDCHAR
STARTCHAR 01AE
ENCODING 430
SWIDTH 495 0
DWIDTH 33 0
BBX 28 52 3 -11
BITMAP
FFFFFFF0
FFFFFFF0
FFFFFFF0
FFFFFFF0
001F0000
001F0000
001F0000
001F0000
001F0000
001F0000
001F0000
001F0000
001F0000
001F0000
001F0000
001F0000
001F0000
001F0000
001F0000
001F0000
001F0000
001F0000
001F0000
001F0000
001F0000
001F0000
001F0000
001F0000
001F0000
001F0000
001F0000
001F0000
001F0000
001F0000
001F0000
001F0000
001F0000
001F0000
001F0000
001F0000
001F0000
001F0000
001F0000
001F0000
001F8000
001F8000
001F8000
000FF000
000FFC00
0007FE00
0003FE00
0000FE00
ENDCHAR
STARTCHAR 01AF
ENCODING 431
SWIDTH 495 0
DWIDTH 33 0
BBX 30 49 3 -1
BITMAP
000000FC
000000FC
0000007C
000000FC
000000FC
000000FC
000001F8
FC003FF8
FC003FF0
FC003FE0
FC003F80
FC003F00
FC003F00
FC003F00
FC003F00
FC003F00
FC003F00
FC003F00
FC003F00
FC003F00
FC003F00
FC003F00
FC003F00
FC003F00
FC003F00
FC003F00
FC003F00
FC003F00
FC003F00
FC003F00
FC003F00
FC003F00
FC003F00
FC003F00
FC003F00
FC003F00
FC003E00
FC003E00
FC003E00
7C007E00
7E007E00
7E007E00
7F00FC00
3F81FC00
3FFFF800
1FFFF800
0FFFF000
03FFC000
00FE0000
ENDCHAR
STARTCHAR 01B0
ENCODING 432
SWIDTH 495 0
DWIDTH 33 0
BBX 27 38 5 -1
BITMAP
000007E0
000007E0
000007E0
000007E0
000007C0
00000FC0
F801FFC0
F801FF80
F801FF00
F801FC00
F801F000
F801F000
F801F000
F801F000
F801F000
F801F000
F801F000
F801F000
F801F000
F801F000
F801F000
F801F000
F801F000
F801F000
F801F000
F801F000
F801F000
F801F000
FC01F000
FC01F000
FC01F000
7E01F000
7F83F000
3FFFF000
3FFFF000
1FFFF000
07FFE000
00FC0000
ENDCHAR
STARTCHAR 01B1
ENCODING 433
SWIDTH 495 0
DWIDTH 33 0
BBX 31 42 1 -1
BITMAP
FFF83FFE
FFF83FFE
FFF83FFE
FFF83FFE
01F81F00
01F01F80
03E00F80
07E007C0
07C007E0
0FC003E0
0F8003E0
1F8003F0
1F0001F0
1F0001F8
3F0001F8
3F0000F8
3E0000F8
3E0000FC
7E0000FC
7E0000FC
7E0000FC
7E00007C
7E00007C
7E00007C
7E00007C
7E0000FC
7E0000FC
7E0000FC
3E0000FC
3E0000F8
3F0000F8
3F0001F8
1F0001F8
1F8003F0
0FC007F0
0FE00FE0
07F01FC0
03FFFFC0
01FFFF80
00FFFE00
007FFC00
000FE000
ENDCHAR
STARTCHAR 01B2
ENCODING 434
SWIDTH 495 0
DWIDTH 33 0
BBX 27 42 3 -1
BITMAP
F81FF000
F81FF800
F81FFE00
F81FFE00
F800FF00
F8003F80
F8001F80
F8000FC0
F8000FC0
F80007C0
F80007E0
F80007E0
F80007E0
F80003E0
F80003E0
F80003E0
F80003E0
F80003E0
F80003E0
F80003E0
F80003E0
F80003E0
F80003E0
F80003E0
F80003E0
F80003E0
F80003E0
FC0007E0
FC0007E0
FC0007C0
FC0007C0
FC000FC0
7C000FC0
7E001F80
7E001F80
7F003F00
3F80FE00
1FFFFE00
1FFFFC00
07FFF800
03FFE000
007F0000
ENDCHAR
STARTCHAR 01B3
ENCODING 435
SWIDTH 495 0
DWIDTH 33 0
BBX 34 42 1 0
BITMAP
0000003E00
FC00007F80
7E0000FFC0
7E0001FFC0
7E0003FFC0
3F0003E380
3F0003E000
1F8007C000
1F8007C000
0F800F8000
0FC00F8000
0FC00F0000
07E01F0000
03E01F0000
03F03E0000
01F03E0000
01F83C0000
00F87C0000
00FC7C0000
007CF80000
007EF80000
003FF00000
001FF00000
001FF00000
000FE00000
000FE00000
0007C00000
0007C00000
0007C00000
0007C00000
0007C00000
0007C00000
0007C00000
0007C00000
0007C00000
0007C00000
0007C00000
0007C00000
0007C00000
0007C00000
0007C00000
0007C00000
ENDCHAR
STARTCHAR 01B4
ENCODING 436
SWIDTH 495 0
DWIDTH 33 0
BBX 31 43 1 -11
BITMAP
00000038
7E0001FE
7E0003FE
3F0007FE
3F0007FE
3F000FC0
3F000FC0
1F800F80
1F800F80
1F801F80
0F801F00
0FC01F00
0FC01F00
07C03F00
07E03E00
07E03E00
03E03E00
03F03E00
01F07C00
01F07C00
01F87C00
00F8F800
00FCF800
007CF800
007CF800
007FF000
003FF000
003FF000
001FE000
001FE000
000FC000
000FC000
0007C000
000F8000
000F8000
001F0000
003F0000
007E0000
7FFC0000
7FFC0000
7FF80000
FFE00000
7FC00000
ENDCHAR
STARTCHAR 01B5
ENCODING 437
SWIDTH 495 0
DWIDTH 33 0
BBX 26 41 4 0
BITMAP
7FFFFFC0
7FFFFFC0
7FFFFFC0
7FFFFFC0
00001F80
00001F80
00003F00
00007E00
00007E00
0000FC00
0001F800
0001F800
0003F000
0007E000
0007E000
000FC000
001FC000
3FFFFF80
3FFFFF80
3FFFFF80
3FFFFF80
3FFFFF80
00FC0000
01F80000
01F80000
03F00000
07E00000
07E00000
0FC00000
0FC00000
1F800000
1F800000
3F000000
3E000000
7E000000
7C000000
FFFFFFC0
FFFFFFC0
FFFFFFC0
FFFFFFC0
FFFFFFC0
ENDCHAR
STARTCHAR 01B6
ENCODING 438
SWIDTH 495 0
DWIDTH 33 0
BBX 23 31 5 0
BITMAP
7FFFFE
7FFFFE
7FFFFE
7FFFFE
7FFFFE
0001FC
0003F8
0003F0
0007E0
000FC0
001FC0
001F80
003F00
3FFFFC
3FFFFC
3FFFFC
3FFFFC
03F000
07F000
07E000
0FC000
1FC000
1F8000
3F0000
7F0000
7E0000
FFFFFE
FFFFFE
FFFFFE
FFFFFE
FFFFFE
ENDCHAR
STARTCHAR 01B7
ENCODING 439
SWIDTH 495 0
DWIDTH 33 0
BBX 29 42 2 -1
BITMAP
3FFFFFF0
3FFFFFF0
3FFFFFF0
3FFFFFF0
000007E0
00000FC0
00001F80
00003F00
00007F00
0000FE00
0000FC00
0001F800
0003F000
0007E000
000FC000
001F8000
003F0000
007F8000
007FF800
007FFE00
007FFF80
0001FFC0
00001FE0
000007E0
000003F0
000003F0
000001F8
000001F8
000001F8
000001F8
000001F8
000001F8
000001F8
000003F0
400007F0
70000FE0
7E007FE0
FFFFFFC0
FFFFFF80
7FFFFE00
1FFFF800
00FF8000
ENDCHAR
STARTCHAR 01B8
ENCODING 440
SWIDTH 495 0
DWIDTH 33 0
BBX 27 42 4 -1
BITMAP
7FFFFF80
7FFFFF80
7FFFFF80
3FFFFF80
3F000000
1F800000
0FC00000
0FE00000
07E00000
03F00000
01F80000
01FC0000
00FC0000
007E0000
003F0000
001F8000
001F8000
001FC000
00FFE000
03FFE000
0FFFE000
1FFC0000
1FC00000
3F800000
7F000000
7E000000
7C000000
7C000000
FC000000
FC000000
FC000000
7C000000
7C000000
7E000000
7F000000
3F800080
3FE007C0
1FFFFFC0
0FFFFFC0
03FFFFE0
01FFFF00
001FF000
ENDCHAR
STARTCHAR 01B9
ENCODING 441
SWIDTH 495 0
DWIDTH 33 0
BBX 26 42 4 -11
BITMAP
3FFFFF80
3FFFFF80
3FFFFF80
3FFFFF80
3FFFFF80
1F800000
0FC00000
0FC00000
07E00000
03F00000
01F80000
01F80000
00FC0000
007E0000
003F0000
001F8000
001F8000
000FC000
00FFE000
03FFE000
0FFFE000
1FFFE000
3FC00000
7F000000
7E000000
7C000000
FC000000
FC000000
FC000000
FC000000
FC000000
FC000000
7C000000
7E000000
7F000000
3F800000
3FE00180
1FFFFF80
0FFFFFC0
07FFFFC0
01FFFF80
003FFC00
ENDCHAR
STARTCHAR 01BA
ENCODING 442
SWIDTH 495 0
DWIDTH 33 0
BBX 25 42 3 -11
BITMAP
7FFFFF00
7FFFFF00
7FFFFF00
7FFFFF00
7FFFFE00
00007C00
0000FC00
0001F800
0003F000
0007E000
000FC000
001F8000
003F0000
00FE0000
00FF0000
00FFF000
00FFFC00
00FFFE00
0001FF00
00007F00
00003F80
00001F80
00001F80
00000F80
00001F80
00001F80
00001F80
00003F80
0000FF00
000FFE00
00FFFC00
07FFF800
1FFFE000
3FFF0000
7FE00000
7F000000
FC000000
F8000000
F8000000
F8000000
78000000
78000000
ENDCHAR
STARTCHAR 01BB
ENCODING 443
SWIDTH 495 0
DWIDTH 33 0
BBX 26 42 4 0
BITMAP
01FF8000
0FFFE000
3FFFF800
7FFFFC00
FFFFFC00
FE01FE00
78007E00
30003F00
20003F00
00003F00
00003F00
00003F00
00003F00
00003F00
00003F00
00007E00
00007E00
0000FC00
0001FC00
0003F800
0007F000
3FFFFF80
3FFFFF80
3FFFFF80
3FFFFF80
00FF0000
01FE0000
03FC0000
03F80000
07F00000
0FE00000
1FC00000
1F800000
3F000000
3F000000
7E000000
7E000000
7FFFFFC0
7FFFFFC0
7FFFFFC0
7FFFFFC0
7FFFFFC0
ENDCHAR
STARTCHAR 01BC
ENCODING 444
SWIDTH 495 0
DWIDTH 33 0
BBX 26 42 3 -1
BITMAP
FFFFFF80
FFFFFF80
FFFFFF80
FFFFFF80
07C00000
07C00000
07C00000
07C00000
07C00000
07C00000
07C00000
07C00000
07C00000
07C00000
07C00000
07800000
0FFF0000
0FFFE000
0FFFF800
0FFFFC00
003FFE00
0001FF00
00007F80
00003F80
00001FC0
00000FC0
00000FC0
000007C0
000007C0
000007C0
000007C0
000007C0
00000FC0
00000FC0
00001F80
20003F80
3C00FF00
3FFFFE00
3FFFFC00
7FFFF800
1FFFE000
00FF0000
ENDCHAR
STARTCHAR 01BD
ENCODING 445
SWIDTH 495 0
DWIDTH 33 0
BBX 25 32 4 -1
BITMAP
FFFFFF00
FFFFFF00
FFFFFF00
FFFFFF00
07C00000
07800000
07800000
07800000
0F800000
0F800000
0F800000
0F800000
0FFF8000
0FFFF000
0FFFFC00
0FFFFE00
0007FF00
00007F00
00003F80
00001F80
00001F80
00000F80
00001F80
00001F80
00001F80
00003F00
3C00FF00
7FFFFE00
7FFFFC00
7FFFF800
3FFFE000
00FE0000
ENDCHAR
STARTCHAR 01BE
ENCODING 446
SWIDTH 495 0
DWIDTH 33 0
BBX 27 41 4 0
BITMAP
01F00000
01F00000
01F00000
01F00000
01F00000
01F00000
01F00000
01F00000
01F00000
FFFFFF80
FFFFFF80
FFFFFF80
FFFFFF80
FFFFFF80
01F00000
01F00000
01F00000
01F00000
01F80000
01F80000
01FC0000
00FE0000
00FFC000
007FF000
003FFC00
000FFF00
0003FF80
00007FC0
00001FC0
00000FE0
000007E0
000007E0
000007E0
000007E0
1C000FC0
1F803FC0
1FFFFFC0
3FFFFF80
3FFFFE00
07FFF800
007FC000
ENDCHAR
STARTCHAR 01BF
ENCODING 447
SWIDTH 495 0
DWIDTH 33 0
BBX 26 43 5 -11
BITMAP
003C0000
0FFFC000
7FFFF000
FFFFF800
FFFFFC00
FF83FE00
F800FF00
F8003F00
F8001F80
F8001F80
F8000F80
F8000FC0
F8000FC0
F8000FC0
F8000FC0
F8000FC0
F8000FC0
F8000FC0
F8000F80
F8001F80
F8001F80
F8003F80
F8007F00
F8007F00
F800FE00
F803FC00
F807F800
F81FF000
F87FE000
F9FFC000
FFFF8000
FFFE0000
FFF80000
FFC00000
FF000000
F8000000
F8000000
F8000000
F8000000
F8000000
F8000000
F8000000
F8000000
ENDCHAR
STARTCHAR 01C0
ENCODING 448
SWIDTH 495 0
DWIDTH 33 0
BBX 5 58 14 -11
BITMAP
F8
F8
F8
F8
F8
F8
F8
F8
F8
F8
F8
F8
F8
F8
F8
F8
F8
F8
F8
F8
F8
F8
F8
F8
F8
F8
F8
F8
F8
F8
F8
F8
F8
F8
F8
F8
F8
F8
F8
F8
F8
F8
F8
F8
F8
F8
F8
F8
F8
F8
F8
F8
F8
F8
F8
F8
F8
F8
ENDCHAR
STARTCHAR 01C1
ENCODING 449
SWIDTH 495 0
DWIDTH 33 0
BBX 17 58 8 -11
BITMAP
F80F80
F80F80
F80F80
F80F80
F80F80
F80F80
F80F80
F80F80
F80F80
F80F80
F80F80
F80F80
F80F80
F80F80
F80F80
F80F80
F80F80
F80F80
F80F80
F80F80
F80F80
F80F80
F80F80
F80F80
F80F80
F80F80
F80F80
F80F80
F80F80
F80F80
F80F80
F80F80
F80F80
F80F80
F80F80
F80F80
F80F80
F80F80
F80F80
F80F80
F80F80
F80F80
F80F80
F80F80
F80F80
F80F80
F80F80
F80F80
F80F80
F80F80
F80F80
F80F80
F80F80
F80F80
F80F80
F80F80
F80F80
F80F80
ENDCHAR
STARTCHAR 01C2
ENCODING 450
SWIDTH 495 0
DWIDTH 33 0
BBX 29 58 2 -11
BITMAP
000F8000
000F8000
000F8000
000F8000
000F8000
000F8000
000F8000
000F8000
000F8000
000F8000
000F8000
000F8000
000F8000
000F8000
000F8000
000F8000
000F8000
000F8000
000F8000
000F8000
000F8000
FFFFFFF8
FFFFFFF8
FFFFFFF8
FFFFFFF8
000F8000
000F8000
000F8000
000F8000
000F8000
000F8000
000F8000
FFFFFFF8
FFFFFFF8
FFFFFFF8
FFFFFFF8
FFFFFFF8
000F8000
000F8000
000F8000
000F8000
000F8000
000F8000
000F8000
000F8000
000F8000
000F8000
000F8000
000F8000
000F8000
000F8000
000F8000
000F8000
000F8000
000F8000
000F8000
000F8000
000F8000
ENDCHAR
STARTCHAR 01C3
ENCODING 451
SWIDTH 495 0
DWIDTH 33 0
BBX 9 42 12 -1
BITMAP
3F00
3F00
3F00
3F00
3F00
3F00
3F00
3F00
3F00
3F00
3F00
3F00
3F00
3F00
3E00
3E00
3E00
3E00
3E00
3E00
3E00
3E00
3E00
3E00
3E00
1E00
1E00
0000
0000
0000
0000
0000
0000
3E00
7F00
FF80
FF80
FF80
FF80
7F00
7F00
1C00
ENDCHAR
STARTCHAR 01C4
ENCODING 452
SWIDTH 495 0
DWIDTH 33 0
BBX 31 54 2 0
BITMAP
0000600C
0000F01E
0000783E
00003C7C
00001EF8
00000FF0
00000FE0
000007C0
00000380
00000100
00000000
00000000
3C000000
FFC03FFC
FFE03FFC
FFF03FFC
FFF83FFC
F9F8007C
F8FC007C
F87C00F8
F83E00F8
F83E00F8
F83E00F0
F83E01F0
F81E01F0
F81F01F0
F81F01E0
F81F03E0
F81F03E0
F81F03E0
F81F03C0
F81F07C0
F81F07C0
F81F07C0
F81F0780
F81F0F80
F81F0F80
F81F0F80
F81F0F00
F81F1F00
F81F1F00
F81F1F00
F81E1E00
F83E1E00
F83E3E00
F83E3E00
F87C3C00
F87C3C00
F8FC7C00
FBF87FFC
FFF07FFC
FFF07FFC
FFE07FFC
FF807FFC
ENDCHAR
STARTCHAR 01C5
ENCODING 453
SWIDTH 495 0
DWIDTH 33 0
BBX 32 43 2 0
BITMAP
00000C06
3C000E0E
FFC01F9F
FFE007FC
FFF003F8
FFF801F0
F9F800E0
F8FC0040
F87C0000
F83E0000
F83E0000
F83E0000
F83E1FFC
F81E1FFC
F81F1FFC
F81F1FFC
F81F1FFC
F81F007C
F81F0078
F81F0078
F81F00F8
F81F00F0
F81F00F0
F81F01F0
F81F01E0
F81F01E0
F81F03E0
F81F03C0
F81F03C0
F81F07C0
F81F0780
F81E0780
F83E0780
F83E0F00
F83E0F00
F87C0F00
F87C1F00
F8FC1E00
FBF81FFC
FFF01FFC
FFF01FFC
FFE01FFC
FF801FFC
ENDCHAR
STARTCHAR 01C6
ENCODING 454
SWIDTH 495 0
DWIDTH 33 0
BBX 34 47 0 -1
BITMAP
0003800000
0007800000
0007800000
0007830180
0007838380
000787E7C0
000781FF00
000780FE00
0007807C00
0007803800
0007801000
0007800000
0007800000
0007800000
01C7800000
07F783FF80
0FFF83FF80
1FFF83FF80
3FFF83FF80
3F1F83FF80
3E0F800F00
7C07800F00
7C07801F00
7C07801E00
7807801E00
7807803C00
F807803C00
F807803C00
F807807800
F807807800
F807807800
F80780F000
F80780F000
F80780F000
780781F000
780781E000
7C0781E000
7C0781E000
7C0783C000
7C0783C000
3E0783C000
3E0787FF80
1F9F87FF80
1FFF87FF80
0FFF87FF80
07FF07FF80
00F8000000
ENDCHAR
STARTCHAR 01C7
ENCODING 455
SWIDTH 495 0
DWIDTH 33 0
BBX 30 41 2 0
BITMAP
FC0000FC
FC0000FC
FC0000FC
FC0000FC
FC0000FC
FC0000FC
FC0000FC
FC0000FC
FC0000FC
FC0000FC
FC0000FC
FC0000FC
FC0000FC
FC0000FC
FC0000FC
FC0000FC
FC0000FC
FC0000FC
FC0000FC
FC0000FC
FC0000FC
FC0000FC
FC0000FC
FC0000FC
FC0000FC
FC0000FC
FC0000FC
FC0000FC
FC0000FC
FC0000FC
FC0000FC
FC0000FC
FC0000F8
FC0000F8
FC0001F8
FC0003F8
FFFE3FF0
FFFE3FF0
FFFE3FE0
FFFE3FC0
FFFE3E00
ENDCHAR
STARTCHAR 01C8
ENCODING 456
SWIDTH 495 0
DWIDTH 33 0
BBX 27 55 4 -11
BITMAP
000007C0
00000FE0
00000FE0
F8000FE0
F8000FE0
F8000FE0
F80007E0
F8000380
F8000000
F8000000
F8000000
F8000000
F8000000
F80007C0
F80007C0
F80007C0
F80007C0
F80007C0
F80007C0
F80007C0
F80007C0
F80007C0
F80007C0
F80007C0
F80007C0
F80007C0
F80007C0
F80007C0
F80007C0
F80007C0
F80007C0
F80007C0
F80007C0
F80007C0
F80007C0
F80007C0
F80007C0
F80007C0
F80007C0
FFFF07C0
FFFF07C0
FFFF07C0
FFFF07C0
FFFF07C0
000007C0
000007C0
000007C0
00000FC0
00000FC0
00001F80
0007FF80
000FFF00
000FFE00
000FFC00
000FF000
ENDCHAR
STARTCHAR 01C9
ENCODING 457
SWIDTH 495 0
DWIDTH 33 0
BBX 21 57 7 -11
BITMAP
780000
F80000
F801E0
F803F0
F807F8
F807F8
F807F8
F803F8
F803F0
F800E0
F80000
F80000
F80000
F80000
F80000
F803F0
F803F0
F803F0
F803F0
F803F0
F803F0
F803F0
F803F0
F803F0
F803F0
F803F0
F803F0
F803F0
F803F0
F803F0
F803F0
F803F0
F803F0
F803F0
F803F0
F803F0
F803F0
F803F0
F803F0
F803F0
FC03F0
FE03F0
FF03F0
7F03F0
7F03F0
1F03F0
0103F0
0003F0
0003F0
0003E0
0007E0
000FE0
03FFC0
03FFC0
03FF80
03FF00
03FC00
ENDCHAR
STARTCHAR 01CA
ENCODING 458
SWIDTH 495 0
DWIDTH 33 0
BBX 30 41 2 0
BITMAP
F80F007C
F80F007C
FC0F007C
FC0F007C
FC0F007C
FC0F007C
FE0F007C
FE0F007C
FE0F007C
FE0F007C
FF0F007C
FF0F007C
FF0F007C
FF8F007C
F78F007C
F78F007C
F78F007C
F7CF007C
F3CF007C
F3CF007C
F3CF007C
F1EF007C
F1EF007C
F1EF007C
F9F7007C
F8F7007C
F8F7007C
F8F7007C
F8FF007C
F87F007C
F87F007C
F87F007C
F83F0078
F83F00F8
F83F00F8
F83F01F8
F81F1FF0
F81F1FF0
F81F1FE0
F81F1FC0
F80F1E00
ENDCHAR
STARTCHAR 01CB
ENCODING 459
SWIDTH 495 0
DWIDTH 33 0
BBX 30 55 2 -11
BITMAP
000000F0
000001F8
000003FC
F80F03FC
F80F03FC
FC0F03F8
FC0F01F8
FC0F00E0
FC0F0000
FE0F0000
FE0F0000
FE0F0000
FE0F0000
FF0F00F0
FF0F00F0
FF0F00F0
FF8F00F0
F78F00F0
F78F00F0
F78F00F0
F7CF00F0
F3CF00F0
F3CF00F0
F3CF00F0
F1EF00F0
F1EF00F0
F1EF00F0
F9F700F0
F8F700F0
F8F700F0
F8F700F0
F8FF00F0
F87F00F0
F87F00F0
F87F00F0
F83F00F0
F83F00F0
F83F00F0
F83F00F0
F81F00F0
F81F00F0
F81F00F0
F81F00F0
F80F00F0
000000F0
000001F0
000001F0
000001F0
000003F0
000007E0
0001FFE0
0001FFC0
0001FFC0
0001FF80
0001FE00
ENDCHAR
STARTCHAR 01CC
ENCODING 460
SWIDTH 495 0
DWIDTH 33 0
BBX 29 55 2 -11
BITMAP
000001F0
000003F8
000003F8
000003F8
000003F8
000003F8
000001F8
000000E0
00000000
00000000
00000000
00000000
00C00000
3FFC01F0
FFFE01F0
FFFF01F0
FFFF01F0
FE3F81F0
F81F81F0
F80F81F0
F80F81F0
F80F81F0
F80F81F0
F80F81F0
F80F81F0
F80F81F0
F80F81F0
F80F81F0
F80F81F0
F80F81F0
F80F81F0
F80F81F0
F80F81F0
F80F81F0
F80F81F0
F80F81F0
F80F81F0
F80F81F0
F80F81F0
F80F81F0
F80F81F0
F80F81F0
F80F81F0
F80F81F0
000001F0
000001F0
000001F0
000001F0
000003F0
000007E0
0001FFE0
0003FFC0
0003FF80
0003FF00
0003FC00
ENDCHAR
STARTCHAR 01CD
ENCODING 461
SWIDTH 495 0
DWIDTH 33 0
BBX 32 55 1 0
BITMAP
00600400
00F01E00
00F83F00
007C7E00
003EFC00
001FF800
000FF000
000FE000
0007C000
00038000
00010000
00000000
00000000
00000000
000FE000
000FF000
001FF000
001FF800
001FF800
003EF800
003EFC00
007E7C00
007C7C00
007C7E00
00FC3E00
00F83E00
00F83F00
01F81F00
01F01F00
01F01F80
01F00F80
03E00F80
03E00FC0
03E007C0
07C007C0
07C007C0
07C007E0
0F8003E0
0F8003E0
0F8003F0
1FFFFFF0
1FFFFFF0
1FFFFFF0
1FFFFFF8
3F0000F8
3E0000F8
3E0000F8
3E0000FC
7E0000FC
7C00007C
7C00007E
FC00007E
FC00007E
FC00003E
F800003F
ENDCHAR
STARTCHAR 01CE
ENCODING 462
SWIDTH 495 0
DWIDTH 33 0
BBX 25 47 4 -1
BITMAP
02002000
03807000
07C0F800
07E1F000
03F7E000
01FFC000
00FF8000
007F0000
003E0000
001C0000
00080000
00000000
00000000
00000000
003E0000
1FFFE000
1FFFF800
1FFFFC00
1FFFFE00
0E01FF00
00007F00
00003F00
00001F00
00001F80
00001F80
00001F80
00001F80
007F9F80
03FFFF80
0FFFFF80
1FFFFF80
3FFFFF80
7F801F80
FE001F80
FC001F80
FC001F80
FC001F80
FC001F80
FC001F80
FC001F80
FE001F80
7F801F80
7FFFFF80
3FFFFF80
0FFFFF80
03FFFF80
001F0000
ENDCHAR
STARTCHAR 01CF
ENCODING 463
SWIDTH 495 0
DWIDTH 33 0
BBX 21 55 6 0
BITMAP
0C0080
1E03C0
1F07E0
0F8FC0
07DF80
03FF00
01FE00
01FC00
00F800
007000
002000
000000
000000
000000
FFFFF8
FFFFF8
FFFFF8
FFFFF8
00F800
00F800
00F800
00F800
00F800
00F800
00F800
00F800
00F800
00F800
00F800
00F800
00F800
00F800
00F800
00F800
00F800
00F800
00F800
00F800
00F800
00F800
00F800
00F800
00F800
00F800
00F800
00F800
00F800
00F800
00F800
00F800
FFFFF8
FFFFF8
FFFFF8
FFFFF8
FFFFF8
ENDCHAR
STARTCHAR 01D0
ENCODING 464
SWIDTH 495 0
DWIDTH 33 0
BBX 26 47 4 -1
BITMAP
08008000
1C038000
3E07C000
1F0FC000
0FDF8000
07FF0000
03FE0000
01FC0000
00F80000
00700000
00200000
00000000
00000000
00000000
00000000
FFFC0000
FFFC0000
FFFC0000
FFFC0000
FFFC0000
007C0000
007C0000
007C0000
007C0000
007C0000
007C0000
007C0000
007C0000
007C0000
007C0000
007C0000
007C0000
007C0000
007C0000
007C0000
007C0000
007C0000
007C0000
007C0000
007E0000
007F0000
003F8780
003FFFC0
001FFFC0
001FFFC0
0007FF80
0000F800
ENDCHAR
STARTCHAR 01D1
ENCODING 465
SWIDTH 495 0
DWIDTH 33 0
BBX 29 56 2 -1
BITMAP
00C00800
01E03C00
01F07E00
00F8FC00
007DF800
003FF000
001FE000
001FC000
000F8000
00070000
00020000
00000000
00000000
003FE000
00FFF800
03FFFE00
07FFFF00
0FFFFF80
0FE03FC0
1F800FC0
1F8007E0
3F0007E0
3E0003F0
7E0003F0
7E0001F0
7C0001F8
7C0001F8
FC0001F8
FC0001F8
FC0000F8
FC0000F8
FC0000F8
FC0000F8
FC0000F8
FC0000F8
FC0000F8
FC0000F8
FC0000F8
FC0000F8
FC0000F8
FC0001F8
FC0001F8
7C0001F8
7C0001F0
7E0003F0
7E0003F0
3F0003F0
3F0007E0
1F800FE0
1FC01FC0
0FE03F80
07FFFF80
03FFFF00
01FFFE00
00FFF800
001FC000
ENDCHAR
STARTCHAR 01D2
ENCODING 466
SWIDTH 495 0
DWIDTH 33 0
BBX 28 47 3 -1
BITMAP
01001000
01C03800
03E07C00
03F0F800
01FBF000
00FFE000
007FC000
003F8000
001F0000
000E0000
00040000
00000000
00000000
00000000
001E0000
00FFE000
03FFF800
07FFFC00
0FFFFE00
1FE0FF00
3F803F80
3F001FC0
7E000FC0
7E0007E0
FC0007E0
FC0007E0
FC0003E0
FC0003E0
F80003F0
F80003F0
F80003F0
F80003F0
F80003F0
FC0003E0
FC0003E0
FC0007E0
FC0007E0
7E0007E0
7E000FC0
3F001FC0
3F803F80
1FE0FF00
0FFFFF00
07FFFE00
03FFF800
00FFE000
001F0000
ENDCHAR
STARTCHAR 01D3
ENCODING 467
SWIDTH 495 0
DWIDTH 33 0
BBX 27 56 3 -1
BITMAP
01801000
03C07800
03E0FC00
01F1F800
00FBF000
007FE000
003FC000
003F8000
001F0000
000E0000
00040000
00000000
00000000
00000000
FC0003E0
FC0003E0
FC0003E0
FC0003E0
FC0003E0
FC0003E0
FC0003E0
FC0003E0
FC0003E0
FC0003E0
FC0003E0
FC0003E0
FC0003E0
FC0003E0
FC0003E0
FC0003E0
FC0003E0
FC0003E0
FC0003E0
FC0003E0
FC0003E0
FC0003E0
FC0003E0
FC0003E0
FC0003E0
FC0003E0
FC0003E0
FC0003E0
FC0003E0
FC0007E0
FC0007E0
7C0007E0
7E0007E0
7E000FC0
7F000FC0
3F801FC0
3FC07F80
1FFFFF00
0FFFFE00
07FFFC00
01FFF800
003F8000
ENDCHAR
STARTCHAR 01D4
ENCODING 468
SWIDTH 495 0
DWIDTH 33 0
BBX 24 47 5 -1
BITMAP
040040
0700E0
0F81F0
0FC3E0
07EFC0
03FF80
01FF00
00FE00
007C00
003800
001000
000000
000000
000000
000000
F8003F
F8003F
F8003F
F8003F
F8003F
F8003F
F8003F
F8003F
F8003F
F8003F
F8003F
F8003F
F8003F
F8003F
F8003F
F8003F
F8003F
F8003F
F8003F
F8003F
F8003F
F8003F
FC003F
FC003F
FE003F
7F003F
7FC0FF
3FFFFF
1FFFFF
0FFFFF
03FFFC
003F00
ENDCHAR
STARTCHAR 01D5
ENCODING 469
SWIDTH 495 0
DWIDTH 33 0
BBX 27 56 3 -1
BITMAP
03FFF800
03FFF800
03FFF800
03FFF800
00000000
01801800
07C07C00
07E07E00
0FE0FE00
07E07E00
07C07C00
03803800
00000000
00000000
00000000
FC0003E0
FC0003E0
FC0003E0
FC0003E0
FC0003E0
FC0003E0
FC0003E0
FC0003E0
FC0003E0
FC0003E0
FC0003E0
FC0003E0
FC0003E0
FC0003E0
FC0003E0
FC0003E0
FC0003E0
FC0003E0
FC0003E0
FC0003E0
FC0003E0
FC0003E0
FC0003E0
FC0003E0
FC0003E0
FC0003E0
FC0003E0
FC0003E0
FC0007E0
FC0007E0
7C0007E0
7E0007E0
7E000FC0
7F000FC0
3F801FC0
3FC07F80
1FFFFF00
0FFFFE00
07FFFC00
01FFF800
003F8000
ENDCHAR
STARTCHAR 01D6
ENCODING 470
SWIDTH 495 0
DWIDTH 33 0
BBX 24 49 5 -1
BITMAP
0FFFE0
0FFFE0
0FFFE0
0FFFE0
000000
000000
000000
1F01F0
1F81F8
3F83F8
1F81F8
1F01F0
0F00F0
000000
000000
000000
000000
F8003F
F8003F
F8003F
F8003F
F8003F
F8003F
F8003F
F8003F
F8003F
F8003F
F8003F
F8003F
F8003F
F8003F
F8003F
F8003F
F8003F
F8003F
F8003F
F8003F
F8003F
F8003F
FC003F
FC003F
FE003F
7F003F
7FC0FF
3FFFFF
1FFFFF
0FFFFF
03FFFC
003F00
ENDCHAR
STARTCHAR 01D7
ENCODING 471
SWIDTH 495 0
DWIDTH 33 0
BBX 27 56 3 -1
BITMAP
00010000
0003C000
0007E000
0007C000
000F8000
1F1F9F00
1F9F1F80
3F9E1F80
3F841F80
1F001F80
0F000F00
00000000
00000000
00000000
FC0003E0
FC0003E0
FC0003E0
FC0003E0
FC0003E0
FC0003E0
FC0003E0
FC0003E0
FC0003E0
FC0003E0
FC0003E0
FC0003E0
FC0003E0
FC0003E0
FC0003E0
FC0003E0
FC0003E0
FC0003E0
FC0003E0
FC0003E0
FC0003E0
FC0003E0
FC0003E0
FC0003E0
FC0003E0
FC0003E0
FC0003E0
FC0003E0
FC0003E0
FC0007E0
FC0007E0
7C0007E0
7E0007E0
7E000FC0
7F000FC0
3F801FC0
3FC07F80
1FFFFF00
0FFFFE00
07FFFC00
01FFF800
003F8000
ENDCHAR
STARTCHAR 01D8
ENCODING 472
SWIDTH 495 0
DWIDTH 33 0
BBX 24 51 5 0
BITMAP
000300
0007C0
0007C0
000F80
001F00
003F00
003E00
007C00
003800
1F10F0
3F01F8
3F81F8
3F81F8
1F01F8
1E00F0
000000
000000
000000
000000
F8003F
F8003F
F8003F
F8003F
F8003F
F8003F
F8003F
F8003F
F8003F
F8003F
F8003F
F8003F
F8003F
F8003F
F8003F
F8003F
F8003F
F8003F
F8003F
F8003F
F8003F
F8003F
FC003F
FC003F
FE003F
7F003F
7FC0FF
3FFFFF
1FFFFF
0FFFFF
03FFFC
003F00
ENDCHAR
STARTCHAR 01D9
ENCODING 473
SWIDTH 495 0
DWIDTH 33 0
BBX 27 56 3 -1
BITMAP
0060C000
007BE000
00FFE000
003FC000
001F0000
1F0E1F00
1F841F80
3F801F80
3F801F80
1F001F80
0F000F00
00000000
00000000
00000000
FC0003E0
FC0003E0
FC0003E0
FC0003E0
FC0003E0
FC0003E0
FC0003E0
FC0003E0
FC0003E0
FC0003E0
FC0003E0
FC0003E0
FC0003E0
FC0003E0
FC0003E0
FC0003E0
FC0003E0
FC0003E0
FC0003E0
FC0003E0
FC0003E0
FC0003E0
FC0003E0
FC0003E0
FC0003E0
FC0003E0
FC0003E0
FC0003E0
FC0003E0
FC0007E0
FC0007E0
7C0007E0
7E0007E0
7E000FC0
7F000FC0
3F801FC0
3FC07F80
1FFFFF00
0FFFFE00
07FFFC00
01FFF800
003F8000
ENDCHAR
STARTCHAR 01DA
ENCODING 474
SWIDTH 495 0
DWIDTH 33 0
BBX 24 50 5 -1
BITMAP
0700C0
0783C0
07E7E0
03FF80
01FF00
007E00
003800
001000
1F00F0
3F01F8
3F81F8
3F81F8
1F01F8
1E00F0
000000
000000
000000
000000
F8003F
F8003F
F8003F
F8003F
F8003F
F8003F
F8003F
F8003F
F8003F
F8003F
F8003F
F8003F
F8003F
F8003F
F8003F
F8003F
F8003F
F8003F
F8003F
F8003F
F8003F
F8003F
FC003F
FC003F
FE003F
7F003F
7FC0FF
3FFFFF
1FFFFF
0FFFFF
03FFFC
003F00
ENDCHAR
STARTCHAR 01DB
ENCODING 475
SWIDTH 495 0
DWIDTH 33 0
BBX 27 56 3 -1
BITMAP
00180000
00380000
007C0000
007E0000
003E0000
1F1F1F00
1F8F9F80
3F871F80
3F821F80
1F001F80
0F000F00
00000000
00000000
00000000
FC0003E0
FC0003E0
FC0003E0
FC0003E0
FC0003E0
FC0003E0
FC0003E0
FC0003E0
FC0003E0
FC0003E0
FC0003E0
FC0003E0
FC0003E0
FC0003E0
FC0003E0
FC0003E0
FC0003E0
FC0003E0
FC0003E0
FC0003E0
FC0003E0
FC0003E0
FC0003E0
FC0003E0
FC0003E0
FC0003E0
FC0003E0
FC0003E0
FC0003E0
FC0007E0
FC0007E0
7C0007E0
7E0007E0
7E000FC0
7F000FC0
3F801FC0
3FC07F80
1FFFFF00
0FFFFE00
07FFFC00
01FFF800
003F8000
ENDCHAR
STARTCHAR 01DC
ENCODING 476
SWIDTH 495 0
DWIDTH 33 0
BBX 24 52 5 -1
BITMAP
008000
018000
03C000
07E000
03E000
01F000
00F800
007C00
003C00
003800
1F10F0
3F01F8
3F81F8
3F81F8
1F01F8
1E00F0
000000
000000
000000
000000
F8003F
F8003F
F8003F
F8003F
F8003F
F8003F
F8003F
F8003F
F8003F
F8003F
F8003F
F8003F
F8003F
F8003F
F8003F
F8003F
F8003F
F8003F
F8003F
F8003F
F8003F
F8003F
FC003F
FC003F
FE003F
7F003F
7FC0FF
3FFFFF
1FFFFF
0FFFFF
03FFFC
003F00
ENDCHAR
STARTCHAR 01DD
ENCODING 477
SWIDTH 495 0
DWIDTH 33 0
BBX 28 33 3 -1
BITMAP
00FC0000
0FFFC000
3FFFF800
3FFFFC00
1FFFFE00
1E03FF00
00007F80
00001FC0
00000FC0
00000FC0
000007E0
000007E0
000007E0
000003E0
000003F0
FFFFFFF0
FFFFFFF0
FFFFFFF0
FFFFFFF0
FC0003E0
FC0003E0
FC0007E0
FC0007E0
7C000FC0
7E000FC0
7F001F80
3F803F80
3FC0FF00
1FFFFE00
0FFFFC00
07FFF800
01FFE000
003F0000
ENDCHAR
STARTCHAR 01DE
ENCODING 478
SWIDTH 495 0
DWIDTH 33 0
BBX 32 55 1 0
BITMAP
00FFFE00
00FFFE00
00FFFE00
00FFFE00
00000000
00600600
01F01F00
01F81F80
03F83F80
01F81F80
01F01F00
00E00E00
00000000
00000000
00000000
000FE000
000FF000
001FF000
001FF800
001FF800
003EF800
003EFC00
003E7C00
007C7C00
007C7E00
00FC3E00
00F83E00
00F83F00
01F81F00
01F01F00
01F01F80
03F00F80
03E00F80
03E00FC0
07E00FC0
07C007C0
07C007E0
07C007E0
0F8003E0
0F8003E0
0FFFFFF0
1FFFFFF0
1FFFFFF0
1FFFFFF8
3F0001F8
3F0001F8
3E0000F8
3E0000FC
7E0000FC
7E00007C
7C00007E
FC00007E
FC00007E
FC00003E
F800003F
ENDCHAR
STARTCHAR 01DF
ENCODING 479
SWIDTH 495 0
DWIDTH 33 0
BBX 25 49 4 -1
BITMAP
07FFF000
07FFF000
07FFF000
07FFF000
00000000
00000000
00000000
0F80F800
0FC0FC00
1FC1FC00
0FC0FC00
0F80F800
07807800
00000000
00000000
00000000
003E0000
1FFFE000
1FFFF800
1FFFFC00
1FFFFE00
0E01FF00
00007F00
00003F00
00001F00
00001F80
00001F80
00001F80
00001F80
007F9F80
03FFFF80
0FFFFF80
1FFFFF80
3FFFFF80
7F801F80
FE001F80
FC001F80
FC001F80
FC001F80
FC001F80
FC001F80
FC001F80
FE001F80
7F801F80
7FFFFF80
3FFFFF80
0FFFFF80
03FFFF80
001F0000
ENDCHAR
STARTCHAR 01E0
ENCODING 480
SWIDTH 495 0
DWIDTH 33 0
BBX 32 55 1 0
BITMAP
00FFFE00
00FFFE00
00FFFE00
00FFFE00
00000000
00038000
0007C000
000FE000
000FE000
000FE000
0007C000
00038000
00000000
00000000
00000000
000FE000
000FF000
001FF000
001FF800
001FF800
003EF800
003EFC00
003E7C00
007C7C00
007C7E00
00FC3E00
00F83E00
00F83F00
01F81F00
01F01F00
01F01F80
03F00F80
03E00F80
03E00FC0
07E00FC0
07C007C0
07C007E0
07C007E0
0F8003E0
0F8003E0
0FFFFFF0
1FFFFFF0
1FFFFFF0
1FFFFFF8
3F0001F8
3F0001F8
3E0000F8
3E0000FC
7E0000FC
7E00007C
7C00007E
FC00007E
FC00007E
FC00003E
F800003F
ENDCHAR
STARTCHAR 01E1
ENCODING 481
SWIDTH 495 0
DWIDTH 33 0
BBX 25 49 4 -1
BITMAP
07FFF000
07FFF000
07FFF000
07FFF000
00000000
00000000
00080000
003E0000
003F0000
007F0000
007F0000
003F0000
001E0000
00000000
00000000
00000000
003E0000
1FFFE000
1FFFF800
1FFFFC00
1FFFFE00
0E01FF00
00007F00
00003F00
00001F00
00001F80
00001F80
00001F80
00001F80
007F9F80
03FFFF80
0FFFFF80
1FFFFF80
3FFFFF80
7F801F80
FE001F80
FC001F80
FC001F80
FC001F80
FC001F80
FC001F80
FC001F80
FE001F80
7F801F80
7FFFFF80
3FFFFF80
0FFFFF80
03FFFF80
001F0000
ENDCHAR
STARTCHAR 01E2
ENCODING 482
SWIDTH 495 0
DWIDTH 33 0
BBX 30 52 2 0
BITMAP
000FFFF8
000FFFF8
000FFFF8
000FFFF8
000FFFF8
00000000
00000000
00000000
00000000
00000000
00000000
000FFFF8
000FFFF8
000FFFF8
001EFFF8
001EF800
003EF800
003EF800
003CF800
007CF800
007CF800
0078F800
00F8F800
00F8F800
00F0F800
01F0F800
01F0F800
01F0F800
03E0FFF0
03E0FFF0
03E0FFF0
07C0FFF0
07C0FFF0
07C0F800
0780F800
0F80F800
0F80F800
0FFFF800
1FFFF800
1FFFF800
1FFFF800
1F00F800
3E00F800
3E00F800
3E00F800
7E00F800
7C00F800
7C00FFFC
7C00FFFC
FC00FFFC
FC00FFFC
F800FFFC
ENDCHAR
STARTCHAR 01E3
ENCODING 483
SWIDTH 495 0
DWIDTH 33 0
BBX 30 43 2 -1
BITMAP
01FFFF00
01FFFF00
01FFFF00
01FFFF00
00000000
00000000
00000000
00000000
00000000
00000000
01C00E00
3FF83F80
3FFC7FC0
3FFEFFE0
1FFFFFF0
103FF1F0
001FE0F8
001FC0F8
000FC0F8
000FC078
000FC07C
000FC07C
000FC07C
03EFC07C
0FFFFFFC
1FFFFFFC
3FFFFFFC
7FFFFFFC
7E0F8000
7C0FC000
F80FC000
F807C000
F807C000
F807C000
F807E000
FC03E000
7C07F000
7E0FFC70
7FFFFFF8
3FFFFFF8
1FFE7FF8
0FFC3FF0
01E00780
ENDCHAR
STARTCHAR 01E4
ENCODING 484
SWIDTH 495 0
DWIDTH 33 0
BBX 29 43 3 -1
BITMAP
000FF800
007FFF00
00FFFF80
03FFFF80
07FFFF80
07F00700
0FE00100
1FC00000
1F800000
3F000000
3F000000
3E000000
7E000000
7E000000
7C000000
7C000000
FC000000
FC000000
FC000000
FC000000
FC000FC0
FC000FC0
FC000FC0
FC000FC0
FC000FC0
FC000FC0
FC01FFF8
7C01FFF8
7C01FFF8
7E01FFF8
7E000FC0
7E000FC0
3F000FC0
3F000FC0
1F800FC0
1FC00FC0
0FE00FC0
0FF80FC0
07FFFFC0
03FFFFC0
00FFFFC0
007FFF00
000FF000
ENDCHAR
STARTCHAR 01E5
ENCODING 485
SWIDTH 495 0
DWIDTH 33 0
BBX 29 43 3 -11
BITMAP
000F8000
00FFFE00
03FFFF00
0FFFFF00
1FFFFF00
1FE07F00
3F801F00
7F001F00
7E001F00
7E001F00
FC001F00
FC001F00
FC001F00
F8001F00
F807FFF8
F807FFF8
F807FFF8
F807FFF8
F8001F00
FC001F00
FC001F00
FC001F00
7E001F00
7E001F00
7F003F00
3FC0FF00
1FFFFF00
0FFFFF00
07FFFF00
03FFDF00
007E1F00
00001F00
00001F00
00001F00
00003F00
00003F00
00007E00
3001FE00
3FFFFC00
3FFFF800
7FFFF000
7FFFE000
0FFF0000
ENDCHAR
STARTCHAR 01E6
ENCODING 486
SWIDTH 495 0
DWIDTH 33 0
BBX 27 56 3 -1
BITMAP
00100300
00380780
007E0F80
003F1F00
001FBE00
000FFC00
0007F800
0003F000
0001F000
0000E000
00004000
00000000
00000000
000FFE00
003FFF80
00FFFFE0
01FFFFE0
03FFFFE0
07F803C0
0FE000C0
0FC00000
1F800000
3F800000
3F000000
3F000000
7E000000
7E000000
7E000000
7C000000
FC000000
FC000000
FC000000
FC000000
FC000000
FC000000
FC0003E0
FC0003E0
FC0003E0
FC0003E0
FC0003E0
7C0003E0
7E0003E0
7E0003E0
7E0003E0
3F0003E0
3F0003E0
3F8003E0
1F8003E0
1FC003E0
0FF003E0
07FC07E0
03FFFFE0
01FFFFE0
00FFFFE0
003FFFC0
0007FC00
ENDCHAR
STARTCHAR 01E7
ENCODING 487
SWIDTH 495 0
DWIDTH 33 0
BBX 26 57 3 -11
BITMAP
00400800
00E01C00
01F03E00
00F87C00
007CF800
003FF000
003FE000
001FC000
000F8000
00070000
00020000
00000000
00000000
00000000
000FC000
00FFFF00
03FFFFC0
07FFFFC0
0FFFFFC0
1FF03FC0
3F800FC0
3F000FC0
7E000FC0
7E000FC0
FC000FC0
FC000FC0
FC000FC0
F8000FC0
F8000FC0
F8000FC0
F8000FC0
F8000FC0
F8000FC0
FC000FC0
FC000FC0
FC000FC0
7E000FC0
7F000FC0
3F801FC0
3FC07FC0
1FFFFFC0
0FFFFFC0
07FFFFC0
01FFEFC0
007F0FC0
00000FC0
00000F80
00000F80
00001F80
00001F80
00003F00
3800FF00
3FFFFE00
3FFFFE00
7FFFF800
7FFFF000
0FFF8000
ENDCHAR
STARTCHAR 01E8
ENCODING 488
SWIDTH 495 0
DWIDTH 33 0
BBX 29 55 4 0
BITMAP
03002000
0780F000
07C1F800
03E3F000
01F7E000
00FFC000
007F8000
007F0000
003E0000
001C0000
00080000
00000000
00000000
00000000
FC000FE0
FC000FC0
FC001F80
FC003F80
FC007F00
FC007E00
FC00FC00
FC01FC00
FC03F800
FC07F000
FC07E000
FC0FC000
FC1FC000
FC3F8000
FC7F0000
FCFE0000
FDFC0000
FFF80000
FFF00000
FFF00000
FFF80000
FFFE0000
FDFF0000
FC7F8000
FC3FC000
FC1FC000
FC0FE000
FC07F000
FC03F800
FC01FC00
FC00FE00
FC00FE00
FC007F00
FC003F80
FC001F80
FC001FC0
FC000FE0
FC000FE0
FC0007F0
FC0003F0
FC0003F8
ENDCHAR
STARTCHAR 01E9
ENCODING 489
SWIDTH 495 0
DWIDTH 33 0
BBX 29 55 3 0
BITMAP
60180000
F03C0000
FCFC0000
7FF80000
1FF00000
0FC00000
07800000
01000000
00000000
00000000
00000000
1E000000
3E000000
3E000000
3E000000
3E000000
3E000000
3E000000
3E000000
3E000000
3E000000
3E000000
3E000000
3E000000
3E0007E0
3E000FC0
3E001FC0
3E003F80
3E007F00
3E00FE00
3E01F800
3E03F000
3E0FE000
3E1FC000
3E3F8000
3E7F0000
3EFE0000
3FF80000
3FFC0000
3FFE0000
3EFF0000
3E7F8000
3E3FC000
3E0FE000
3E07F000
3E03F800
3E01FC00
3E00FE00
3E007F00
3E003F80
3E001FC0
3E000FC0
3E0007E0
3E0007F0
3E0003F8
ENDCHAR
STARTCHAR 01EA
ENCODING 490
SWIDTH 495 0
DWIDTH 33 0
BBX 29 53 2 -11
BITMAP
003FE000
00FFF800
03FFFE00
07FFFF00
0FFFFF80
0FE03FC0
1F800FC0
1F8007E0
3F0007E0
3E0003F0
7E0003F0
7E0001F0
7C0001F8
7C0001F8
FC0001F8
FC0001F8
FC0000F8
FC0000F8
FC0000F8
FC0000F8
FC0000F8
FC0000F8
FC0000F8
FC0000F8
FC0000F8
FC0000F8
FC0000F8
FC0001F8
FC0001F8
7C0001F8
7E0001F8
7E0001F0
7E0003F0
3F0003F0
3F0007E0
1F800FE0
1FC01FC0
0FE03F80
07FFFF80
03FFFF00
01FFFE00
00FFF800
001FF000
0003E000
0007C000
000F8000
001F0000
001F0000
001F0000
001FF800
001FF800
000FF800
0007F800
ENDCHAR
STARTCHAR 01EB
ENCODING 491
SWIDTH 495 0
DWIDTH 33 0
BBX 28 43 3 -11
BITMAP
001E0000
00FFE000
03FFF800
07FFFC00
0FFFFE00
1FE0FF00
3F803F80
3F001FC0
7E000FC0
7E0007E0
FC0007E0
FC0007E0
FC0003E0
FC0003E0
F80003F0
F80003F0
F80003F0
F80003F0
F80003F0
FC0003E0
FC0003E0
FC0007E0
FC0007E0
7E0007E0
7E000FC0
3F001FC0
3F803F80
1FE0FF00
0FFFFF00
07FFFE00
03FFF800
00FFF000
000FC000
000F8000
001F0000
003E0000
007C0000
007C0000
007C0000
007FE000
007FE000
003FE000
001FE000
ENDCHAR
STARTCHAR 01EC
ENCODING 492
SWIDTH 495 0
DWIDTH 33 0
BBX 29 63 2 -11
BITMAP
03FFFE00
03FFFE00
03FFFE00
03FFFE00
03FFFE00
00000000
00000000
00000000
00000000
00000000
003FE000
00FFF800
03FFFE00
07FFFF00
0FFFFF80
0FE03FC0
1F800FC0
1F8007E0
3F0007E0
3E0003F0
7E0003F0
7E0001F0
7C0001F8
7C0001F8
FC0001F8
FC0001F8
FC0000F8
FC0000F8
FC0000F8
FC0000F8
FC0000F8
FC0000F8
FC0000F8
FC0000F8
FC0000F8
FC0000F8
FC0000F8
FC0001F8
FC0001F8
7C0001F8
7E0001F8
7E0001F0
7E0003F0
3F0003F0
3F0007E0
1F800FE0
1FC01FC0
0FE03F80
07FFFF80
03FFFF00
01FFFE00
00FFF800
001FF000
0003E000
0007C000
000F8000
001F0000
001F0000
001F0000
001FF800
001FF800
000FF800
0007F800
ENDCHAR
ENDFONT
